<?xml version="1.0" standalone="no"?>
<!DOCTYPE svg PUBLIC "-//W3C//DTD SVG 1.1//EN" "http://www.w3.org/Graphics/SVG/1.1/DTD/svg11.dtd" >
<svg xmlns="http://www.w3.org/2000/svg" xmlns:xlink="http://www.w3.org/1999/xlink" version="1.1">
<metadata></metadata>
<defs>
<font id="core_sans_e85_heavy" horiz-adv-x="1142" >
<font-face units-per-em="2048" ascent="1638" descent="-410" />
<missing-glyph horiz-adv-x="532" />
<glyph unicode="&#xfb01;" horiz-adv-x="1392" d="M45 772v252h154v98q0 169 92.5 247.5t300.5 78.5q137 0 201 -10v-242h-134q-68 0 -94 -23.5t-26 -80.5v-68h254v-252h-254v-772h-340v772h-154zM936 0v1024h340v-1024h-340zM936 1161v273h340v-273h-340z" />
<glyph unicode="&#xfb02;" horiz-adv-x="1392" d="M45 772v252h154v98q0 169 92.5 247.5t300.5 78.5q137 0 201 -10v-242h-134q-68 0 -94 -23.5t-26 -80.5v-68h254v-252h-254v-772h-340v772h-154zM936 0v1434h340v-1434h-340z" />
<glyph horiz-adv-x="682" />
<glyph horiz-adv-x="0" />
<glyph horiz-adv-x="0" />
<glyph unicode="&#xd;" horiz-adv-x="485" />
<glyph unicode=" "  horiz-adv-x="532" />
<glyph unicode="&#x09;" horiz-adv-x="532" />
<glyph unicode="&#xa0;" horiz-adv-x="532" />
<glyph unicode="!" horiz-adv-x="696" d="M178 0v303h340v-303h-340zM178 1229v205h340v-205l-24 -780h-291z" />
<glyph unicode="&#x22;" horiz-adv-x="933" d="M145 977v457h275v-457h-275zM514 977v457h274v-457h-274z" />
<glyph unicode="#" horiz-adv-x="1460" d="M61 332v256h242l55 258h-227v256h283l73 332h306l-74 -332h186l74 332h305l-74 -332h189v-256h-244l-55 -258h229v-256h-285l-71 -332h-305l71 332h-186l-72 -332h-305l72 332h-187zM608 588h187l55 258h-186z" />
<glyph unicode="$" horiz-adv-x="1228" d="M84 1034q0 152 93.5 262.5t262.5 145.5v180h312v-180q166 -36 261 -144.5t95 -248.5v-23h-367v23q0 60 -38 93.5t-107 33.5q-70 0 -107.5 -33.5t-37.5 -93.5q0 -63 44 -99.5t146 -58.5l111 -23q206 -42 307.5 -151t101.5 -295q0 -166 -97 -281t-278 -151v-178h-311v178 q-181 33 -281 145.5t-100 276.5v24h367v-30q0 -69 43 -108.5t125 -39.5q80 0 123 39.5t43 108.5q0 66 -43 106t-144 61l-110 23q-203 41 -308.5 146.5t-105.5 291.5z" />
<glyph unicode="%" horiz-adv-x="1742" d="M100 1071q0 387 320 387q323 0 323 -387t-323 -387q-320 0 -320 387zM348 1071q0 -109 16 -148.5t58 -39.5t58 39.5t16 148.5t-16 149t-58 40t-58 -40t-16 -149zM457 0l587 1434h242l-588 -1434h-241zM999 362q0 388 324 388q319 0 319 -388q0 -387 -319 -387 q-324 0 -324 387zM1247 362q0 -109 16 -148.5t58 -39.5t58 39.5t16 148.5t-16 149t-58 40t-58 -40t-16 -149z" />
<glyph unicode="&#x26;" horiz-adv-x="1404" d="M90 397q0 125 65.5 222t182.5 157l-6 8q-142 166 -142 326q0 161 114.5 254.5t305.5 93.5t305.5 -93.5t114.5 -254.5v-55h-336v55q0 96 -84 96t-84 -96q0 -45 19 -85t65 -93l324 -383q20 84 20 192h332q-12 -249 -131 -442l260 -299h-405l-70 82q-143 -107 -344 -107 q-233 0 -369.5 114.5t-136.5 307.5zM430 403q0 -82 50.5 -123.5t133.5 -41.5q86 0 150 47l-250 288q-84 -68 -84 -170z" />
<glyph unicode="'" horiz-adv-x="565" d="M145 977v457h275v-457h-275z" />
<glyph unicode="(" horiz-adv-x="759" d="M145 709q0 194 13 336.5t44 246.5t74.5 170t111 105t146 54t187.5 15v-256q-34 0 -55.5 -2.5t-47.5 -12.5t-41.5 -29t-32.5 -52t-26.5 -82t-17.5 -118.5t-11.5 -162.5t-3.5 -212t3.5 -212t11.5 -162.5t17.5 -119t26.5 -82t32.5 -52t41 -29.5t47.5 -12.5t56 -2.5v-256 q-93 0 -163 11t-132.5 37.5t-106 73.5t-78.5 116.5t-55 168t-30.5 226.5t-10.5 295z" />
<glyph unicode=")" horiz-adv-x="759" d="M39 37q34 0 55.5 2.5t47.5 12.5t41.5 29.5t32 52t26 82t17.5 119t11.5 162.5t3.5 212t-3.5 212t-11.5 162.5t-17.5 118.5t-26 82t-32 52t-41.5 29t-47.5 12.5t-55.5 2.5v256q109 0 187.5 -15t146 -54t110.5 -105t74 -170t44 -246.5t13 -336.5q0 -146 -7.5 -261.5 t-24 -209t-40.5 -162.5t-60 -120.5t-78 -84.5t-100 -53.5t-121 -28.5t-144 -8v256z" />
<glyph unicode="*" horiz-adv-x="1107" d="M74 543l305 123l-305 125l133 231l258 -203l-45 326h268l-47 -326l260 203l133 -231l-305 -125l305 -123l-133 -232l-260 203l47 -326h-268l45 326l-258 -203z" />
<glyph unicode="+" d="M90 539v256h326v350h311v-350h326v-256h-326v-351h-311v351h-326z" />
<glyph unicode="," horiz-adv-x="602" d="M129 0v340h344v-340q0 -126 -90.5 -204.5t-253.5 -82.5v150q172 6 172 137h-172z" />
<glyph unicode="-" horiz-adv-x="880" d="M90 528v277h701v-277h-701z" />
<glyph unicode="." horiz-adv-x="602" d="M129 0v340h344v-340h-344z" />
<glyph unicode="/" horiz-adv-x="1024" d="M0 -190l672 1794h352l-672 -1794h-352z" />
<glyph unicode="0" horiz-adv-x="1204" d="M90 717q0 222 35 366.5t113 235.5q121 139 364 139q244 0 365 -139q78 -91 112.5 -235.5t34.5 -366.5t-34.5 -366.5t-112.5 -235.5q-122 -140 -365 -140q-242 0 -364 140q-78 91 -113 235.5t-35 366.5zM444 717q0 -173 9 -268t34 -138q38 -63 115 -63t115 63 q25 43 34 138t9 268t-9 267.5t-34 137.5q-38 64 -115 64t-115 -64q-25 -43 -34 -137.5t-9 -267.5z" />
<glyph unicode="1" horiz-adv-x="1204" d="M227 991v287l338 156h303v-1434h-354v1118z" />
<glyph unicode="2" horiz-adv-x="1204" d="M123 961v65q0 88 31.5 166t90 137.5t150.5 94t205 34.5t205 -34.5t150.5 -94t90 -137.5t31.5 -166q0 -112 -33.5 -190.5t-119.5 -178.5l-336 -385h510v-272h-955v252l486 559q52 59 73 108t21 111q0 156 -123 156t-123 -156v-69h-354z" />
<glyph unicode="3" horiz-adv-x="1204" d="M96 406v49h355v-35q0 -84 36.5 -128t108.5 -44t108.5 44t36.5 128q0 112 -43.5 155t-148.5 43h-100v271h100q78 0 119 36.5t41 123.5q0 67 -29.5 102t-83.5 35q-56 0 -85.5 -35t-29.5 -102v-27h-342v37q0 183 122 291t335 108q211 0 334 -108t123 -281q0 -123 -58.5 -200 t-163.5 -107q129 -29 197 -122t68 -234q0 -194 -137.5 -312.5t-362.5 -118.5q-227 0 -363.5 118.5t-136.5 312.5z" />
<glyph unicode="4" horiz-adv-x="1204" d="M78 260v272l536 902h363v-902h147v-272h-147v-260h-344v260h-555zM377 532h256v429z" />
<glyph unicode="5" horiz-adv-x="1204" d="M123 412h356q6 -82 37 -123t92 -41q69 0 101 50.5t32 164.5q0 112 -32 163.5t-101 51.5q-80 0 -108 -74h-328l37 830h817v-273h-489l-15 -307q66 76 203 76q172 0 271.5 -119.5t99.5 -359.5q0 -223 -125.5 -349.5t-362.5 -126.5q-226 0 -348.5 115t-136.5 322z" />
<glyph unicode="6" horiz-adv-x="1204" d="M113 668q0 218 32 371t98 245t158.5 133t221.5 41q204 0 322 -102.5t132 -288.5h-348q-6 129 -111 129q-80 0 -118 -90t-41 -291q32 55 94 85t141 30q176 0 294 -126t118 -345q0 -223 -131.5 -353.5t-356.5 -130.5q-139 0 -237 46t-156.5 137t-85 216t-26.5 294zM469 461 q0 -213 141 -213q142 0 142 213t-142 213q-141 0 -141 -213z" />
<glyph unicode="7" horiz-adv-x="1204" d="M129 1161v273h946v-250l-440 -1184h-361l445 1161h-590z" />
<glyph unicode="8" horiz-adv-x="1204" d="M82 406q0 136 67 225t185 131q-94 36 -151.5 118.5t-57.5 190.5q0 175 129 281t348 106t348 -106t129 -281q0 -108 -57.5 -190.5t-151.5 -118.5q118 -42 185 -131t67 -225q0 -199 -141 -315t-379 -116t-379 116t-141 315zM436 440q0 -94 44 -143t122 -49t122 49t44 143 q0 92 -44 141.5t-122 49.5t-122 -49.5t-44 -141.5zM469 1038q0 -70 35 -107.5t98 -37.5t98 37.5t35 107.5t-35 109t-98 39t-98 -39t-35 -109z" />
<glyph unicode="9" horiz-adv-x="1204" d="M98 975q0 223 131 353t357 130q139 0 237 -45.5t157 -137t85.5 -216t26.5 -293.5q0 -218 -32 -371t-98 -245t-158.5 -133.5t-221.5 -41.5q-204 0 -322.5 103t-132.5 289h348q6 -129 111 -129q80 0 118 89.5t41 290.5q-32 -55 -94 -84.5t-141 -29.5q-176 0 -294 126 t-118 345zM453 973q0 -213 141 -213t141 213t-141 213t-141 -213z" />
<glyph unicode=":" horiz-adv-x="602" d="M129 0v340h344v-340h-344zM129 682v342h344v-342h-344z" />
<glyph unicode=";" horiz-adv-x="602" d="M129 0v340h344v-340q0 -126 -90.5 -204.5t-253.5 -82.5v150q172 6 172 137h-172zM129 682v342h344v-342h-344z" />
<glyph unicode="&#x3c;" d="M106 535v266l930 358v-301l-555 -190l555 -191v-301z" />
<glyph unicode="=" d="M90 326v256h963v-256h-963zM90 752v256h963v-256h-963z" />
<glyph unicode="&#x3e;" d="M106 176v301l556 191l-556 190v301l930 -358v-266z" />
<glyph unicode="?" horiz-adv-x="1122" d="M100 1020v31q0 185 117.5 296t339.5 111q221 0 339 -111.5t118 -295.5q0 -114 -37 -190t-129 -159q-82 -71 -106.5 -114t-24.5 -105v-65h-340v98q0 109 32 174.5t123 143.5q83 72 112.5 116t29.5 101q0 65 -30 100t-87 35t-87 -35t-30 -100v-31h-340zM377 0v303h340v-303 h-340z" />
<glyph unicode="@" horiz-adv-x="1576" d="M127 535q0 252 36 425t116 285t204 162.5t305 50.5q356 0 509 -211.5t153 -697.5q0 -258 -117.5 -395.5t-339.5 -137.5q-207 0 -317.5 126t-110.5 354q0 229 98.5 348t268.5 119q91 0 151 -34t84 -95q-27 219 -111 312t-268 93q-151 0 -234 -64t-120 -214.5t-37 -425.5 q0 -171 14.5 -291t42.5 -201t76.5 -127t109.5 -65t148 -19q135 0 216 51l75 -202q-130 -68 -299 -68q-127 0 -223.5 24.5t-180 87t-136.5 165.5t-83 264.5t-30 380.5zM848 489q0 -131 39 -190t127 -59t127 59t39 190q0 130 -39.5 190t-126.5 60t-126.5 -60t-39.5 -190z" />
<glyph unicode="A" horiz-adv-x="1314" d="M16 0l455 1434h373l454 -1434h-368l-64 240h-420l-61 -240h-369zM520 518h275l-138 524z" />
<glyph unicode="B" horiz-adv-x="1275" d="M125 0v1434h569q236 0 356.5 -100.5t120.5 -293.5q0 -220 -200 -292q111 -34 175 -120t64 -206q0 -211 -126 -316.5t-371 -105.5h-588zM492 268h184q87 0 127.5 41t40.5 131t-40.5 131t-127.5 41h-184v-344zM492 858h163q80 0 120 36.5t40 117.5t-40 117t-120 36h-163 v-307z" />
<glyph unicode="C" horiz-adv-x="1351" d="M90 717q0 381 152 563q150 178 444 178q274 0 429 -146t155 -382h-365q-3 113 -59 174t-160 61q-110 0 -168 -82q-34 -51 -47.5 -133.5t-13.5 -232.5t13.5 -233t47.5 -134q58 -82 168 -82q104 0 161.5 62.5t57.5 173.5h365q0 -236 -155 -382.5t-429 -146.5 q-294 0 -444 179q-152 182 -152 563z" />
<glyph unicode="D" horiz-adv-x="1349" d="M125 0v1434h555q135 0 235.5 -33t166 -91.5t105.5 -150t56.5 -198t16.5 -244.5t-16.5 -244.5t-56.5 -198t-105.5 -150t-166 -91.5t-235.5 -33h-555zM492 293h172q64 0 104 15.5t70 61t42.5 129.5t12.5 218t-12.5 218t-42.5 129.5t-70 61t-104 15.5h-172v-848z" />
<glyph unicode="E" horiz-adv-x="1140" d="M125 0v1434h924v-293h-557v-260h483v-293h-483v-295h567v-293h-934z" />
<glyph unicode="F" horiz-adv-x="1093" d="M125 0v1434h913v-293h-546v-281h483v-293h-483v-567h-367z" />
<glyph unicode="G" horiz-adv-x="1382" d="M90 717q0 381 152 563q150 178 444 178q274 0 429 -146t155 -382h-365q-3 113 -59 174t-160 61q-110 0 -168 -82q-34 -51 -47.5 -133.5t-13.5 -232.5q0 -156 15 -242t54 -137q56 -70 166 -70q107 0 165.5 65t64.5 183h-232v252h576v-768h-260l-35 158q-37 -85 -126 -134 t-212 -49q-182 0 -305 93t-180.5 257t-57.5 392z" />
<glyph unicode="H" horiz-adv-x="1320" d="M125 0v1434h367v-553h337v553h367v-1434h-367v588h-337v-588h-367z" />
<glyph unicode="I" horiz-adv-x="616" d="M125 0v1434h367v-1434h-367z" />
<glyph unicode="J" horiz-adv-x="1144" d="M35 436v43h366v-41q0 -170 129 -170t129 170v996h367v-998q0 -217 -127.5 -339t-368.5 -122t-368 122t-127 339z" />
<glyph unicode="K" horiz-adv-x="1284" d="M125 0v1434h367v-553h106l256 553h389l-350 -699l405 -735h-397l-303 588h-106v-588h-367z" />
<glyph unicode="L" horiz-adv-x="1087" d="M125 0v1434h367v-1141h567v-293h-934z" />
<glyph unicode="M" horiz-adv-x="1748" d="M125 0v1434h346l403 -1069l404 1069h346v-1434h-354v692l-260 -692h-271l-260 692v-692h-354z" />
<glyph unicode="N" horiz-adv-x="1341" d="M125 0v1434h356l379 -820v820h357v-1434h-357l-379 819v-819h-356z" />
<glyph unicode="O" horiz-adv-x="1372" d="M90 717q0 381 152 563q150 178 444 178t444 -178q152 -182 152 -563t-152 -563q-150 -179 -444 -179t-444 179q-152 182 -152 563zM457 717q0 -148 14 -232.5t47 -134.5q58 -82 168 -82t168 82q33 50 47 134.5t14 232.5t-14 231.5t-47 134.5q-58 82 -168 82t-168 -82 q-33 -51 -47 -134.5t-14 -231.5z" />
<glyph unicode="P" horiz-adv-x="1263" d="M125 0v1434h598q235 0 361 -123t126 -350q0 -228 -125.5 -351t-361.5 -123h-231v-487h-367zM492 780h174q178 0 178 181q0 93 -44.5 136.5t-133.5 43.5h-174v-361z" />
<glyph unicode="Q" horiz-adv-x="1372" d="M90 717q0 381 152 563q150 178 444 178t444 -178q152 -182 152 -563q0 -312 -98 -479l162 -138l-189 -217l-186 160q-107 -68 -285 -68q-294 0 -444 179q-152 182 -152 563zM457 717q0 -148 14 -232.5t47 -134.5q58 -82 168 -82t168 82q33 50 47 134.5t14 232.5 t-14 231.5t-47 134.5q-58 82 -168 82t-168 -82q-33 -51 -47 -134.5t-14 -231.5z" />
<glyph unicode="R" horiz-adv-x="1308" d="M125 0v1434h614q228 0 349.5 -117.5t121.5 -321.5q0 -144 -64.5 -235.5t-180.5 -124.5q111 -20 161.5 -91t59.5 -214l12 -195q6 -83 31 -135h-367q-23 50 -26 133l-11 178q-6 100 -44 138t-132 38h-157v-487h-367zM492 780h174q89 0 133.5 43t44.5 138q0 94 -44.5 137 t-133.5 43h-174v-361z" />
<glyph unicode="S" horiz-adv-x="1228" d="M84 1034q0 187 136.5 305.5t375.5 118.5q236 0 374 -118t138 -291v-23h-367v23q0 60 -38 93.5t-107 33.5q-70 0 -107.5 -33.5t-37.5 -93.5q0 -63 44 -99.5t146 -58.5l111 -23q206 -42 307.5 -151t101.5 -295q0 -200 -138.5 -323.5t-393.5 -123.5q-250 0 -392.5 120 t-142.5 317v24h367v-30q0 -69 43 -108.5t125 -39.5q80 0 123 39.5t43 108.5q0 66 -43 106t-144 61l-110 23q-203 41 -308.5 146.5t-105.5 291.5z" />
<glyph unicode="T" horiz-adv-x="1148" d="M27 1141v293h1095v-293h-364v-1141h-367v1141h-364z" />
<glyph unicode="U" horiz-adv-x="1368" d="M117 535v899h366v-914q0 -252 201 -252t201 252v914h366v-899q0 -265 -142.5 -412.5t-424.5 -147.5t-424.5 147.5t-142.5 412.5z" />
<glyph unicode="V" horiz-adv-x="1318" d="M18 1434h369l272 -1043l273 1043h368l-454 -1434h-373z" />
<glyph unicode="W" horiz-adv-x="1994" d="M29 1434h364l195 -973l254 973h311l254 -973l195 973h364l-367 -1434h-331l-271 1030l-270 -1030h-332z" />
<glyph unicode="X" horiz-adv-x="1302" d="M29 0l379 741l-349 693h377l215 -480l215 480h377l-348 -693l379 -741h-377l-246 524l-245 -524h-377z" />
<glyph unicode="Y" horiz-adv-x="1302" d="M29 1434h372l250 -570l250 570h373l-438 -869v-565h-369v565z" />
<glyph unicode="Z" horiz-adv-x="1150" d="M72 0v272l559 869h-539v293h977v-273l-559 -868h569v-293h-1007z" />
<glyph unicode="[" horiz-adv-x="780" d="M145 -190v1794h562v-254h-222v-1287h222v-253h-562z" />
<glyph unicode="\" horiz-adv-x="1024" d="M0 1604h352l672 -1794h-352z" />
<glyph unicode="]" horiz-adv-x="780" d="M74 63h221v1287h-221v254h561v-1794h-561v253z" />
<glyph unicode="^" horiz-adv-x="966" d="M35 928l315 506h266l316 -506h-316l-133 233l-133 -233h-315z" />
<glyph unicode="_" horiz-adv-x="1024" d="M0 -205h1024v-147h-1024v147z" />
<glyph unicode="`" horiz-adv-x="856" d="M154 1495h360l188 -330h-294z" />
<glyph unicode="a" horiz-adv-x="1138" d="M72 299q0 149 93 236.5t247 87.5q97 0 170 -38.5t104 -107.5v213q0 56 -28.5 87.5t-84.5 31.5q-54 0 -82 -29t-30 -80h-340q0 156 116.5 252.5t335.5 96.5q213 0 333 -97.5t120 -251.5v-544q0 -102 31 -156h-348q-20 45 -23 121q-30 -66 -102 -106t-172 -40 q-153 0 -246.5 87t-93.5 237zM412 299q0 -111 137 -111t137 111t-137 111t-137 -111z" />
<glyph unicode="b" horiz-adv-x="1177" d="M109 0v1434h340v-566q27 81 101 131t177 50q183 0 280 -136.5t97 -400.5t-97 -400.5t-280 -136.5q-103 0 -177 50t-101 131v-156h-340zM449 512q0 -158 36.5 -221.5t120.5 -63.5t121 63.5t37 221.5t-37 221.5t-121 63.5t-120.5 -63.5t-36.5 -221.5z" />
<glyph unicode="c" horiz-adv-x="1122" d="M74 512q0 252 123.5 394.5t373.5 142.5q224 0 352 -109.5t136 -292.5h-338q-7 78 -43 114t-107 36q-84 0 -120.5 -63.5t-36.5 -221.5t36.5 -221.5t120.5 -63.5q71 0 107 36t43 114h338q-8 -183 -136 -292.5t-352 -109.5q-250 0 -373.5 142.5t-123.5 394.5z" />
<glyph unicode="d" horiz-adv-x="1177" d="M74 512q0 264 97 400.5t280 136.5q103 0 177 -50t101 -131v566h340v-1434h-340v156q-27 -81 -101 -131t-177 -50q-183 0 -280 136.5t-97 400.5zM414 512q0 -158 36.5 -221.5t120.5 -63.5t121 63.5t37 221.5t-37 221.5t-121 63.5t-120.5 -63.5t-36.5 -221.5z" />
<glyph unicode="e" d="M74 512q0 122 29 219t88.5 169t155.5 110.5t224 38.5t224.5 -38.5t155.5 -110.5t88.5 -169t29.5 -219q0 -40 -4 -80h-649v-18q0 -101 41 -154t114 -53q61 0 97.5 28.5t44.5 79.5h334q-27 -168 -153 -254t-323 -86q-251 0 -374 143t-123 394zM416 618h311q-3 199 -156 199 q-152 0 -155 -199z" />
<glyph unicode="f" horiz-adv-x="829" d="M45 772v252h154v98q0 169 92.5 247.5t300.5 78.5q137 0 201 -10v-242h-134q-68 0 -94 -23.5t-26 -80.5v-68h254v-252h-254v-772h-340v772h-154z" />
<glyph unicode="g" horiz-adv-x="1177" d="M74 512q0 264 97 400.5t280 136.5q103 0 177 -50t101 -131v156h340v-1087q0 -188 -119 -301t-352 -113q-209 0 -328 91t-141 251h344q4 -53 37 -82t88 -29q66 0 98.5 38t32.5 120v244q-27 -81 -101 -131t-177 -50q-183 0 -280 136.5t-97 400.5zM414 512 q0 -158 36.5 -221.5t120.5 -63.5t121 63.5t37 221.5t-37 221.5t-121 63.5t-120.5 -63.5t-36.5 -221.5z" />
<glyph unicode="h" horiz-adv-x="1159" d="M109 0v1434h340v-570q28 85 101.5 135t178.5 50q157 0 241.5 -99.5t84.5 -294.5v-655h-340v647q0 150 -115 150q-71 0 -111 -56t-40 -157v-584h-340z" />
<glyph unicode="i" horiz-adv-x="573" d="M117 0v1024h340v-1024h-340zM117 1161v273h340v-273h-340z" />
<glyph unicode="j" horiz-adv-x="573" d="M-96 -197h84q67 0 98 34.5t31 109.5v1077h340v-1100q0 -183 -96.5 -276.5t-299.5 -93.5q-99 0 -157 6v243zM117 1161v273h340v-273h-340z" />
<glyph unicode="k" horiz-adv-x="1093" d="M109 0v1434h340v-785h65l174 375h352l-252 -492l293 -532h-356l-213 418h-63v-418h-340z" />
<glyph unicode="l" horiz-adv-x="573" d="M117 0v1434h340v-1434h-340z" />
<glyph unicode="m" horiz-adv-x="1753" d="M109 0v1024h340v-160q28 85 100 135t176 50q106 0 180 -47t109 -140q41 89 119 138t188 49q160 0 244 -99t84 -295v-655h-340v651q0 146 -113 146q-69 0 -108 -56t-39 -157v-584h-340v651q0 146 -113 146q-69 0 -108 -56t-39 -157v-584h-340z" />
<glyph unicode="n" horiz-adv-x="1159" d="M109 0v1024h340v-160q28 85 101.5 135t178.5 50q157 0 241.5 -99.5t84.5 -294.5v-655h-340v647q0 150 -115 150q-71 0 -111 -56t-40 -157v-584h-340z" />
<glyph unicode="o" d="M74 512q0 252 123.5 394.5t373.5 142.5t374 -142.5t124 -394.5t-124 -394.5t-374 -142.5t-373.5 142.5t-123.5 394.5zM414 512q0 -158 36.5 -221.5t120.5 -63.5t121 63.5t37 221.5t-37 221.5t-121 63.5t-120.5 -63.5t-36.5 -221.5z" />
<glyph unicode="p" horiz-adv-x="1177" d="M109 -446v1470h340v-156q27 81 101 131t177 50q183 0 280 -136.5t97 -400.5t-97 -400.5t-280 -136.5q-103 0 -177 50t-101 131v-602h-340zM449 512q0 -158 36.5 -221.5t120.5 -63.5t121 63.5t37 221.5t-37 221.5t-121 63.5t-120.5 -63.5t-36.5 -221.5z" />
<glyph unicode="q" horiz-adv-x="1177" d="M74 512q0 264 97 400.5t280 136.5q103 0 177 -50t101 -131v156h340v-1470h-340v602q-27 -81 -101 -131t-177 -50q-183 0 -280 136.5t-97 400.5zM414 512q0 -158 36.5 -221.5t120.5 -63.5t121 63.5t37 221.5t-37 221.5t-121 63.5t-120.5 -63.5t-36.5 -221.5z" />
<glyph unicode="r" horiz-adv-x="806" d="M109 0v1024h340v-205q40 230 258 230q47 0 71 -9l-4 -276q-20 2 -72 2q-120 0 -186.5 -74t-66.5 -213v-479h-340z" />
<glyph unicode="s" horiz-adv-x="1026" d="M76 727q0 144 110 233t310 89q201 0 310 -86.5t109 -219.5v-14h-340v16q0 32 -20.5 52t-60.5 20q-39 0 -60.5 -19.5t-21.5 -52.5q0 -71 114 -94l117 -24q167 -36 242.5 -109.5t75.5 -208.5q0 -152 -116 -243t-325 -91q-214 0 -327 91t-113 237v8h340v-22q0 -41 26 -65.5 t74 -24.5q49 0 75 25t26 65q0 42 -26 66t-85 36l-117 25q-317 66 -317 311z" />
<glyph unicode="t" horiz-adv-x="860" d="M41 772v252h154v291h340v-291h266v-252h-266v-393q0 -87 33 -115t128 -28h105v-244q-71 -6 -207 -6q-221 0 -310 79.5t-89 272.5v434h-154z" />
<glyph unicode="u" horiz-adv-x="1159" d="M104 369v655h340v-647q0 -150 115 -150q71 0 111.5 56t40.5 157v584h340v-1024h-340v160q-28 -85 -102 -135t-179 -50q-157 0 -241.5 99.5t-84.5 294.5z" />
<glyph unicode="v" horiz-adv-x="1114" d="M27 1024h348l182 -662l182 662h348l-356 -1024h-348z" />
<glyph unicode="w" horiz-adv-x="1708" d="M27 1024h346l168 -659l188 659h250l188 -659l168 659h346l-325 -1024h-328l-174 608l-174 -608h-328z" />
<glyph unicode="x" horiz-adv-x="1044" d="M16 0l281 526l-260 498h348l137 -324l137 324h349l-260 -498l280 -526h-348l-158 350l-157 -350h-349z" />
<glyph unicode="y" horiz-adv-x="1114" d="M27 1024h348l184 -645l180 645h348l-393 -1133q-48 -139 -95.5 -209t-115 -99t-180.5 -29q-110 0 -151 4v247h75q52 0 84 24t54 87l28 84z" />
<glyph unicode="z" horiz-adv-x="978" d="M63 0v231l418 541h-401v252h821v-231l-418 -541h432v-252h-852z" />
<glyph unicode="{" horiz-adv-x="813" d="M72 580v254h41q62 0 92.5 38t30.5 105v268q0 188 88.5 273.5t287.5 85.5h129v-254h-41q-60 0 -91 -37.5t-31 -106.5v-282q0 -173 -150 -217q150 -44 150 -218v-282q0 -69 31 -106.5t91 -37.5h41v-253h-129q-200 0 -288 85.5t-88 272.5v268q0 67 -30.5 105.5t-92.5 38.5 h-41z" />
<glyph unicode="|" horiz-adv-x="700" d="M180 -190v1794h340v-1794h-340z" />
<glyph unicode="}" horiz-adv-x="813" d="M72 63h41q61 0 92 37.5t31 106.5v282q0 174 149 218q-149 44 -149 217v282q0 69 -31 106.5t-92 37.5h-41v254h129q200 0 288.5 -86t88.5 -273v-268q0 -143 122 -143h41v-254h-41q-62 0 -92 -38.5t-30 -105.5v-268q0 -187 -88.5 -272.5t-288.5 -85.5h-129v253z" />
<glyph unicode="~" d="M111 487q0 185 55 280t184 95q58 0 109.5 -15.5t82 -34.5t64.5 -34.5t62 -15.5q63 0 63 82v6h301q0 -185 -55 -280t-184 -95q-58 0 -109.5 15.5t-82 34.5t-64.5 34.5t-62 15.5q-63 0 -63 -81v-7h-301z" />
<glyph unicode="&#xa1;" horiz-adv-x="696" d="M178 -205l25 780h291l24 -780v-205h-340v205zM178 721v303h340v-303h-340z" />
<glyph unicode="&#xa2;" horiz-adv-x="1122" d="M74 512q0 207 84.5 341.5t255.5 176.5v176h301v-172q159 -32 248.5 -134.5t95.5 -252.5h-338q-7 78 -43 114t-107 36q-84 0 -120.5 -63.5t-36.5 -221.5t36.5 -221.5t120.5 -63.5q71 0 107 36t43 114h338q-6 -151 -95 -253t-249 -134v-172h-301v176q-171 42 -255.5 176 t-84.5 342z" />
<glyph unicode="&#xa3;" horiz-adv-x="1134" d="M90 549v213h119q-72 131 -72 297q0 173 122 286t333 113t333 -113t122 -286v-53h-361v51q0 108 -94 108q-47 0 -71.5 -28t-24.5 -80q0 -158 63 -295h285v-213h-271q-24 -147 -133 -256h623v-293h-967v272q110 123 127 277h-133z" />
<glyph unicode="&#xa5;" horiz-adv-x="1298" d="M29 1434h379l241 -519l242 519h379l-365 -658h185v-151h-259v-88h259v-152h-259v-385h-364v385h-258v152h258v88h-258v151h184z" />
<glyph unicode="&#xa7;" horiz-adv-x="1042" d="M76 553q0 81 38 154.5t107 119.5q-139 95 -139 281q0 160 113 255t307 95q191 0 305.5 -90t114.5 -233v-39h-332v41q0 44 -24 68t-64 24q-42 0 -65 -24t-23 -68q0 -51 34.5 -84.5t110.5 -55.5l94 -26q159 -45 236.5 -131t77.5 -244q0 -81 -38.5 -154t-107.5 -120 q140 -96 140 -281q0 -160 -113 -255t-307 -95q-191 0 -305.5 90t-114.5 233v39h332v-41q0 -44 24 -68t64 -24q42 0 65 24t23 68q0 51 -35 84.5t-111 55.5l-94 26q-159 45 -236 131t-77 244zM401 590q0 -60 32.5 -95t107.5 -57l43 -12h2q55 49 55 133q0 60 -32 95t-107 57 l-45 12q-56 -50 -56 -133z" />
<glyph unicode="&#xa8;" horiz-adv-x="856" d="M78 1180v288h293v-288h-293zM485 1180v288h293v-288h-293z" />
<glyph unicode="&#xa9;" horiz-adv-x="1544" d="M92 717q0 368 178.5 554.5t501.5 186.5t501.5 -186.5t178.5 -554.5t-178.5 -555t-501.5 -187t-501.5 187t-178.5 555zM207 717q0 -315 142 -475t423 -160t423 160t142 475t-142 475t-423 160t-423 -160t-142 -475zM389 717q0 -132 27 -215.5t86 -141.5q91 -88 274 -88 t277 88q87 84 104 236h-278q-3 -45 -21 -80q-23 -43 -82 -43q-57 0 -80 43q-15 28 -20.5 70.5t-5.5 130.5t5.5 130.5t20.5 70.5q23 43 80 43q59 0 82 -43q18 -35 21 -80h278q-17 151 -104 235q-94 88 -277 88t-274 -88q-59 -58 -86 -141t-27 -215z" />
<glyph unicode="&#xaa;" horiz-adv-x="872" d="M74 901q0 108 65.5 173t179.5 65q70 0 118.5 -27t66.5 -72v148q0 37 -13.5 53t-44.5 16q-29 0 -42 -15t-15 -48h-276q8 121 92 188.5t241 67.5q161 0 246.5 -71t85.5 -193v-400q0 -60 21 -104h-277q-18 32 -18 78q-17 -45 -65.5 -70.5t-119.5 -25.5q-115 0 -180 64 t-65 173zM334 901q0 -63 86 -63q84 0 84 63q0 64 -84 64q-86 0 -86 -64z" />
<glyph unicode="&#xab;" horiz-adv-x="1265" d="M72 522v234l534 307v-293l-258 -131l258 -131v-293zM659 522v234l535 307v-293l-258 -131l258 -131v-293z" />
<glyph unicode="&#xac;" d="M90 539v256h963v-564h-312v308h-651z" />
<glyph unicode="&#xad;" horiz-adv-x="880" d="M90 528v277h701v-277h-701z" />
<glyph unicode="&#xae;" horiz-adv-x="1544" d="M92 717q0 368 178.5 554.5t501.5 186.5t501.5 -186.5t178.5 -554.5t-178.5 -555t-501.5 -187t-501.5 187t-178.5 555zM207 717q0 -315 142 -475t423 -160t423 160t142 475t-142 475t-423 160t-423 -160t-142 -475zM434 289v856h381q334 0 334 -275q0 -184 -158 -223 q72 -9 104 -52t40 -130l8 -98q3 -51 14 -78h-285q-9 26 -12 76l-6 96q-3 52 -24.5 73t-67.5 21h-53v-266h-275zM709 745h61q53 0 76.5 24t23.5 81q0 56 -23.5 79t-76.5 23h-61v-207z" />
<glyph unicode="&#xaf;" horiz-adv-x="856" d="M109 1202v246h639v-246h-639z" />
<glyph unicode="&#xb0;" horiz-adv-x="770" d="M72 1151q0 131 86.5 215t226.5 84t226.5 -84t86.5 -215t-86.5 -215t-226.5 -84t-226.5 84t-86.5 215zM291 1151q0 -47 26 -74.5t68 -27.5t68 27.5t26 74.5t-26 74.5t-68 27.5t-68 -27.5t-26 -74.5z" />
<glyph unicode="&#xb1;" d="M90 0v256h963v-256h-963zM90 639v256h326v322h311v-322h326v-256h-326v-322h-311v322h-326z" />
<glyph unicode="&#xb4;" horiz-adv-x="856" d="M154 1165l188 330h360l-253 -330h-295z" />
<glyph unicode="&#xb5;" horiz-adv-x="1163" d="M109 -446v1470h340v-653q0 -79 28 -115.5t86 -36.5q71 0 111.5 56.5t40.5 156.5v592h340v-1024h-340v158q-21 -85 -66 -134t-110 -49t-90 48v-469h-340z" />
<glyph unicode="&#xb6;" horiz-adv-x="1308" d="M80 985v14q0 205 111 320t307 115h665v-1702h-245v1487h-95v-1487h-245v815h-56q-195 0 -318.5 117.5t-123.5 320.5z" />
<glyph unicode="&#xb7;" horiz-adv-x="602" d="M129 496v340h344v-340h-344z" />
<glyph unicode="&#xb8;" horiz-adv-x="856" d="M164 -414l76 144q66 -47 131 -47q71 0 71 53q0 27 -23 42t-63 15q-43 0 -73 -10l-35 43l84 174h217l-45 -84q89 -10 138.5 -61t49.5 -125q0 -97 -73 -157t-205 -60q-150 0 -250 73z" />
<glyph unicode="&#xba;" horiz-adv-x="872" d="M72 1055q0 213 106 311q90 84 258 84t258 -84q107 -99 107 -311q0 -208 -107 -307q-90 -84 -258 -84t-258 84q-106 98 -106 307zM346 1057q0 -127 23 -164q20 -35 67 -35q48 0 68 35q22 35 22 164t-22 164q-19 34 -68 34q-48 0 -67 -34q-23 -37 -23 -164z" />
<glyph unicode="&#xbb;" horiz-adv-x="1265" d="M72 215v293l258 131l-258 131v293l534 -307v-234zM659 215v293l259 131l-259 131v293l535 -307v-234z" />
<glyph unicode="&#xbf;" horiz-adv-x="1122" d="M109 -27q0 114 36.5 190t128.5 159q82 71 107 114t25 105v65h339v-98q0 -109 -32 -174.5t-123 -143.5q-83 -72 -112 -115.5t-29 -101.5q0 -65 29.5 -100t86.5 -35t87 35t30 100v31h340v-31q0 -185 -117.5 -296t-339.5 -111q-221 0 -338.5 111t-117.5 296zM406 721v303 h339v-303h-339z" />
<glyph unicode="&#xc0;" horiz-adv-x="1314" d="M16 0l455 1434h373l454 -1434h-368l-64 240h-420l-61 -240h-369zM322 1892h360l188 -329h-295zM520 518h275l-138 524z" />
<glyph unicode="&#xc1;" horiz-adv-x="1314" d="M16 0l455 1434h373l454 -1434h-368l-64 240h-420l-61 -240h-369zM444 1563l189 329h360l-254 -329h-295zM520 518h275l-138 524z" />
<glyph unicode="&#xc2;" horiz-adv-x="1314" d="M16 0l455 1434h373l454 -1434h-368l-64 240h-420l-61 -240h-369zM281 1563l243 329h267l243 -329h-276l-101 139l-100 -139h-276zM520 518h275l-138 524z" />
<glyph unicode="&#xc3;" horiz-adv-x="1314" d="M16 0l455 1434h373l454 -1434h-368l-64 240h-420l-61 -240h-369zM289 1579q0 159 52 230t159 71q54 0 100 -20.5t78 -41t51 -20.5q20 0 27.5 13t7.5 42v11h262q0 -159 -52 -230t-159 -71q-54 0 -100 20.5t-78 41t-51 20.5q-20 0 -27.5 -13.5t-7.5 -42.5v-10h-262z M520 518h275l-138 524z" />
<glyph unicode="&#xc4;" horiz-adv-x="1314" d="M16 0l455 1434h373l454 -1434h-368l-64 240h-420l-61 -240h-369zM307 1577v289h293v-289h-293zM520 518h275l-138 524zM715 1577v289h293v-289h-293z" />
<glyph unicode="&#xc5;" horiz-adv-x="1314" d="M16 0l455 1434h373l454 -1434h-368l-64 240h-420l-61 -240h-369zM422 1726q0 101 66 160.5t169 59.5t169.5 -59.5t66.5 -160.5t-66 -160t-170 -59q-103 0 -169 59t-66 160zM520 518h275l-138 524zM598 1726q0 -29 15.5 -46t43.5 -17t44 17t16 46t-16 46.5t-44 17.5 t-43.5 -17.5t-15.5 -46.5z" />
<glyph unicode="&#xc6;" horiz-adv-x="1921" d="M-27 0l693 1434h1163v-293h-557v-260h483v-293h-483v-295h567v-293h-934v240h-403l-111 -240h-418zM627 518h278v608z" />
<glyph unicode="&#xc7;" horiz-adv-x="1351" d="M90 717q0 381 152 563q150 178 444 178q274 0 429 -146t155 -382h-365q-3 113 -59 174t-160 61q-110 0 -168 -82q-34 -51 -47.5 -133.5t-13.5 -232.5t13.5 -233t47.5 -134q58 -82 168 -82q104 0 161.5 62.5t57.5 173.5h365q0 -206 -119 -345.5t-334 -172.5l-37 -70 q89 -10 139 -61t50 -125q0 -97 -73.5 -157t-205.5 -60q-150 0 -250 73l76 144q66 -47 131 -47q72 0 72 53q0 27 -23 42t-63 15q-44 0 -74 -10l-35 43l74 154q-230 24 -356 174q-152 182 -152 563z" />
<glyph unicode="&#xc8;" horiz-adv-x="1140" d="M125 0v1434h924v-293h-557v-260h483v-293h-483v-295h567v-293h-934zM270 1892h361l188 -329h-295z" />
<glyph unicode="&#xc9;" horiz-adv-x="1140" d="M125 0v1434h924v-293h-557v-260h483v-293h-483v-295h567v-293h-934zM377 1563l188 329h361l-254 -329h-295z" />
<glyph unicode="&#xca;" horiz-adv-x="1140" d="M125 0v1434h924v-293h-557v-260h483v-293h-483v-295h567v-293h-934zM211 1563l244 329h266l244 -329h-277l-100 139l-101 -139h-276z" />
<glyph unicode="&#xcb;" horiz-adv-x="1140" d="M125 0v1434h924v-293h-557v-260h483v-293h-483v-295h567v-293h-934zM238 1577v289h292v-289h-292zM645 1577v289h293v-289h-293z" />
<glyph unicode="&#xcc;" horiz-adv-x="616" d="M-39 1892h361l188 -329h-295zM125 0v1434h367v-1434h-367z" />
<glyph unicode="&#xcd;" horiz-adv-x="616" d="M106 1563l189 329h360l-254 -329h-295zM125 0v1434h367v-1434h-367z" />
<glyph unicode="&#xce;" horiz-adv-x="616" d="M-70 1563l244 329h266l244 -329h-276l-101 139l-100 -139h-277zM125 0v1434h367v-1434h-367z" />
<glyph unicode="&#xcf;" horiz-adv-x="616" d="M-43 1577v289h293v-289h-293zM125 0v1434h367v-1434h-367zM365 1577v289h292v-289h-292z" />
<glyph unicode="&#xd0;" horiz-adv-x="1349" d="M2 610v213h123v611h555q135 0 235.5 -33t166 -91.5t105.5 -150t56.5 -198t16.5 -244.5t-16.5 -244.5t-56.5 -198t-105.5 -150t-166 -91.5t-235.5 -33h-555v610h-123zM492 293h172q64 0 104 15.5t70 61t42.5 129.5t12.5 218t-12.5 218t-42.5 129.5t-70 61t-104 15.5h-172 v-318h176v-213h-176v-317z" />
<glyph unicode="&#xd1;" horiz-adv-x="1341" d="M125 0v1434h356l379 -820v820h357v-1434h-357l-379 819v-819h-356zM301 1579q0 159 52 230t159 71q54 0 100 -20.5t78 -41t51 -20.5q20 0 27.5 13t7.5 42v11h262q0 -159 -52 -230t-159 -71q-54 0 -100 20.5t-78 41t-51 20.5q-20 0 -27.5 -13.5t-7.5 -42.5v-10h-262z" />
<glyph unicode="&#xd2;" horiz-adv-x="1372" d="M90 717q0 381 152 563q150 178 444 178t444 -178q152 -182 152 -563t-152 -563q-150 -179 -444 -179t-444 179q-152 182 -152 563zM348 1892h361l188 -329h-295zM457 717q0 -148 14 -232.5t47 -134.5q58 -82 168 -82t168 82q33 50 47 134.5t14 232.5t-14 231.5t-47 134.5 q-58 82 -168 82t-168 -82q-33 -51 -47 -134.5t-14 -231.5z" />
<glyph unicode="&#xd3;" horiz-adv-x="1372" d="M90 717q0 381 152 563q150 178 444 178t444 -178q152 -182 152 -563t-152 -563q-150 -179 -444 -179t-444 179q-152 182 -152 563zM457 717q0 -148 14 -232.5t47 -134.5q58 -82 168 -82t168 82q33 50 47 134.5t14 232.5t-14 231.5t-47 134.5q-58 82 -168 82t-168 -82 q-33 -51 -47 -134.5t-14 -231.5zM475 1563l189 329h360l-254 -329h-295z" />
<glyph unicode="&#xd4;" horiz-adv-x="1372" d="M90 717q0 381 152 563q150 178 444 178t444 -178q152 -182 152 -563t-152 -563q-150 -179 -444 -179t-444 179q-152 182 -152 563zM309 1563l244 329h266l244 -329h-277l-100 139l-100 -139h-277zM457 717q0 -148 14 -232.5t47 -134.5q58 -82 168 -82t168 82 q33 50 47 134.5t14 232.5t-14 231.5t-47 134.5q-58 82 -168 82t-168 -82q-33 -51 -47 -134.5t-14 -231.5z" />
<glyph unicode="&#xd5;" horiz-adv-x="1372" d="M90 717q0 381 152 563q150 178 444 178t444 -178q152 -182 152 -563t-152 -563q-150 -179 -444 -179t-444 179q-152 182 -152 563zM317 1579q0 159 52 230t159 71q42 0 81 -13t62 -28t47 -28t40 -13q20 0 27.5 13t7.5 42v11h262q0 -159 -52 -230t-159 -71q-42 0 -81 13 t-62 28t-47 28t-40 13q-19 0 -26.5 -13.5t-7.5 -42.5v-10h-263zM457 717q0 -148 14 -232.5t47 -134.5q58 -82 168 -82t168 82q33 50 47 134.5t14 232.5t-14 231.5t-47 134.5q-58 82 -168 82t-168 -82q-33 -51 -47 -134.5t-14 -231.5z" />
<glyph unicode="&#xd6;" horiz-adv-x="1372" d="M90 717q0 381 152 563q150 178 444 178t444 -178q152 -182 152 -563t-152 -563q-150 -179 -444 -179t-444 179q-152 182 -152 563zM336 1577v289h293v-289h-293zM457 717q0 -148 14 -232.5t47 -134.5q58 -82 168 -82t168 82q33 50 47 134.5t14 232.5t-14 231.5t-47 134.5 q-58 82 -168 82t-168 -82q-33 -51 -47 -134.5t-14 -231.5zM743 1577v289h293v-289h-293z" />
<glyph unicode="&#xd8;" horiz-adv-x="1372" d="M90 717q0 381 152 563q150 178 444 178q171 0 293 -61l59 102h209l-123 -211q1 -1 3 -4t3 -4q152 -182 152 -563t-152 -563q-150 -179 -444 -179q-170 0 -293 60l-59 -101h-209l123 211q-3 3 -6 9q-152 182 -152 563zM457 717q0 -128 8 -199l352 604q-52 43 -131 43 q-110 0 -168 -82q-34 -51 -47.5 -133.5t-13.5 -232.5zM553 311q52 -43 133 -43q110 0 168 82q34 51 47.5 134t13.5 233q0 127 -8 198z" />
<glyph unicode="&#xd9;" horiz-adv-x="1368" d="M117 535q0 -265 142.5 -412.5t424.5 -147.5t424.5 147.5t142.5 412.5v899h-366v-914q0 -252 -201 -252t-201 252v914h-366v-899zM348 1892h361l188 -329h-295z" />
<glyph unicode="&#xda;" horiz-adv-x="1368" d="M117 535v899h366v-914q0 -252 201 -252t201 252v914h366v-899q0 -265 -142.5 -412.5t-424.5 -147.5t-424.5 147.5t-142.5 412.5zM471 1563l188 329h361l-254 -329h-295z" />
<glyph unicode="&#xdb;" horiz-adv-x="1368" d="M117 535v899h366v-914q0 -252 201 -252t201 252v914h366v-899q0 -265 -142.5 -412.5t-424.5 -147.5t-424.5 147.5t-142.5 412.5zM307 1563l244 329h266l244 -329h-277l-100 139l-100 -139h-277z" />
<glyph unicode="&#xdc;" horiz-adv-x="1368" d="M117 535q0 -265 142.5 -412.5t424.5 -147.5t424.5 147.5t142.5 412.5v899h-366v-914q0 -252 -201 -252t-201 252v914h-366v-899zM334 1577v289h293v-289h-293zM741 1577v289h293v-289h-293z" />
<glyph unicode="&#xdd;" horiz-adv-x="1302" d="M29 1434h372l250 -570l250 570h373l-438 -869v-565h-369v565zM436 1563l189 329h360l-254 -329h-295z" />
<glyph unicode="&#xde;" horiz-adv-x="1263" d="M125 0v1434h367v-244h231q235 0 361 -123t126 -350q0 -228 -125.5 -350.5t-361.5 -122.5h-231v-244h-367zM492 537h174q89 0 133.5 43.5t44.5 136.5t-44.5 136.5t-133.5 43.5h-174v-360z" />
<glyph unicode="&#xdf;" horiz-adv-x="1245" d="M109 0v1032q0 186 133.5 306t369.5 120q118 0 214.5 -33.5t158.5 -91t95.5 -133t33.5 -160.5q0 -123 -62.5 -207t-174.5 -110q309 -61 309 -358q0 -188 -124 -289t-329 -101q-97 0 -186 21v287q47 -15 119 -15q66 0 104.5 34t38.5 101q0 80 -56 127.5t-143 47.5h-35v284 h43q130 0 130 154q0 72 -36 110.5t-102 38.5q-65 0 -100 -38.5t-35 -114.5v-1012h-366z" />
<glyph unicode="&#xe0;" horiz-adv-x="1138" d="M72 299q0 149 93 236.5t247 87.5q97 0 170 -38.5t104 -107.5v213q0 56 -28.5 87.5t-84.5 31.5q-54 0 -82 -29t-30 -80h-340q0 156 116.5 252.5t335.5 96.5q213 0 333 -97.5t120 -251.5v-544q0 -102 31 -156h-348q-20 45 -23 121q-30 -66 -102 -106t-172 -40 q-153 0 -246.5 87t-93.5 237zM254 1485h360l189 -330h-295zM412 299q0 -111 137 -111t137 111t-137 111t-137 -111z" />
<glyph unicode="&#xe1;" horiz-adv-x="1138" d="M72 299q0 149 93 236.5t247 87.5q97 0 170 -38.5t104 -107.5v213q0 56 -28.5 87.5t-84.5 31.5q-54 0 -82 -29t-30 -80h-340q0 156 116.5 252.5t335.5 96.5q213 0 333 -97.5t120 -251.5v-544q0 -102 31 -156h-348q-20 45 -23 121q-30 -66 -102 -106t-172 -40 q-153 0 -246.5 87t-93.5 237zM350 1155l189 330h360l-254 -330h-295zM412 299q0 -111 137 -111t137 111t-137 111t-137 -111z" />
<glyph unicode="&#xe2;" horiz-adv-x="1138" d="M72 299q0 149 93 236.5t247 87.5q97 0 170 -38.5t104 -107.5v213q0 56 -28.5 87.5t-84.5 31.5q-54 0 -82 -29t-30 -80h-340q0 156 116.5 252.5t335.5 96.5q213 0 333 -97.5t120 -251.5v-544q0 -102 31 -156h-348q-20 45 -23 121q-30 -66 -102 -106t-172 -40 q-153 0 -246.5 87t-93.5 237zM201 1155l243 330h267l243 -330h-276l-100 139l-101 -139h-276zM412 299q0 -111 137 -111t137 111t-137 111t-137 -111z" />
<glyph unicode="&#xe3;" horiz-adv-x="1138" d="M72 299q0 149 93 236.5t247 87.5q97 0 170 -38.5t104 -107.5v213q0 56 -28.5 87.5t-84.5 31.5q-54 0 -82 -29t-30 -80h-340q0 156 116.5 252.5t335.5 96.5q213 0 333 -97.5t120 -251.5v-544q0 -102 31 -156h-348q-20 45 -23 121q-30 -66 -102 -106t-172 -40 q-153 0 -246.5 87t-93.5 237zM211 1171q0 159 52 230.5t159 71.5q54 0 100 -20.5t78 -41t51 -20.5q20 0 27.5 13t7.5 42v10h262q0 -159 -52 -230t-159 -71q-54 0 -100 20.5t-78 41t-51 20.5q-20 0 -27.5 -13t-7.5 -42v-11h-262zM412 299q0 -111 137 -111t137 111t-137 111 t-137 -111z" />
<glyph unicode="&#xe4;" horiz-adv-x="1138" d="M72 299q0 149 93 236.5t247 87.5q97 0 170 -38.5t104 -107.5v213q0 56 -28.5 87.5t-84.5 31.5q-54 0 -82 -29t-30 -80h-340q0 156 116.5 252.5t335.5 96.5q213 0 333 -97.5t120 -251.5v-544q0 -102 31 -156h-348q-20 45 -23 121q-30 -66 -102 -106t-172 -40 q-153 0 -246.5 87t-93.5 237zM227 1169v289h293v-289h-293zM412 299q0 -111 137 -111t137 111t-137 111t-137 -111zM635 1169v289h293v-289h-293z" />
<glyph unicode="&#xe5;" horiz-adv-x="1138" d="M72 299q0 149 93 236.5t247 87.5q97 0 170 -38.5t104 -107.5v213q0 56 -28.5 87.5t-84.5 31.5q-54 0 -82 -29t-30 -80h-340q0 156 116.5 252.5t335.5 96.5q213 0 333 -97.5t120 -251.5v-544q0 -102 31 -156h-348q-20 45 -23 121q-30 -66 -102 -106t-172 -40 q-153 0 -246.5 87t-93.5 237zM342 1319q0 101 66 160t170 59q103 0 169 -59t66 -160t-66 -160t-169 -59q-104 0 -170 59t-66 160zM412 299q0 -111 137 -111t137 111t-137 111t-137 -111zM518 1319q0 -29 16 -46.5t44 -17.5t43.5 17.5t15.5 46.5t-15.5 46t-43.5 17t-44 -17 t-16 -46z" />
<glyph unicode="&#xe6;" horiz-adv-x="1755" d="M72 299q0 149 93 236.5t247 87.5q97 0 170 -38.5t104 -107.5v213q0 54 -30.5 86.5t-82.5 32.5q-54 0 -82 -29t-30 -80h-340q0 153 112 251t304 98q256 0 344 -170q40 79 123.5 124.5t195.5 45.5q241 0 361 -144t120 -393q0 -40 -4 -80h-649v-18q0 -101 41.5 -154 t114.5 -53q61 0 97 28t44 80h334q-27 -167 -152 -253.5t-317 -86.5q-113 0 -196.5 46t-119.5 124q-55 -87 -147 -128.5t-238 -41.5q-204 0 -310.5 85t-106.5 239zM412 299q0 -111 137 -111t137 111t-137 111t-137 -111zM1028 618h311q-3 199 -155 199q-153 0 -156 -199z" />
<glyph unicode="&#xe7;" horiz-adv-x="1122" d="M74 512q0 252 123.5 394.5t373.5 142.5q224 0 352 -109.5t136 -292.5h-338q-7 78 -43 114t-107 36q-84 0 -120.5 -63.5t-36.5 -221.5t36.5 -221.5t120.5 -63.5q71 0 107 36t43 114h338q-8 -156 -102.5 -259t-262.5 -132l-37 -70q89 -10 139 -61t50 -125q0 -97 -73.5 -157 t-205.5 -60q-150 0 -250 73l76 144q66 -47 131 -47q72 0 72 53q0 27 -23 42t-63 15q-44 0 -74 -10l-35 43l74 156q-202 27 -301.5 165.5t-99.5 364.5z" />
<glyph unicode="&#xe8;" d="M74 512q0 122 29 219t88.5 169t155.5 110.5t224 38.5t224.5 -38.5t155.5 -110.5t88.5 -169t29.5 -219q0 -40 -4 -80h-649v-18q0 -101 41 -154t114 -53q61 0 97.5 28.5t44.5 79.5h334q-27 -168 -153 -254t-323 -86q-251 0 -374 143t-123 394zM244 1485h360l189 -330h-295z M416 618h311q-3 199 -156 199q-152 0 -155 -199z" />
<glyph unicode="&#xe9;" d="M74 512q0 122 29 219t88.5 169t155.5 110.5t224 38.5t224.5 -38.5t155.5 -110.5t88.5 -169t29.5 -219q0 -40 -4 -80h-649v-18q0 -101 41 -154t114 -53q61 0 97.5 28.5t44.5 79.5h334q-27 -168 -153 -254t-323 -86q-251 0 -374 143t-123 394zM350 1155l189 330h360 l-254 -330h-295zM416 618h311q-3 199 -156 199q-152 0 -155 -199z" />
<glyph unicode="&#xea;" d="M74 512q0 122 29 219t88.5 169t155.5 110.5t224 38.5t224.5 -38.5t155.5 -110.5t88.5 -169t29.5 -219q0 -40 -4 -80h-649v-18q0 -101 41 -154t114 -53q61 0 97.5 28.5t44.5 79.5h334q-27 -168 -153 -254t-323 -86q-251 0 -374 143t-123 394zM195 1155l243 330h267 l243 -330h-276l-101 139l-100 -139h-276zM416 618h311q-3 199 -156 199q-152 0 -155 -199z" />
<glyph unicode="&#xeb;" d="M74 512q0 122 29 219t88.5 169t155.5 110.5t224 38.5t224.5 -38.5t155.5 -110.5t88.5 -169t29.5 -219q0 -40 -4 -80h-649v-18q0 -101 41 -154t114 -53q61 0 97.5 28.5t44.5 79.5h334q-27 -168 -153 -254t-323 -86q-251 0 -374 143t-123 394zM221 1169v289h293v-289h-293z M416 618h311q-3 199 -156 199q-152 0 -155 -199zM629 1169v289h293v-289h-293z" />
<glyph unicode="&#xec;" horiz-adv-x="573" d="M-53 1485h360l189 -330h-295zM117 0v1024h340v-1024h-340z" />
<glyph unicode="&#xed;" horiz-adv-x="573" d="M78 1155l188 330h361l-254 -330h-295zM117 0v1024h340v-1024h-340z" />
<glyph unicode="&#xee;" horiz-adv-x="573" d="M-90 1155l244 330h266l244 -330h-277l-100 139l-101 -139h-276zM117 0v1024h340v-1024h-340z" />
<glyph unicode="&#xef;" horiz-adv-x="573" d="M-63 1169v289h292v-289h-292zM117 0v1024h340v-1024h-340zM344 1169v289h293v-289h-293z" />
<glyph unicode="&#xf0;" d="M74 512q0 264 97 400.5t280 136.5q103 0 177 -50t101 -131q-12 181 -170 291l-125 -94l-78 98l82 62q-97 35 -162 51l164 207q138 -44 224 -90l114 88l78 -99l-78 -59q155 -112 223 -297t68 -494q0 -268 -123 -412.5t-375 -144.5q-250 0 -373.5 142.5t-123.5 394.5z M414 512q0 -158 36.5 -221.5t120.5 -63.5t121 63.5t37 221.5t-37 221.5t-121 63.5t-120.5 -63.5t-36.5 -221.5z" />
<glyph unicode="&#xf1;" horiz-adv-x="1159" d="M109 0v1024h340v-160q28 85 101.5 135t178.5 50q157 0 241.5 -99.5t84.5 -294.5v-655h-340v647q0 150 -115 150q-71 0 -111 -56t-40 -157v-584h-340zM211 1171q0 159 52 230.5t159 71.5q54 0 100 -20.5t78 -41t51 -20.5q20 0 27.5 13t7.5 42v10h262q0 -159 -52 -230 t-159 -71q-54 0 -100 20.5t-78 41t-51 20.5q-20 0 -27.5 -13t-7.5 -42v-11h-262z" />
<glyph unicode="&#xf2;" d="M74 512q0 252 123.5 394.5t373.5 142.5t374 -142.5t124 -394.5t-124 -394.5t-374 -142.5t-373.5 142.5t-123.5 394.5zM244 1485h360l189 -330h-295zM414 512q0 -158 36.5 -221.5t120.5 -63.5t121 63.5t37 221.5t-37 221.5t-121 63.5t-120.5 -63.5t-36.5 -221.5z" />
<glyph unicode="&#xf3;" d="M74 512q0 252 123.5 394.5t373.5 142.5t374 -142.5t124 -394.5t-124 -394.5t-374 -142.5t-373.5 142.5t-123.5 394.5zM350 1155l189 330h360l-254 -330h-295zM414 512q0 -158 36.5 -221.5t120.5 -63.5t121 63.5t37 221.5t-37 221.5t-121 63.5t-120.5 -63.5t-36.5 -221.5z " />
<glyph unicode="&#xf4;" d="M74 512q0 252 123.5 394.5t373.5 142.5t374 -142.5t124 -394.5t-124 -394.5t-374 -142.5t-373.5 142.5t-123.5 394.5zM195 1155l243 330h267l243 -330h-276l-101 139l-100 -139h-276zM414 512q0 -158 36.5 -221.5t120.5 -63.5t121 63.5t37 221.5t-37 221.5t-121 63.5 t-120.5 -63.5t-36.5 -221.5z" />
<glyph unicode="&#xf5;" d="M74 512q0 252 123.5 394.5t373.5 142.5t374 -142.5t124 -394.5t-124 -394.5t-374 -142.5t-373.5 142.5t-123.5 394.5zM203 1171q0 159 52 230.5t159 71.5q54 0 100 -20.5t78 -41t51 -20.5q20 0 27.5 13t7.5 42v10h262q0 -159 -52 -230t-159 -71q-54 0 -100 20.5t-78 41 t-51 20.5q-20 0 -27.5 -13t-7.5 -42v-11h-262zM414 512q0 -158 36.5 -221.5t120.5 -63.5t121 63.5t37 221.5t-37 221.5t-121 63.5t-120.5 -63.5t-36.5 -221.5z" />
<glyph unicode="&#xf6;" d="M74 512q0 252 123.5 394.5t373.5 142.5t374 -142.5t124 -394.5t-124 -394.5t-374 -142.5t-373.5 142.5t-123.5 394.5zM219 1169v289h293v-289h-293zM414 512q0 -158 36.5 -221.5t120.5 -63.5t121 63.5t37 221.5t-37 221.5t-121 63.5t-120.5 -63.5t-36.5 -221.5zM627 1169 v289h293v-289h-293z" />
<glyph unicode="&#xf7;" d="M90 539v256h963v-256h-963zM416 129v305h311v-305h-311zM416 901v305h311v-305h-311z" />
<glyph unicode="&#xf8;" d="M74 512q0 252 123.5 394.5t373.5 142.5q121 0 211 -35l54 88h176l-99 -166q156 -138 156 -424q0 -252 -124 -394.5t-374 -142.5q-112 0 -213 33l-51 -86h-176l98 164q-155 137 -155 426zM414 512q0 -78 4 -109l225 377q-34 17 -72 17q-84 0 -120.5 -63.5t-36.5 -221.5z M498 242q30 -15 73 -15q84 0 121 63.5t37 221.5q0 60 -6 106z" />
<glyph unicode="&#xf9;" horiz-adv-x="1159" d="M104 369v655h340v-647q0 -150 115 -150q71 0 111.5 56t40.5 157v584h340v-1024h-340v160q-28 -85 -102 -135t-179 -50q-157 0 -241.5 99.5t-84.5 294.5zM244 1485h360l189 -330h-295z" />
<glyph unicode="&#xfa;" horiz-adv-x="1159" d="M104 369v655h340v-647q0 -150 115 -150q71 0 111.5 56t40.5 157v584h340v-1024h-340v160q-28 -85 -102 -135t-179 -50q-157 0 -241.5 99.5t-84.5 294.5zM367 1155l188 330h360l-253 -330h-295z" />
<glyph unicode="&#xfb;" horiz-adv-x="1159" d="M104 369v655h340v-647q0 -150 115 -150q71 0 111.5 56t40.5 157v584h340v-1024h-340v160q-28 -85 -102 -135t-179 -50q-157 0 -241.5 99.5t-84.5 294.5zM203 1155l243 330h267l243 -330h-276l-100 139l-101 -139h-276z" />
<glyph unicode="&#xfc;" horiz-adv-x="1159" d="M104 369v655h340v-647q0 -150 115 -150q71 0 111.5 56t40.5 157v584h340v-1024h-340v160q-28 -85 -102 -135t-179 -50q-157 0 -241.5 99.5t-84.5 294.5zM229 1169v289h293v-289h-293zM637 1169v289h293v-289h-293z" />
<glyph unicode="&#xfd;" horiz-adv-x="1114" d="M27 1024h348l184 -645l180 645h348l-393 -1133q-48 -139 -95.5 -209t-115 -99t-180.5 -29q-110 0 -151 4v247h75q52 0 84 24t54 87l28 84zM336 1155l188 330h361l-254 -330h-295z" />
<glyph unicode="&#xfe;" horiz-adv-x="1177" d="M109 -446v1880h340v-566q27 81 101 131t177 50q183 0 280 -136.5t97 -400.5t-97 -400.5t-280 -136.5q-103 0 -177 50t-101 131v-602h-340zM449 512q0 -158 36.5 -221.5t120.5 -63.5t121 63.5t37 221.5t-37 221.5t-121 63.5t-120.5 -63.5t-36.5 -221.5z" />
<glyph unicode="&#xff;" horiz-adv-x="1114" d="M27 1024h348l184 -645l180 645h348l-393 -1133q-48 -139 -95.5 -209t-115 -99t-180.5 -29q-110 0 -151 4v247h75q52 0 84 24t54 87l28 84zM215 1169v289h293v-289h-293zM623 1169v289h292v-289h-292z" />
<glyph unicode="&#x131;" horiz-adv-x="573" d="M117 0v1024h340v-1024h-340z" />
<glyph unicode="&#x152;" horiz-adv-x="1873" d="M90 717q0 138 16.5 244.5t56.5 198t105.5 150t166 91.5t235.5 33h1112v-293h-557v-260h483v-293h-483v-295h567v-293h-1122q-135 0 -235.5 33t-166 91.5t-105.5 150t-56.5 198t-16.5 244.5zM457 717q0 -134 12.5 -218t42.5 -129.5t70 -61t104 -15.5h172v848h-172 q-64 0 -104 -15.5t-70 -61t-42.5 -129.5t-12.5 -218z" />
<glyph unicode="&#x153;" horiz-adv-x="1798" d="M74 512q0 249 123 393t356 144q117 0 207.5 -45.5t138.5 -126.5q48 81 138.5 126.5t207.5 45.5q233 0 356 -144t123 -393q0 -40 -4 -80h-649v-18q0 -101 41.5 -154t114.5 -53q61 0 97 28t44 80h334q-27 -167 -150 -253.5t-307 -86.5q-117 0 -207.5 45.5t-138.5 126.5 q-48 -81 -138.5 -126.5t-207.5 -45.5q-233 0 -356 144t-123 393zM414 512q0 -158 36.5 -221.5t120.5 -63.5t121 63.5t37 221.5t-37 221.5t-121 63.5t-120.5 -63.5t-36.5 -221.5zM1071 618h311q-3 199 -155 199q-153 0 -156 -199z" />
<glyph unicode="&#x178;" horiz-adv-x="1302" d="M29 1434h372l250 -570l250 570h373l-438 -869v-565h-369v565zM301 1577v289h293v-289h-293zM709 1577v289h292v-289h-292z" />
<glyph unicode="&#x192;" horiz-adv-x="829" d="M-14 -197h84q67 0 98 34.5t31 109.5v825h-154v252h154v98q0 169 92.5 247.5t300.5 78.5q137 0 201 -10v-242h-134q-68 0 -94 -23.5t-26 -80.5v-68h254v-252h-254v-848q0 -183 -96.5 -276.5t-299.5 -93.5q-99 0 -157 6v243z" />
<glyph unicode="&#x2c6;" horiz-adv-x="856" d="M51 1165l244 330h266l244 -330h-277l-100 140l-100 -140h-277z" />
<glyph unicode="&#x2c7;" horiz-adv-x="856" d="M51 1495h277l100 -139l100 139h277l-244 -330h-266z" />
<glyph unicode="&#x2d8;" horiz-adv-x="856" d="M82 1477h254q0 -113 92 -113t92 113h254q-1 -151 -95.5 -233.5t-250.5 -82.5t-250.5 82.5t-95.5 233.5z" />
<glyph unicode="&#x2d9;" horiz-adv-x="856" d="M281 1180v288h294v-288h-294z" />
<glyph unicode="&#x2da;" horiz-adv-x="856" d="M193 1329q0 101 66 160t169 59q104 0 170 -59t66 -160t-66 -160t-170 -59q-103 0 -169 59t-66 160zM369 1329q0 -29 15.5 -46t43.5 -17t43.5 17t15.5 46t-15.5 46.5t-43.5 17.5t-43.5 -17.5t-15.5 -46.5z" />
<glyph unicode="&#x2db;" horiz-adv-x="856" d="M172 -231q0 69 43.5 130t120.5 101h237q-74 -44 -113.5 -96.5t-39.5 -98.5v-10q0 -35 21 -54.5t61 -19.5q58 0 100 33l84 -127q-76 -76 -227 -76q-133 0 -210 55t-77 148v15z" />
<glyph unicode="&#x2dc;" horiz-adv-x="856" d="M59 1184q0 159 52 230t159 71q42 0 81 -13t62 -28t47 -28t40 -13q20 0 27.5 13t7.5 42v10h262q0 -159 -52 -230t-159 -71q-42 0 -81 13t-62 28t-47 28t-40 13q-19 0 -26.5 -13t-7.5 -42v-10h-263z" />
<glyph unicode="&#x2dd;" horiz-adv-x="856" d="M-41 1149l147 346h349l-209 -346h-287zM340 1149l209 346h348l-270 -346h-287z" />
<glyph unicode="&#x3a9;" horiz-adv-x="1380" d="M94 788q0 315 150 492q147 178 446 178q300 0 447 -178q149 -175 149 -492q0 -368 -239 -495h215v-293h-519v293q91 43 134 141.5t43 282.5q0 150 -13.5 231.5t-46.5 132.5q-57 84 -170 84t-170 -84q-33 -50 -46 -131.5t-13 -232.5q0 -184 43 -283t133 -141v-293h-518 v293h215q-240 128 -240 495z" />
<glyph unicode="&#x3c0;" horiz-adv-x="1249" d="M53 772v252h1143v-252h-154v-772h-340v772h-155v-772h-340v772h-154z" />
<glyph unicode="&#x400;" horiz-adv-x="1140" d="M125 0v1434h924v-293h-557v-260h483v-293h-483v-295h567v-293h-934zM270 1892h361l188 -329h-295z" />
<glyph unicode="&#x401;" horiz-adv-x="1140" d="M125 0v1434h924v-293h-557v-260h483v-293h-483v-295h567v-293h-934zM238 1577v289h292v-289h-292zM645 1577v289h293v-289h-293z" />
<glyph unicode="&#x402;" horiz-adv-x="1519" d="M27 1141v293h1095v-293h-364v-283q56 40 136 64t167 24q181 0 281 -102t100 -287v-215q0 -173 -98 -264.5t-287 -91.5q-83 0 -144 6v287h58q54 0 79 26t25 86v127q0 135 -133 135q-106 0 -184 -57v-596h-367v1141h-364z" />
<glyph unicode="&#x403;" horiz-adv-x="1071" d="M125 0v1434h926v-293h-559v-1141h-367zM383 1563l188 329h361l-254 -329h-295z" />
<glyph unicode="&#x404;" horiz-adv-x="1351" d="M90 717q0 381 152 563q150 178 444 178q274 0 429 -146t155 -382h-365q-3 113 -59 174t-160 61q-110 0 -168 -82q-49 -72 -57 -221h362v-293h-362q8 -150 57 -219q58 -82 168 -82q104 0 161.5 62.5t57.5 173.5h365q0 -236 -155 -382.5t-429 -146.5q-294 0 -444 179 q-152 182 -152 563z" />
<glyph unicode="&#x405;" horiz-adv-x="1228" d="M84 1034q0 187 136.5 305.5t375.5 118.5q236 0 374 -118t138 -291v-23h-367v23q0 60 -38 93.5t-107 33.5q-70 0 -107.5 -33.5t-37.5 -93.5q0 -63 44 -99.5t146 -58.5l111 -23q206 -42 307.5 -151t101.5 -295q0 -200 -138.5 -323.5t-393.5 -123.5q-250 0 -392.5 120 t-142.5 317v24h367v-30q0 -69 43 -108.5t125 -39.5q80 0 123 39.5t43 108.5q0 66 -43 106t-144 61l-110 23q-203 41 -308.5 146.5t-105.5 291.5z" />
<glyph unicode="&#x406;" horiz-adv-x="616" d="M125 0v1434h367v-1434h-367z" />
<glyph unicode="&#x407;" horiz-adv-x="616" d="M-43 1577v289h293v-289h-293zM125 0v1434h367v-1434h-367zM365 1577v289h292v-289h-292z" />
<glyph unicode="&#x408;" horiz-adv-x="1144" d="M35 436v43h366v-41q0 -170 129 -170t129 170v996h367v-998q0 -217 -127.5 -339t-368.5 -122t-368 122t-127 339z" />
<glyph unicode="&#x409;" horiz-adv-x="1988" d="M16 -8v284h72q68 0 96.5 26t28.5 95v1037h1030v-553h203q231 0 356 -112t125 -329t-124.5 -328.5t-356.5 -111.5h-569v1141h-297v-758q0 -220 -91 -308.5t-315 -88.5q-94 0 -158 6zM1243 291h158q80 0 120 35.5t40 113.5t-40 114t-120 36h-158v-299z" />
<glyph unicode="&#x40a;" horiz-adv-x="1921" d="M125 0v1434h367v-553h317v553h367v-553h202q232 0 357 -112t125 -329t-125 -328.5t-357 -111.5h-569v588h-317v-588h-367zM1176 291h157q80 0 120 35.5t40 113.5t-40 114t-120 36h-157v-299z" />
<glyph unicode="&#x40b;" horiz-adv-x="1529" d="M27 1141v293h1095v-293h-364v-283q56 40 136 64t167 24q181 0 281 -102t100 -287v-557h-367v518q0 135 -133 135q-106 0 -184 -57v-596h-367v1141h-364z" />
<glyph unicode="&#x40c;" horiz-adv-x="1284" d="M125 0v1434h367v-553h106l256 553h389l-350 -699l405 -735h-397l-303 588h-106v-588h-367zM444 1563l189 329h360l-254 -329h-295z" />
<glyph unicode="&#x40d;" horiz-adv-x="1341" d="M125 0h356l379 819v-819h357v1434h-357l-379 -820v820h-356v-1434zM354 1892h361l188 -329h-295z" />
<glyph unicode="&#x40e;" horiz-adv-x="1277" d="M35 1434h373l243 -623l236 623h373l-484 -1166q-63 -154 -150.5 -211t-244.5 -57q-84 0 -117 4v289h78q57 0 87.5 20.5t53.5 77.5l11 25zM295 1870h254q0 -113 92 -113t92 113h254q-1 -151 -95.5 -233.5t-250.5 -82.5t-250.5 82.5t-95.5 233.5z" />
<glyph unicode="&#x40f;" horiz-adv-x="1320" d="M125 0v1434h367v-1141h337v1141h367v-1434h-352v-246h-367v246h-352z" />
<glyph unicode="&#x410;" horiz-adv-x="1314" d="M16 0l455 1434h373l454 -1434h-368l-64 240h-420l-61 -240h-369zM520 518h275l-138 524z" />
<glyph unicode="&#x411;" horiz-adv-x="1236" d="M125 0v1434h965v-293h-598v-260h202q232 0 357 -112t125 -329t-125 -328.5t-357 -111.5h-569zM492 291h157q80 0 120 35.5t40 113.5t-40 114t-120 36h-157v-299z" />
<glyph unicode="&#x412;" horiz-adv-x="1275" d="M125 0v1434h569q236 0 356.5 -100.5t120.5 -293.5q0 -220 -200 -292q111 -34 175 -120t64 -206q0 -211 -126 -316.5t-371 -105.5h-588zM492 268h184q87 0 127.5 41t40.5 131t-40.5 131t-127.5 41h-184v-344zM492 858h163q80 0 120 36.5t40 117.5t-40 117t-120 36h-163 v-307z" />
<glyph unicode="&#x413;" horiz-adv-x="1071" d="M125 0v1434h926v-293h-559v-1141h-367z" />
<glyph unicode="&#x414;" horiz-adv-x="1382" d="M25 -246v539h141q53 217 53 551v590h965v-1141h164v-539h-367v246h-590v-246h-366zM537 293h280v848h-231v-316q0 -314 -49 -532z" />
<glyph unicode="&#x415;" horiz-adv-x="1140" d="M125 0v1434h924v-293h-557v-260h483v-293h-483v-295h567v-293h-934z" />
<glyph unicode="&#x416;" horiz-adv-x="1902" d="M23 0l366 735l-315 699h372l226 -553h96v553h367v-553h96l225 553h373l-316 -699l367 -735h-375l-274 588h-96v-588h-367v588h-96l-275 -588h-374z" />
<glyph unicode="&#x417;" horiz-adv-x="1214" d="M72 424v14h366v-4q0 -79 40.5 -122.5t123.5 -43.5t123.5 44t40.5 122q0 95 -48 133.5t-153 38.5h-172v289h172q87 0 125.5 35t38.5 110q0 61 -31.5 95t-95.5 34q-125 0 -125 -131h-362v19q0 82 30 153.5t88.5 127.5t153 88t215.5 32t216 -32t153.5 -87t88.5 -125t30 -149 q0 -115 -58 -193.5t-162 -109.5q120 -28 191.5 -117t71.5 -221q0 -210 -145.5 -329.5t-385.5 -119.5q-238 0 -384 118.5t-146 330.5z" />
<glyph unicode="&#x418;" horiz-adv-x="1341" d="M125 0v1434h356v-820l379 820h357v-1434h-357v819l-379 -819h-356z" />
<glyph unicode="&#x419;" horiz-adv-x="1341" d="M125 0v1434h356v-820l379 820h357v-1434h-357v819l-379 -819h-356zM324 1870h254q0 -113 92 -113t92 113h254q-1 -151 -95.5 -233.5t-250.5 -82.5t-250.5 82.5t-95.5 233.5z" />
<glyph unicode="&#x41a;" horiz-adv-x="1284" d="M125 0v1434h367v-553h106l256 553h389l-350 -699l405 -735h-397l-303 588h-106v-588h-367z" />
<glyph unicode="&#x41b;" horiz-adv-x="1388" d="M16 -8v284h72q68 0 96.5 26t28.5 95v1037h1051v-1434h-367v1141h-317v-758q0 -220 -91 -308.5t-315 -88.5q-94 0 -158 6z" />
<glyph unicode="&#x41c;" horiz-adv-x="1748" d="M125 0v1434h346l403 -1069l404 1069h346v-1434h-354v692l-260 -692h-271l-260 692v-692h-354z" />
<glyph unicode="&#x41d;" horiz-adv-x="1320" d="M125 0v1434h367v-553h337v553h367v-1434h-367v588h-337v-588h-367z" />
<glyph unicode="&#x41e;" horiz-adv-x="1372" d="M90 717q0 381 152 563q150 178 444 178t444 -178q152 -182 152 -563t-152 -563q-150 -179 -444 -179t-444 179q-152 182 -152 563zM457 717q0 -148 14 -232.5t47 -134.5q58 -82 168 -82t168 82q33 50 47 134.5t14 232.5t-14 231.5t-47 134.5q-58 82 -168 82t-168 -82 q-33 -51 -47 -134.5t-14 -231.5z" />
<glyph unicode="&#x41f;" horiz-adv-x="1320" d="M125 0v1434h1071v-1434h-367v1141h-337v-1141h-367z" />
<glyph unicode="&#x420;" horiz-adv-x="1263" d="M125 0v1434h598q235 0 361 -123t126 -350q0 -228 -125.5 -351t-361.5 -123h-231v-487h-367zM492 780h174q178 0 178 181q0 93 -44.5 136.5t-133.5 43.5h-174v-361z" />
<glyph unicode="&#x421;" horiz-adv-x="1351" d="M90 717q0 381 152 563q150 178 444 178q274 0 429 -146t155 -382h-365q-3 113 -59 174t-160 61q-110 0 -168 -82q-34 -51 -47.5 -133.5t-13.5 -232.5t13.5 -233t47.5 -134q58 -82 168 -82q104 0 161.5 62.5t57.5 173.5h365q0 -236 -155 -382.5t-429 -146.5 q-294 0 -444 179q-152 182 -152 563z" />
<glyph unicode="&#x422;" horiz-adv-x="1148" d="M27 1141v293h1095v-293h-364v-1141h-367v1141h-364z" />
<glyph unicode="&#x423;" horiz-adv-x="1277" d="M35 1434h373l243 -623l236 623h373l-484 -1166q-63 -154 -150.5 -211t-244.5 -57q-84 0 -117 4v289h78q57 0 87.5 20.5t53.5 77.5l11 25z" />
<glyph unicode="&#x424;" horiz-adv-x="1652" d="M63 717q0 128 43 224t122.5 156t182 92.5t232.5 41.5v203h367v-203q130 -9 232.5 -41.5t181.5 -92.5t122 -156t43 -224t-43 -224t-122 -156t-181.5 -92.5t-232.5 -41.5v-203h-367v203q-130 9 -232.5 41.5t-182 92.5t-122.5 156t-43 224zM418 717q0 -117 56.5 -173 t168.5 -59v463q-112 -3 -168.5 -59t-56.5 -172zM1010 485q112 3 168.5 59t56.5 173q0 116 -56.5 172t-168.5 59v-463z" />
<glyph unicode="&#x425;" horiz-adv-x="1302" d="M29 0l379 741l-349 693h377l215 -480l215 480h377l-348 -693l379 -741h-377l-246 524l-245 -524h-377z" />
<glyph unicode="&#x426;" horiz-adv-x="1394" d="M125 0v1434h367v-1141h337v1141h367v-1141h164v-539h-367v246h-868z" />
<glyph unicode="&#x427;" horiz-adv-x="1275" d="M104 911v523h367v-500q0 -78 32.5 -116t102.5 -38q57 0 104.5 19t73.5 55v580h367v-1434h-367v575q-43 -39 -119 -63.5t-157 -24.5q-404 0 -404 424z" />
<glyph unicode="&#x428;" horiz-adv-x="1984" d="M125 0v1434h367v-1141h317v1141h367v-1141h317v1141h367v-1434h-1735z" />
<glyph unicode="&#x429;" horiz-adv-x="2058" d="M125 0v1434h367v-1141h317v1141h367v-1141h317v1141h367v-1141h163v-539h-366v246h-1532z" />
<glyph unicode="&#x42a;" horiz-adv-x="1490" d="M27 1141v293h718v-553h203q232 0 357 -112t125 -329t-125 -328.5t-357 -111.5h-569v1141h-352zM745 291h158q80 0 120 35.5t40 113.5t-40 114t-120 36h-158v-299z" />
<glyph unicode="&#x42b;" horiz-adv-x="1802" d="M125 0v1434h367v-553h202q232 0 357 -112t125 -329t-125 -328.5t-357 -111.5h-569zM492 291h157q80 0 120 35.5t40 113.5t-40 114t-120 36h-157v-299zM1311 0v1434h366v-1434h-366z" />
<glyph unicode="&#x42c;" horiz-adv-x="1236" d="M125 0v1434h367v-553h202q232 0 357 -112t125 -329t-125 -328.5t-357 -111.5h-569zM492 291h157q80 0 120 35.5t40 113.5t-40 114t-120 36h-157v-299z" />
<glyph unicode="&#x42d;" horiz-adv-x="1351" d="M82 504h364q0 -111 58 -173.5t162 -62.5q110 0 168 82q49 69 57 219h-363v293h363q-8 149 -57 221q-58 82 -168 82q-104 0 -160.5 -61t-59.5 -174h-364q0 236 155 382t429 146q294 0 444 -178q152 -182 152 -563t-152 -563q-150 -179 -444 -179q-274 0 -429 146.5 t-155 382.5z" />
<glyph unicode="&#x42e;" horiz-adv-x="1904" d="M125 0v1434h367v-572h137q22 270 145 418q150 178 445 178q294 0 444 -178q152 -182 152 -563t-152 -563q-150 -179 -444 -179q-295 0 -445 179q-123 145 -145 415h-137v-569h-367zM989 717q0 -149 14 -232.5t48 -134.5q58 -82 168 -82q109 0 167 82q34 51 48 134.5 t14 232.5t-14 232t-48 134q-58 82 -167 82q-110 0 -168 -82q-34 -51 -48 -134t-14 -232z" />
<glyph unicode="&#x42f;" horiz-adv-x="1308" d="M80 0q25 52 31 135l12 195q9 143 59.5 214t161.5 91q-116 33 -181 125t-65 235q0 204 121.5 321.5t349.5 117.5h615v-1434h-367v487h-158q-94 0 -132 -38t-44 -138l-10 -178q-3 -80 -27 -133h-366zM465 961q0 -95 44.5 -138t133.5 -43h174v361h-174q-89 0 -133.5 -43 t-44.5 -137z" />
<glyph unicode="&#x430;" horiz-adv-x="1138" d="M72 299q0 149 93 236.5t247 87.5q97 0 170 -38.5t104 -107.5v213q0 56 -28.5 87.5t-84.5 31.5q-54 0 -82 -29t-30 -80h-340q0 156 116.5 252.5t335.5 96.5q213 0 333 -97.5t120 -251.5v-544q0 -102 31 -156h-348q-20 45 -23 121q-30 -66 -102 -106t-172 -40 q-153 0 -246.5 87t-93.5 237zM412 299q0 -111 137 -111t137 111t-137 111t-137 -111z" />
<glyph unicode="&#x431;" horiz-adv-x="1157" d="M88 524v117q0 118 4.5 205t16.5 162.5t29.5 127.5t48 96t66.5 72t91 52t115 39.5t145 31.5l266 50l84 -246l-276 -51q-156 -29 -203 -81t-47 -194v-37q27 80 101.5 130.5t177.5 50.5q183 0 279.5 -136.5t96.5 -400.5q0 -252 -123.5 -394.5t-373.5 -142.5 q-251 0 -374.5 144.5t-123.5 404.5zM428 512q0 -158 37 -221.5t121 -63.5t120.5 63.5t36.5 221.5t-36.5 221.5t-120.5 63.5t-121 -63.5t-37 -221.5z" />
<glyph unicode="&#x432;" horiz-adv-x="1089" d="M109 0v1024h509q191 0 284 -73t93 -210q0 -77 -40.5 -133t-110.5 -78q84 -19 132 -78t48 -151q0 -140 -93 -220.5t-296 -80.5h-526zM449 223h108q67 0 97 21.5t30 77.5q0 58 -29.5 79t-97.5 21h-108v-199zM449 625h114q50 0 74.5 21t24.5 67t-24.5 67t-74.5 21h-114v-176 z" />
<glyph unicode="&#x433;" horiz-adv-x="882" d="M109 0v1024h737v-252h-397v-772h-340z" />
<glyph unicode="&#x434;" horiz-adv-x="1161" d="M20 -225v475h113q39 165 39 401v373h825v-774h133v-475h-339v225h-429v-225h-342zM463 250h205v522h-168v-141q0 -215 -37 -381z" />
<glyph unicode="&#x435;" d="M74 512q0 122 29 219t88.5 169t155.5 110.5t224 38.5t224.5 -38.5t155.5 -110.5t88.5 -169t29.5 -219q0 -40 -4 -80h-649v-18q0 -101 41 -154t114 -53q61 0 97.5 28.5t44.5 79.5h334q-27 -168 -153 -254t-323 -86q-251 0 -374 143t-123 394zM416 618h311q-3 199 -156 199 q-152 0 -155 -199z" />
<glyph unicode="&#x436;" horiz-adv-x="1601" d="M16 0l269 532l-224 492h351l147 -369h72v369h340v-369h71l148 369h350l-223 -492l268 -532h-356l-189 412h-69v-412h-340v412h-70l-188 -412h-357z" />
<glyph unicode="&#x437;" horiz-adv-x="1048" d="M53 287v14h342q2 -42 34 -67t89 -25q55 0 89 28t34 74q0 47 -33 73t-94 26h-147v221h151q50 0 80.5 25t30.5 67q0 43 -27 66.5t-78 23.5q-53 0 -79.5 -24t-26.5 -66h-330v18q0 138 112.5 223t323.5 85q206 0 321.5 -83.5t115.5 -215.5q0 -86 -53 -146.5t-140 -81.5 q101 -21 158 -81t57 -154q0 -140 -126 -226t-339 -86t-339 86t-126 226z" />
<glyph unicode="&#x438;" horiz-adv-x="1122" d="M109 0v1024h340v-526l243 526h322v-1024h-340v526l-244 -526h-321z" />
<glyph unicode="&#x439;" horiz-adv-x="1122" d="M109 0v1024h340v-526l243 526h322v-1024h-340v526l-244 -526h-321zM215 1466h254q0 -112 92 -112t92 112h254q-1 -150 -95.5 -232.5t-250.5 -82.5t-250.5 82.5t-95.5 232.5z" />
<glyph unicode="&#x43a;" horiz-adv-x="1093" d="M109 0v1024h340v-375h65l174 375h352l-252 -492l293 -532h-356l-213 418h-63v-418h-340z" />
<glyph unicode="&#x43b;" horiz-adv-x="1169" d="M25 -8v244h47q61 0 85.5 25t24.5 97v666h879v-1024h-340v772h-199v-450q0 -188 -83.5 -262t-293.5 -74q-77 0 -120 6z" />
<glyph unicode="&#x43c;" horiz-adv-x="1384" d="M109 0v1024h309l274 -705l275 705h309v-1024h-324v430l-168 -430h-184l-168 430v-430h-323z" />
<glyph unicode="&#x43d;" horiz-adv-x="1105" d="M109 0v1024h340v-373h208v373h340v-1024h-340v399h-208v-399h-340z" />
<glyph unicode="&#x43e;" d="M74 512q0 252 123.5 394.5t373.5 142.5t374 -142.5t124 -394.5t-124 -394.5t-374 -142.5t-373.5 142.5t-123.5 394.5zM414 512q0 -158 36.5 -221.5t120.5 -63.5t121 63.5t37 221.5t-37 221.5t-121 63.5t-120.5 -63.5t-36.5 -221.5z" />
<glyph unicode="&#x43f;" horiz-adv-x="1105" d="M109 0v1024h888v-1024h-340v772h-208v-772h-340z" />
<glyph unicode="&#x440;" horiz-adv-x="1177" d="M109 -446v1470h340v-156q27 81 101 131t177 50q183 0 280 -136.5t97 -400.5t-97 -400.5t-280 -136.5q-103 0 -177 50t-101 131v-602h-340zM449 512q0 -158 36.5 -221.5t120.5 -63.5t121 63.5t37 221.5t-37 221.5t-121 63.5t-120.5 -63.5t-36.5 -221.5z" />
<glyph unicode="&#x441;" horiz-adv-x="1122" d="M74 512q0 252 123.5 394.5t373.5 142.5q224 0 352 -109.5t136 -292.5h-338q-7 78 -43 114t-107 36q-84 0 -120.5 -63.5t-36.5 -221.5t36.5 -221.5t120.5 -63.5q71 0 107 36t43 114h338q-8 -183 -136 -292.5t-352 -109.5q-250 0 -373.5 142.5t-123.5 394.5z" />
<glyph unicode="&#x442;" horiz-adv-x="987" d="M35 772v252h917v-252h-288v-772h-340v772h-289z" />
<glyph unicode="&#x443;" horiz-adv-x="1114" d="M27 1024h348l184 -645l180 645h348l-393 -1133q-48 -139 -95.5 -209t-115 -99t-180.5 -29q-110 0 -151 4v247h75q52 0 84 24t54 87l28 84z" />
<glyph unicode="&#x444;" horiz-adv-x="1798" d="M74 512q0 264 97 400.5t280 136.5q103 0 177 -50t101 -131v566h340v-566q27 80 101.5 130.5t177.5 50.5q183 0 279.5 -136.5t96.5 -400.5t-96.5 -400.5t-279.5 -136.5q-103 0 -177.5 50.5t-101.5 130.5v-584h-340v584q-27 -81 -101 -131t-177 -50q-183 0 -280 136.5 t-97 400.5zM414 512q0 -158 36.5 -221.5t120.5 -63.5t121 63.5t37 221.5t-37 221.5t-121 63.5t-120.5 -63.5t-36.5 -221.5zM1069 512q0 -158 37 -221.5t121 -63.5t120.5 63.5t36.5 221.5t-36.5 221.5t-120.5 63.5t-121 -63.5t-37 -221.5z" />
<glyph unicode="&#x445;" horiz-adv-x="1044" d="M16 0l281 526l-260 498h348l137 -324l137 324h349l-260 -498l280 -526h-348l-158 350l-157 -350h-349z" />
<glyph unicode="&#x446;" horiz-adv-x="1161" d="M109 0v1024h340v-774h208v774h340v-774h133v-475h-339v225h-682z" />
<glyph unicode="&#x447;" horiz-adv-x="1069" d="M88 657v367h340v-365q0 -54 20 -78t66 -24q72 0 107 35v432h340v-1024h-340v356q-29 -22 -84.5 -35.5t-114.5 -13.5q-165 0 -249.5 84t-84.5 266z" />
<glyph unicode="&#x448;" horiz-adv-x="1630" d="M109 0v1024h340v-774h196v774h340v-774h197v774h340v-1024h-1413z" />
<glyph unicode="&#x449;" horiz-adv-x="1685" d="M109 0v1024h340v-774h196v774h340v-774h197v774h340v-774h133v-475h-340v225h-1206z" />
<glyph unicode="&#x44a;" horiz-adv-x="1259" d="M35 772v252h618v-356h152q193 0 296 -85.5t103 -248.5t-103 -248.5t-296 -85.5h-492v772h-278zM653 231h115q106 0 106 103q0 102 -106 102h-115v-205z" />
<glyph unicode="&#x44b;" horiz-adv-x="1554" d="M109 0v1024h340v-356h151q193 0 296 -85.5t103 -248.5t-103 -248.5t-296 -85.5h-491zM449 231h114q107 0 107 103q0 102 -107 102h-114v-205zM1106 0v1024h340v-1024h-340z" />
<glyph unicode="&#x44c;" horiz-adv-x="1054" d="M109 0v1024h340v-356h151q193 0 296 -85.5t103 -248.5t-103 -248.5t-296 -85.5h-491zM449 231h114q107 0 107 103q0 102 -107 102h-114v-205z" />
<glyph unicode="&#x44d;" horiz-adv-x="1122" d="M63 346h340q25 -119 144 -119q138 0 155 164h-237v240h237q-17 166 -155 166q-119 0 -144 -119h-340q19 170 144 270.5t340 100.5q251 0 376.5 -143t125.5 -394t-125.5 -394t-376.5 -143q-215 0 -340 100.5t-144 270.5z" />
<glyph unicode="&#x44e;" horiz-adv-x="1593" d="M109 0v1024h340v-387h83q29 196 150.5 304t339.5 108q250 0 374 -142.5t124 -394.5t-124 -394.5t-374 -142.5q-217 0 -339 107.5t-151 302.5h-83v-385h-340zM864 512q0 -158 37 -221.5t121 -63.5t121 63.5t37 221.5t-37 221.5t-121 63.5t-121 -63.5t-37 -221.5z" />
<glyph unicode="&#x44f;" horiz-adv-x="1095" d="M88 0q12 49 14 94l9 144q6 96 46 149t124 70q-88 24 -138.5 91t-50.5 171q0 150 103 227.5t301 77.5h491v-1024h-340v330h-96q-53 0 -76 -24.5t-26 -80.5l-9 -135q-3 -59 -14 -90h-338zM432 674q0 -55 29 -83t80 -28h106v221h-106q-109 0 -109 -110z" />
<glyph unicode="&#x450;" d="M74 512q0 122 29 219t88.5 169t155.5 110.5t224 38.5t224.5 -38.5t155.5 -110.5t88.5 -169t29.5 -219q0 -40 -4 -80h-649v-18q0 -101 41 -154t114 -53q61 0 97.5 28.5t44.5 79.5h334q-27 -168 -153 -254t-323 -86q-251 0 -374 143t-123 394zM244 1485h360l189 -330h-295z M416 618h311q-3 199 -156 199q-152 0 -155 -199z" />
<glyph unicode="&#x451;" d="M74 512q0 122 29 219t88.5 169t155.5 110.5t224 38.5t224.5 -38.5t155.5 -110.5t88.5 -169t29.5 -219q0 -40 -4 -80h-649v-18q0 -101 41 -154t114 -53q61 0 97.5 28.5t44.5 79.5h334q-27 -168 -153 -254t-323 -86q-251 0 -374 143t-123 394zM221 1169v289h293v-289h-293z M416 618h311q-3 199 -156 199q-152 0 -155 -199zM629 1169v289h293v-289h-293z" />
<glyph unicode="&#x452;" horiz-adv-x="1159" d="M-4 1139v180h113v115h340v-115h229v-180h-229v-275q28 85 101.5 135t178.5 50q157 0 241.5 -99.5t84.5 -294.5v-731q0 -183 -96.5 -276.5t-299.5 -93.5q-99 0 -157 6v243h84q67 0 98 34.5t31 109.5v700q0 150 -115 150q-71 0 -111 -56t-40 -157v-584h-340v1139h-113z" />
<glyph unicode="&#x453;" horiz-adv-x="882" d="M109 0v1024h737v-252h-397v-772h-340zM254 1155l188 330h361l-254 -330h-295z" />
<glyph unicode="&#x454;" horiz-adv-x="1122" d="M74 512q0 165 52.5 283.5t166.5 186t282 67.5q215 0 340 -100.5t144 -270.5h-340q-25 119 -144 119q-138 0 -155 -166h237v-240h-237q17 -164 155 -164q119 0 144 119h340q-19 -170 -144 -270.5t-340 -100.5q-168 0 -282 67.5t-166.5 186t-52.5 283.5z" />
<glyph unicode="&#x455;" horiz-adv-x="1026" d="M76 727q0 144 110 233t310 89q201 0 310 -86.5t109 -219.5v-14h-340v16q0 32 -20.5 52t-60.5 20q-39 0 -60.5 -19.5t-21.5 -52.5q0 -71 114 -94l117 -24q167 -36 242.5 -109.5t75.5 -208.5q0 -152 -116 -243t-325 -91q-214 0 -327 91t-113 237v8h340v-22q0 -41 26 -65.5 t74 -24.5q49 0 75 25t26 65q0 42 -26 66t-85 36l-117 25q-317 66 -317 311z" />
<glyph unicode="&#x456;" horiz-adv-x="573" d="M117 0v1024h340v-1024h-340zM117 1161v273h340v-273h-340z" />
<glyph unicode="&#x457;" horiz-adv-x="573" d="M-63 1169v289h292v-289h-292zM117 0v1024h340v-1024h-340zM344 1169v289h293v-289h-293z" />
<glyph unicode="&#x458;" horiz-adv-x="573" d="M-96 -197h84q67 0 98 34.5t31 109.5v1077h340v-1100q0 -183 -96.5 -276.5t-299.5 -93.5q-99 0 -157 6v243zM117 1161v273h340v-273h-340z" />
<glyph unicode="&#x459;" horiz-adv-x="1660" d="M25 -8v244h47q61 0 85.5 25t24.5 97v666h873v-356h151q193 0 296.5 -85.5t103.5 -248.5t-103.5 -248.5t-296.5 -85.5h-491v772h-193v-450q0 -188 -83.5 -262t-293.5 -74q-77 0 -120 6zM1055 231h114q107 0 107 103q0 102 -107 102h-114v-205z" />
<glyph unicode="&#x45a;" horiz-adv-x="1597" d="M109 0v1024h340v-373h202v373h340v-356h152q193 0 296 -85.5t103 -248.5t-103 -248.5t-296 -85.5h-492v399h-202v-399h-340zM991 231h115q106 0 106 103q0 102 -106 102h-115v-205z" />
<glyph unicode="&#x45b;" horiz-adv-x="1159" d="M-4 1139v180h113v115h340v-115h229v-180h-229v-275q28 85 101.5 135t178.5 50q157 0 241.5 -99.5t84.5 -294.5v-655h-340v647q0 150 -115 150q-71 0 -111 -56t-40 -157v-584h-340v1139h-113z" />
<glyph unicode="&#x45c;" horiz-adv-x="1093" d="M109 0v1024h340v-375h65l174 375h352l-252 -492l293 -532h-356l-213 418h-63v-418h-340zM338 1155l188 330h361l-254 -330h-295z" />
<glyph unicode="&#x45d;" horiz-adv-x="1122" d="M109 0v1024h340v-526l243 526h322v-1024h-340v526l-244 -526h-321zM248 1485h360l189 -330h-295z" />
<glyph unicode="&#x45e;" horiz-adv-x="1114" d="M27 1024h348l184 -645l180 645h348l-393 -1133q-48 -139 -95.5 -209t-115 -99t-180.5 -29q-110 0 -151 4v247h75q52 0 84 24t54 87l28 84zM213 1466h254q0 -112 92 -112t92 112h254q-1 -150 -95.5 -232.5t-250.5 -82.5t-250.5 82.5t-95.5 232.5z" />
<glyph unicode="&#x45f;" horiz-adv-x="1105" d="M109 0v1024h340v-772h208v772h340v-1024h-274v-225h-340v225h-274z" />
<glyph unicode="&#x490;" horiz-adv-x="1071" d="M125 0v1434h559v286h367v-579h-559v-1141h-367z" />
<glyph unicode="&#x491;" horiz-adv-x="882" d="M109 0v1024h395v221h342v-473h-397v-772h-340z" />
<glyph unicode="&#x2000;" horiz-adv-x="973" />
<glyph unicode="&#x2001;" horiz-adv-x="1946" />
<glyph unicode="&#x2002;" horiz-adv-x="973" />
<glyph unicode="&#x2003;" horiz-adv-x="1946" />
<glyph unicode="&#x2004;" horiz-adv-x="648" />
<glyph unicode="&#x2005;" horiz-adv-x="486" />
<glyph unicode="&#x2006;" horiz-adv-x="324" />
<glyph unicode="&#x2007;" horiz-adv-x="324" />
<glyph unicode="&#x2008;" horiz-adv-x="243" />
<glyph unicode="&#x2009;" horiz-adv-x="389" />
<glyph unicode="&#x200a;" horiz-adv-x="108" />
<glyph unicode="&#x2010;" horiz-adv-x="880" d="M90 528v277h701v-277h-701z" />
<glyph unicode="&#x2011;" horiz-adv-x="880" d="M90 528v277h701v-277h-701z" />
<glyph unicode="&#x2012;" horiz-adv-x="880" d="M90 528v277h701v-277h-701z" />
<glyph unicode="&#x2013;" horiz-adv-x="1024" d="M0 528v277h1024v-277h-1024z" />
<glyph unicode="&#x2014;" horiz-adv-x="2048" d="M0 528v277h2048v-277h-2048z" />
<glyph unicode="&#x2018;" horiz-adv-x="602" d="M129 963v340q0 126 90.5 204t253.5 82v-149q-172 -6 -172 -137h172v-340h-344z" />
<glyph unicode="&#x2019;" horiz-adv-x="602" d="M129 963v149q172 6 172 137h-172v340h344v-340q0 -126 -90.5 -204t-253.5 -82z" />
<glyph unicode="&#x201a;" horiz-adv-x="602" d="M129 0v340h344v-340q0 -126 -90.5 -204.5t-253.5 -82.5v150q172 6 172 137h-172z" />
<glyph unicode="&#x201c;" horiz-adv-x="1058" d="M129 963v340q0 126 90.5 204t253.5 82v-149q-172 -6 -172 -137h172v-340h-344zM586 963v340q0 126 90.5 204t253.5 82v-149q-172 -6 -172 -137h172v-340h-344z" />
<glyph unicode="&#x201d;" horiz-adv-x="1058" d="M129 963v149q172 6 172 137h-172v340h344v-340q0 -126 -90.5 -204t-253.5 -82zM586 963v149q172 6 172 137h-172v340h344v-340q0 -126 -90.5 -204t-253.5 -82z" />
<glyph unicode="&#x201e;" horiz-adv-x="1058" d="M129 0v340h344v-340q0 -126 -90.5 -204.5t-253.5 -82.5v150q172 6 172 137h-172zM586 0v340h344v-340q0 -126 -90.5 -204.5t-253.5 -82.5v150q172 6 172 137h-172z" />
<glyph unicode="&#x2020;" horiz-adv-x="1167" d="M106 936v252h318v344h319v-344h318v-252h-318v-1204h-319v1204h-318z" />
<glyph unicode="&#x2021;" horiz-adv-x="1167" d="M106 76v252h318v608h-318v252h318v344h319v-344h318v-252h-318v-608h318v-252h-318v-344h-319v344h-318z" />
<glyph unicode="&#x2022;" horiz-adv-x="741" d="M102 668q0 110 79.5 189t189.5 79t189 -79t79 -189t-79 -189.5t-189 -79.5t-189.5 79.5t-79.5 189.5z" />
<glyph unicode="&#x2026;" horiz-adv-x="1806" d="M129 0v340h344v-340h-344zM731 0v340h344v-340h-344zM1333 0v340h344v-340h-344z" />
<glyph unicode="&#x202f;" horiz-adv-x="389" />
<glyph unicode="&#x2030;" horiz-adv-x="2459" d="M100 1071q0 387 320 387q323 0 323 -387t-323 -387q-320 0 -320 387zM348 1071q0 -109 16 -148.5t58 -39.5t58 39.5t16 148.5t-16 149t-58 40t-58 -40t-16 -149zM457 0l587 1434h242l-588 -1434h-241zM999 362q0 388 324 388q319 0 319 -388q0 -387 -319 -387 q-324 0 -324 387zM1247 362q0 -109 16 -148.5t58 -39.5t58 39.5t16 148.5t-16 149t-58 40t-58 -40t-16 -149zM1716 362q0 388 324 388q319 0 319 -388q0 -387 -319 -387q-324 0 -324 387zM1964 362q0 -109 16 -148.5t58 -39.5t57.5 39.5t15.5 148.5t-15.5 149t-57.5 40 t-58 -40t-16 -149z" />
<glyph unicode="&#x2039;" horiz-adv-x="677" d="M72 522v234l534 307v-293l-258 -131l258 -131v-293z" />
<glyph unicode="&#x203a;" horiz-adv-x="677" d="M72 215v293l258 131l-258 131v293l534 -307v-234z" />
<glyph unicode="&#x2044;" horiz-adv-x="362" d="M-305 0l700 1434h273l-701 -1434h-272z" />
<glyph unicode="&#x205f;" horiz-adv-x="486" />
<glyph unicode="&#x20ac;" horiz-adv-x="1351" d="M4 522v152h86v84h-86v151h96q28 234 142 371q150 178 444 178q274 0 429 -146t155 -382h-365q-3 113 -59 174t-160 61q-110 0 -168 -82q-41 -59 -53 -174h305q-4 -26 -12.5 -75.5t-12.5 -75.5h-288v-84h274q-4 -26 -12 -76t-12 -76h-242q11 -113 53 -172q58 -82 168 -82 q104 0 161.5 62.5t57.5 173.5h365q0 -236 -155 -382.5t-429 -146.5q-294 0 -444 179q-114 137 -142 368h-96z" />
<glyph unicode="&#x2122;" horiz-adv-x="1404" d="M16 1260v174h535v-174h-158v-510h-219v510h-158zM588 750v684h200l168 -424l168 424h201v-684h-217v243l-96 -243h-111l-96 243v-243h-217z" />
<glyph unicode="&#x2202;" horiz-adv-x="1189" d="M84 422q0 120 36.5 218t99.5 160.5t145 96t174 33.5q77 0 134 -27t83 -76q4 66 4 103q0 138 -27.5 200t-89.5 62q-102 0 -129 -125h-348q47 184 174 287.5t326 103.5q235 0 337.5 -139.5t102.5 -413.5q0 -182 -17 -322.5t-58 -257.5t-107.5 -192.5t-167 -116.5 t-234.5 -41q-209 0 -323.5 117t-114.5 330zM438 408q0 -82 30.5 -121t92.5 -39q160 0 160 250q0 82 -30.5 120.5t-92.5 38.5q-160 0 -160 -249z" />
<glyph unicode="&#x2206;" horiz-adv-x="1314" d="M16 0l455 1434h373l454 -1434h-1282zM457 279h399l-199 763z" />
<glyph unicode="&#x220f;" horiz-adv-x="1361" d="M145 -227v1661h1072v-1661h-367v1368h-338v-1368h-367z" />
<glyph unicode="&#x2211;" horiz-adv-x="1193" d="M90 66l297 528l-297 545v295h1014v-293h-604l266 -508v-82l-266 -485h604v-293h-1014v293z" />
<glyph unicode="&#x221a;" horiz-adv-x="1239" d="M16 541h373l137 -330l357 1325h356l-491 -1763h-371z" />
<glyph unicode="&#x221e;" horiz-adv-x="1622" d="M106 678q0 149 96.5 236t254.5 87q214 0 354 -165q140 165 354 165q158 0 254.5 -87t96.5 -236t-96.5 -236.5t-254.5 -87.5q-213 0 -354 166q-141 -166 -354 -166q-158 0 -254.5 87.5t-96.5 236.5zM408 678q0 -40 25.5 -62t66.5 -22q76 0 145 84q-69 84 -145 84 q-41 0 -66.5 -22t-25.5 -62zM977 678q69 -84 145 -84q41 0 66.5 22t25.5 62t-25.5 62t-66.5 22q-76 0 -145 -84z" />
<glyph unicode="&#x222b;" horiz-adv-x="954" d="M53 29h133q68 0 94.5 23.5t26.5 80.5v1174q0 169 92 247t301 78q137 0 201 -10v-242h-133q-68 0 -94.5 -23.5t-26.5 -80.5v-1174q0 -169 -92 -247t-301 -78q-137 0 -201 10v242z" />
<glyph unicode="&#x2248;" d="M111 256q0 185 55 280t184 95q58 0 109.5 -16t82 -34.5t64.5 -34.5t62 -16q63 0 63 82v6h301q0 -185 -55 -279.5t-184 -94.5q-58 0 -109.5 15.5t-82 34.5t-64.5 34.5t-62 15.5q-63 0 -63 -82v-6h-301zM111 717q0 185 55 280t184 95q58 0 109.5 -16t82 -34.5t64.5 -34.5 t62 -16q63 0 63 82v6h301q0 -185 -55 -279.5t-184 -94.5q-58 0 -109.5 15.5t-82 34.5t-64.5 34.5t-62 15.5q-63 0 -63 -82v-6h-301z" />
<glyph unicode="&#x2260;" d="M90 326v256h328l102 170h-430v256h588l121 198h205l-121 -198h170v-256h-328l-102 -170h430v-256h-588l-121 -199h-205l121 199h-170z" />
<glyph unicode="&#x2264;" d="M90 0v256h963v-256h-963zM106 618v300l930 315v-301l-534 -164l534 -164v-301z" />
<glyph unicode="&#x2265;" d="M90 0v256h963v-256h-963zM106 303v301l535 164l-535 164v301l930 -315v-300z" />
<glyph unicode="&#x25ca;" horiz-adv-x="1183" d="M92 618l500 941l500 -941l-500 -940zM428 618l164 -303l164 303l-164 304z" />
<glyph unicode="&#x25fc;" horiz-adv-x="1024" d="M0 0v1024h1024v-1024h-1024z" />
</font>
</defs>
</svg>
