<?xml version="1.0" standalone="no"?>
<!DOCTYPE svg PUBLIC "-//W3C//DTD SVG 1.1//EN" "http://www.w3.org/Graphics/SVG/1.1/DTD/svg11.dtd" >
<svg xmlns="http://www.w3.org/2000/svg">
<metadata></metadata>
<defs>
<font id="core_sans_e65_bold" horiz-adv-x="1118" >
<font-face units-per-em="2048" ascent="1638" descent="-410" />
<missing-glyph horiz-adv-x="532" />
<glyph unicode="&#xfb01;" horiz-adv-x="1273" d="M55 811v213h148v109q0 168 85 241.5t279 73.5q98 0 154 -10v-203h-111q-77 0 -107 -27t-30 -92v-92h248v-213h-248v-811h-270v811h-148zM877 0v1024h270v-1024h-270zM877 1192v242h270v-242h-270z" />
<glyph unicode="&#xfb02;" horiz-adv-x="1273" d="M55 811v213h148v109q0 168 85 241.5t279 73.5q98 0 154 -10v-203h-111q-77 0 -107 -27t-30 -92v-92h248v-213h-248v-811h-270v811h-148zM877 0v1434h270v-1434h-270z" />
<glyph horiz-adv-x="682" />
<glyph horiz-adv-x="0" />
<glyph horiz-adv-x="0" />
<glyph unicode="&#xd;" horiz-adv-x="485" />
<glyph unicode=" "  horiz-adv-x="532" />
<glyph unicode="&#x09;" horiz-adv-x="532" />
<glyph unicode="&#xa0;" horiz-adv-x="532" />
<glyph unicode="!" horiz-adv-x="655" d="M193 0v250h270v-250h-270zM193 1206v228h270v-228l-25 -788h-221z" />
<glyph unicode="&#x22;" horiz-adv-x="886" d="M158 1008v426h233v-426h-233zM496 1008v426h233v-426h-233z" />
<glyph unicode="#" horiz-adv-x="1398" d="M68 362v209h237l64 291h-232v209h277l80 363h243l-80 -363h236l80 363h244l-80 -363h194v-209h-239l-64 -291h234v-209h-279l-78 -362h-243l77 362h-235l-78 -362h-244l78 362h-192zM549 571h235l64 291h-236z" />
<glyph unicode="$" horiz-adv-x="1200" d="M96 1047q0 164 110 277t312 130v158h168v-162q182 -25 283.5 -136t101.5 -263v-21h-285v21q0 112 -100 153v-356l55 -12q383 -84 383 -426q0 -179 -115.5 -295t-322.5 -135v-158h-168v160q-197 23 -308.5 137.5t-111.5 286.5v26h285v-31q0 -66 35 -113t100 -67v402l-39 8 q-383 80 -383 416zM381 1051q0 -130 137 -166v332q-68 -15 -102.5 -58.5t-34.5 -107.5zM686 217q73 18 113.5 65t40.5 119q0 148 -154 185v-369z" />
<glyph unicode="%" horiz-adv-x="1689" d="M109 1071q0 387 307 387t307 -387t-307 -387t-307 387zM322 1071q0 -116 20.5 -162.5t73.5 -46.5t73.5 46.5t20.5 162.5t-20.5 162.5t-73.5 46.5t-73.5 -46.5t-20.5 -162.5zM444 0l588 1434h213l-588 -1434h-213zM967 362q0 388 307 388t307 -388q0 -387 -307 -387 t-307 387zM1180 362q0 -115 20.5 -161.5t73.5 -46.5t73.5 46.5t20.5 161.5q0 116 -20.5 162.5t-73.5 46.5t-73.5 -46.5t-20.5 -162.5z" />
<glyph unicode="&#x26;" horiz-adv-x="1359" d="M98 397q0 263 248 400q-76 87 -109.5 164t-33.5 161q0 155 108.5 245.5t284.5 90.5t285.5 -90.5t109.5 -245.5v-51h-270v45q0 57 -32.5 89t-92.5 32q-58 0 -90.5 -32t-32.5 -89q0 -47 20.5 -92.5t71.5 -103.5l369 -424q31 94 37 225h270q-12 -259 -115 -442l244 -279 h-323l-89 100q-137 -125 -376 -125q-221 0 -352.5 115t-131.5 307zM371 401q0 -99 62 -150.5t159 -51.5q134 0 211 77l-311 355q-121 -89 -121 -230z" />
<glyph unicode="'" horiz-adv-x="548" d="M158 1008v426h233v-426h-233z" />
<glyph unicode="(" horiz-adv-x="702" d="M158 709q0 166 10.5 296t29.5 227.5t51.5 167.5t71 115.5t93 72.5t113 37.5t135.5 10.5v-223q-44 0 -72.5 -8t-57.5 -32.5t-46.5 -72t-31.5 -125t-20 -192.5t-6 -274t6 -274t20 -193t31.5 -125.5t46.5 -72t57.5 -32.5t72.5 -8v-223q-77 0 -135.5 10.5t-113 37.5t-93 73 t-71 116t-51.5 167.5t-29.5 227.5t-10.5 296z" />
<glyph unicode=")" horiz-adv-x="702" d="M41 4q44 0 72.5 8t57.5 33t46 72t31 125t20 193t6 274t-6 274t-20 192.5t-31 125t-46 72t-57.5 32.5t-72.5 8v223q77 0 135.5 -10.5t113 -37.5t93 -72.5t71 -115.5t51.5 -167.5t29.5 -227.5t10.5 -296t-10.5 -296t-29.5 -227.5t-51.5 -167.5t-71 -116t-93 -73t-113 -37.5 t-135.5 -10.5v223z" />
<glyph unicode="*" horiz-adv-x="1071" d="M72 532l297 136l-297 133l116 200l263 -186l-31 320h231l-33 -322l265 188l116 -200l-297 -133l297 -136l-116 -200l-265 190l33 -323h-231l31 321l-263 -188z" />
<glyph unicode="+" d="M98 559v215h338v361h246v-361h338v-215h-338v-360h-246v360h-338z" />
<glyph unicode="," horiz-adv-x="585" d="M150 0v287h286v-287q0 -113 -71 -181.5t-215 -72.5v125q143 6 143 129h-143z" />
<glyph unicode="-" horiz-adv-x="856" d="M98 553v227h660v-227h-660z" />
<glyph unicode="." horiz-adv-x="585" d="M150 0v287h286v-287h-286z" />
<glyph unicode="/" horiz-adv-x="942" d="M0 -190l672 1794h270l-672 -1794h-270z" />
<glyph unicode="0" horiz-adv-x="1171" d="M94 717q0 231 37 375t115 233q118 133 340 133t340 -133q78 -89 114.5 -233t36.5 -375t-36.5 -375t-114.5 -233q-119 -134 -340 -134t-340 134q-78 89 -115 233t-37 375zM371 717q0 -189 14.5 -290t50.5 -153q54 -71 150 -71q95 0 149 71q36 52 51 153.5t15 289.5 t-15 289t-51 153q-54 72 -149 72q-96 0 -150 -72q-36 -52 -50.5 -152.5t-14.5 -289.5z" />
<glyph unicode="1" horiz-adv-x="1171" d="M231 1022v250l355 162h235v-1434h-276v1165z" />
<glyph unicode="2" horiz-adv-x="1171" d="M127 977v49q0 121 52 217.5t157.5 155.5t247.5 59q143 0 248 -59t156.5 -155.5t51.5 -217.5q0 -109 -30 -181.5t-111 -166.5l-393 -451h555v-227h-914v207l523 604q51 60 72.5 108t21.5 107q0 96 -47 150.5t-133 54.5q-85 0 -133 -54t-48 -151v-49h-276z" />
<glyph unicode="3" horiz-adv-x="1171" d="M100 406v32h279v-18q0 -102 55 -159.5t146 -57.5q92 0 147 57t55 160q0 112 -57 169.5t-160 57.5h-133v221h133q81 0 129.5 48t48.5 137q0 83 -44.5 130.5t-118.5 47.5t-119 -48t-45 -130v-15h-273v35q0 169 118 277t319 108q202 0 319 -107.5t117 -277.5 q0 -115 -58.5 -197.5t-156.5 -113.5q123 -32 190.5 -124.5t67.5 -231.5q0 -196 -132 -313.5t-347 -117.5q-214 0 -347 118t-133 313z" />
<glyph unicode="4" horiz-adv-x="1171" d="M84 283v227l549 924h299v-924h153v-227h-153v-283h-277v283h-571zM344 510h311v524z" />
<glyph unicode="5" horiz-adv-x="1171" d="M127 395h276q9 -94 58 -143t131 -49q91 0 140.5 63.5t49.5 188.5q0 122 -47.5 188t-142.5 66q-100 0 -150 -84h-266l37 809h770v-228h-514l-18 -370q28 44 83.5 69t127.5 25q180 0 288.5 -122t108.5 -357q0 -224 -123.5 -350t-343.5 -126q-209 0 -331.5 112t-133.5 308z " />
<glyph unicode="6" horiz-adv-x="1171" d="M115 668q0 419 115.5 604.5t369.5 185.5q186 0 302 -96.5t136 -274.5h-278q-19 150 -162 150q-104 0 -151 -102.5t-52 -329.5q33 58 98.5 91.5t153.5 33.5q184 0 302 -128t118 -347q0 -220 -130.5 -350t-340.5 -130q-256 0 -379 189q-58 87 -80 208t-22 296zM393 455 q0 -119 53 -185.5t146 -66.5q94 0 146.5 66t52.5 186q0 121 -52.5 187.5t-146.5 66.5q-93 0 -146 -66.5t-53 -187.5z" />
<glyph unicode="7" horiz-adv-x="1171" d="M131 1206v228h909v-205l-458 -1229h-287l465 1206h-629z" />
<glyph unicode="8" horiz-adv-x="1171" d="M86 406q0 132 66 222t186 134q-94 35 -151.5 120.5t-57.5 192.5q0 167 123.5 275t333.5 108t333 -108t123 -275q0 -107 -57 -192.5t-151 -120.5q120 -44 185.5 -134t65.5 -222q0 -196 -137.5 -313.5t-361.5 -117.5t-362 118t-138 313zM362 426q0 -103 61.5 -163 t162.5 -60t162 60t61 163q0 105 -61 165t-162 60t-162.5 -60.5t-61.5 -164.5zM401 1051q0 -83 50 -132t135 -49t134.5 49t49.5 132q0 82 -50 131t-134 49q-85 0 -135 -49t-50 -131z" />
<glyph unicode="9" horiz-adv-x="1171" d="M104 979q0 220 130.5 349.5t340.5 129.5q257 0 379 -188q58 -87 80.5 -208.5t22.5 -295.5q0 -419 -116 -605t-370 -186q-186 0 -302 96.5t-136 274.5h279q19 -149 161 -149q104 0 151 102.5t52 329.5q-33 -58 -98.5 -91.5t-153.5 -33.5q-184 0 -302 128t-118 347z M381 979q0 -121 52.5 -187.5t146.5 -66.5q93 0 145.5 66.5t52.5 187.5q0 119 -52.5 185.5t-145.5 66.5q-94 0 -146.5 -66t-52.5 -186z" />
<glyph unicode=":" horiz-adv-x="585" d="M150 0v287h286v-287h-286zM150 737v287h286v-287h-286z" />
<glyph unicode=";" horiz-adv-x="585" d="M150 0v287h286v-287q0 -113 -71 -181.5t-215 -72.5v125q143 6 143 129h-143zM150 737v287h286v-287h-286z" />
<glyph unicode="&#x3c;" d="M115 561v213l889 369v-242l-601 -233l601 -234v-241z" />
<glyph unicode="=" d="M98 365v215h922v-215h-922zM98 754v215h922v-215h-922z" />
<glyph unicode="&#x3e;" d="M115 193v241l600 234l-600 233v242l889 -369v-213z" />
<glyph unicode="?" horiz-adv-x="1097" d="M109 1036v15q0 183 114.5 295t321.5 112q206 0 321 -112t115 -295q0 -118 -40.5 -199t-133.5 -164q-82 -72 -110.5 -123t-28.5 -125v-55h-271v78q0 111 37.5 184t138.5 162q79 70 108.5 120t29.5 118q0 88 -45 136t-121 48q-78 0 -123 -52.5t-45 -142.5h-268zM397 0v250 h271v-250h-271z" />
<glyph unicode="@" horiz-adv-x="1560" d="M139 535q0 336 65.5 537.5t205 293.5t370.5 92t370.5 -92t205 -292.5t65.5 -534.5q0 -253 -113 -388t-323 -135q-205 0 -311.5 127t-106.5 349q0 229 99.5 350t271.5 121q93 0 155 -34t87 -95q-25 237 -116.5 333.5t-283.5 96.5q-94 0 -159 -20t-115.5 -68t-79 -132.5 t-43 -208t-14.5 -300.5q0 -182 16.5 -310t46.5 -209.5t82.5 -128t114 -63.5t151.5 -17q131 0 224 52l67 -178q-127 -68 -293 -68q-123 0 -216.5 24t-176 85.5t-134.5 164.5t-82 265.5t-30 382.5zM809 489q0 -140 45.5 -205t144.5 -65q101 0 147 65t46 205q0 139 -46 205 t-147 66q-99 0 -144.5 -66t-45.5 -205z" />
<glyph unicode="A" horiz-adv-x="1277" d="M18 0l461 1434h320l461 -1434h-293l-82 283h-494l-80 -283h-293zM459 518h358l-178 627z" />
<glyph unicode="B" horiz-adv-x="1255" d="M137 0v1434h547q227 0 342 -99t115 -291q0 -112 -54 -187.5t-153 -108.5q115 -31 181.5 -120t66.5 -214q0 -204 -116.5 -309t-348.5 -105h-580zM422 240h248q117 0 171 43.5t54 144.5t-54 144.5t-171 43.5h-248v-376zM422 854h215q113 0 167 38t54 132t-54 132t-167 38 h-215v-340z" />
<glyph unicode="C" horiz-adv-x="1318" d="M98 717q0 366 133 545q144 196 441 196q252 0 399.5 -138t159.5 -374h-285q-8 128 -78.5 200.5t-195.5 72.5q-146 0 -215 -105q-39 -58 -56.5 -149t-17.5 -248t17.5 -248.5t56.5 -149.5q69 -104 215 -104q126 0 196 72t78 200h285q-12 -236 -159.5 -374t-399.5 -138 q-296 0 -441 197q-133 179 -133 545z" />
<glyph unicode="D" horiz-adv-x="1327" d="M137 0v1434h531q99 0 180 -20.5t138.5 -55.5t101 -88.5t70 -112.5t43 -134t22.5 -147.5t6 -158.5t-6 -158.5t-22.5 -147.5t-43 -134t-70 -112.5t-101 -88.5t-138.5 -55.5t-180 -20.5h-531zM422 240h227q108 0 170.5 42.5t93.5 146.5t31 288t-31 288t-93.5 146.5 t-170.5 42.5h-227v-954z" />
<glyph unicode="E" d="M137 0v1434h883v-240h-598v-340h524v-240h-524v-374h608v-240h-893z" />
<glyph unicode="F" horiz-adv-x="1069" d="M137 0v1434h873v-240h-588v-360h524v-240h-524v-594h-285z" />
<glyph unicode="G" horiz-adv-x="1351" d="M98 717q0 366 133 545q144 196 441 196q252 0 399.5 -138t159.5 -374h-285q-8 128 -78.5 200.5t-195.5 72.5q-146 0 -215 -105q-39 -58 -56.5 -149t-17.5 -248q0 -146 17.5 -243.5t55 -154.5t89.5 -80.5t129 -23.5q139 0 204.5 84.5t75.5 241.5h-274v217h549v-758h-205 l-35 170q-39 -90 -128.5 -142.5t-215.5 -52.5q-123 0 -218.5 40t-156.5 108t-100.5 164.5t-55.5 201.5t-16 228z" />
<glyph unicode="H" horiz-adv-x="1302" d="M137 0v1434h285v-580h459v580h284v-1434h-284v614h-459v-614h-285z" />
<glyph unicode="I" horiz-adv-x="559" d="M137 0v1434h285v-1434h-285z" />
<glyph unicode="J" horiz-adv-x="1114" d="M37 444v19h285q3 -132 49.5 -190t138.5 -58q95 0 141.5 62t46.5 204v953h285v-990q0 -226 -122.5 -347.5t-350.5 -121.5t-350.5 121.5t-122.5 347.5z" />
<glyph unicode="K" horiz-adv-x="1247" d="M137 0v1434h285v-580h131l330 580h307l-408 -699l465 -735h-311l-383 614h-131v-614h-285z" />
<glyph unicode="L" horiz-adv-x="1060" d="M137 0v1434h285v-1194h608v-240h-893z" />
<glyph unicode="M" horiz-adv-x="1732" d="M137 0v1434h295l434 -1135l434 1135h295v-1434h-278v862l-330 -862h-242l-329 862v-862h-279z" />
<glyph unicode="N" horiz-adv-x="1323" d="M137 0v1434h291l473 -942v942h285v-1434h-291l-473 940v-940h-285z" />
<glyph unicode="O" horiz-adv-x="1343" d="M98 717q0 366 133 545q144 196 441 196q296 0 440 -196q133 -179 133 -545t-133 -545q-145 -197 -440 -197q-296 0 -441 197q-133 179 -133 545zM383 717q0 -157 17.5 -248.5t56.5 -149.5q69 -104 215 -104t215 104q39 58 56.5 149.5t17.5 248.5t-17.5 248t-56.5 149 q-69 105 -215 105t-215 -105q-39 -58 -56.5 -149t-17.5 -248z" />
<glyph unicode="P" horiz-adv-x="1239" d="M137 0v1434h576q222 0 344.5 -121t122.5 -340t-122.5 -340t-344.5 -121h-291v-512h-285zM422 752h252q221 0 221 221t-221 221h-252v-442z" />
<glyph unicode="Q" horiz-adv-x="1343" d="M98 717q0 366 133 545q144 196 441 196q296 0 440 -196q133 -179 133 -545q0 -315 -96 -488l162 -135l-148 -170l-164 139q-130 -88 -327 -88q-296 0 -441 197q-133 179 -133 545zM383 717q0 -157 17.5 -248.5t56.5 -149.5q69 -104 215 -104q64 0 121 23l-166 143 l147 170l158 -135q29 102 29 301q0 157 -17.5 248t-56.5 149q-69 105 -215 105t-215 -105q-39 -58 -56.5 -149t-17.5 -248z" />
<glyph unicode="R" horiz-adv-x="1284" d="M137 0v1434h582q225 0 344 -115.5t119 -323.5q0 -143 -65 -234.5t-193 -125.5q116 -15 170 -88t63 -217l12 -199q6 -81 27 -131h-289q-19 49 -22 129l-11 180q-6 111 -57.5 157t-171.5 46h-223v-512h-285zM422 752h248q110 0 167.5 52t57.5 169t-57.5 169t-167.5 52h-248 v-442z" />
<glyph unicode="S" horiz-adv-x="1200" d="M96 1047q0 177 129 294t359 117q228 0 357.5 -117t129.5 -290v-21h-285v21q0 78 -53 125t-149 47q-98 0 -150.5 -47t-52.5 -125q0 -76 47.5 -118.5t151.5 -64.5l161 -32q187 -37 285 -144t98 -282q0 -195 -136 -315t-376 -120q-239 0 -376.5 119t-137.5 312v26h285v-31 q0 -87 61.5 -139.5t167.5 -52.5q105 0 166.5 52.5t61.5 139.5q0 157 -199 197l-162 33q-383 76 -383 416z" />
<glyph unicode="T" horiz-adv-x="1107" d="M29 1194v240h1050v-240h-383v-1194h-284v1194h-383z" />
<glyph unicode="U" horiz-adv-x="1343" d="M127 530v904h285v-885q0 -168 63.5 -251t196.5 -83t196.5 83t63.5 251v885h285v-904q0 -259 -138 -407t-407 -148t-407 148t-138 407z" />
<glyph unicode="V" horiz-adv-x="1277" d="M18 1434h293l328 -1125l328 1125h293l-461 -1434h-320z" />
<glyph unicode="W" horiz-adv-x="1957" d="M29 1434h290l250 -1063l275 1063h270l275 -1063l249 1063h291l-373 -1434h-311l-266 1026l-266 -1026h-312z" />
<glyph unicode="X" horiz-adv-x="1261" d="M29 0l420 741l-390 693h308l264 -512l264 512h307l-389 -693l420 -741h-307l-295 557l-295 -557h-307z" />
<glyph unicode="Y" horiz-adv-x="1259" d="M31 1434h297l301 -623l303 623h297l-457 -869v-565h-285v565z" />
<glyph unicode="Z" horiz-adv-x="1122" d="M78 0v219l610 975h-590v240h936v-220l-610 -974h620v-240h-966z" />
<glyph unicode="[" horiz-adv-x="727" d="M158 -190v1794h489v-222h-219v-1351h219v-221h-489z" />
<glyph unicode="\" horiz-adv-x="942" d="M0 1604h270l672 -1794h-270z" />
<glyph unicode="]" horiz-adv-x="727" d="M80 31h219v1351h-219v222h489v-1794h-489v221z" />
<glyph unicode="^" horiz-adv-x="913" d="M41 948l303 486h225l303 -486h-258l-157 264l-158 -264h-258z" />
<glyph unicode="_" horiz-adv-x="1024" d="M0 -205h1024v-147h-1024v147z" />
<glyph unicode="`" horiz-adv-x="802" d="M156 1495h295l196 -330h-233z" />
<glyph unicode="a" horiz-adv-x="1105" d="M78 299q0 153 98 239.5t266 86.5q101 0 176 -37.5t101 -104.5v185q0 172 -166 172q-73 0 -114.5 -32.5t-49.5 -94.5h-270q12 157 122.5 246.5t311.5 89.5q214 0 325 -104t111 -281v-519q0 -86 27 -145h-277q-17 42 -20 117q-24 -64 -97 -103t-180 -39q-167 0 -265.5 86 t-98.5 238zM348 299q0 -135 187 -135q186 0 186 135q0 137 -186 137q-187 0 -187 -137z" />
<glyph unicode="b" horiz-adv-x="1144" d="M117 0v1434h270v-568q28 84 102.5 133.5t178.5 49.5q187 0 291 -133.5t104 -403.5t-104 -403.5t-291 -133.5q-104 0 -178.5 49.5t-102.5 133.5v-158h-270zM387 512q0 -165 47 -244.5t156 -79.5t156 79.5t47 244.5t-47 244.5t-156 79.5t-156 -79.5t-47 -244.5z" />
<glyph unicode="c" horiz-adv-x="1085" d="M82 512q0 256 119 396.5t354 140.5q204 0 325 -98.5t134 -278.5h-271q-8 80 -56 122t-132 42q-109 0 -156 -79.5t-47 -244.5t47 -244.5t156 -79.5q84 0 132 42t56 122h271q-13 -180 -134 -278.5t-325 -98.5q-235 0 -354 140.5t-119 396.5z" />
<glyph unicode="d" horiz-adv-x="1144" d="M82 512q0 270 104 403.5t291 133.5q104 0 178.5 -49.5t102.5 -133.5v568h270v-1434h-270v158q-28 -84 -102.5 -133.5t-178.5 -49.5q-187 0 -291 133.5t-104 403.5zM352 512q0 -165 47 -244.5t156 -79.5t156 79.5t47 244.5t-47 244.5t-156 79.5t-156 -79.5t-47 -244.5z " />
<glyph unicode="e" horiz-adv-x="1110" d="M82 512q0 256 119 396.5t354 140.5t354 -140.5t119 -396.5q0 -51 -2 -76h-672q3 -256 201 -256q72 0 118 34t58 97h275q-25 -159 -144 -247.5t-307 -88.5q-235 0 -354 140.5t-119 396.5zM356 612h396q-4 114 -54.5 173t-142.5 59q-94 0 -144 -59t-55 -173z" />
<glyph unicode="f" horiz-adv-x="759" d="M55 811v213h148v109q0 168 85 241.5t279 73.5q98 0 154 -10v-203h-111q-77 0 -107 -27t-30 -92v-92h248v-213h-248v-811h-270v811h-148z" />
<glyph unicode="g" horiz-adv-x="1144" d="M82 512q0 270 104 403.5t291 133.5q104 0 178.5 -49.5t102.5 -133.5v158h270v-1061q0 -93 -27.5 -171.5t-82 -138.5t-142.5 -94t-201 -34q-189 0 -303.5 86t-136.5 237h273q7 -62 52.5 -94.5t117.5 -32.5q88 0 134 56t46 166v215q-28 -84 -102.5 -133.5t-178.5 -49.5 q-187 0 -291 133.5t-104 403.5zM352 512q0 -165 47 -244.5t156 -79.5t156 79.5t47 244.5t-47 244.5t-156 79.5t-156 -79.5t-47 -244.5z" />
<glyph unicode="h" horiz-adv-x="1130" d="M117 0v1434h270v-582q28 91 104 144t185 53q165 0 253.5 -103t88.5 -299v-647h-270v643q0 193 -154 193q-94 0 -150.5 -68.5t-56.5 -192.5v-575h-270z" />
<glyph unicode="i" horiz-adv-x="524" d="M127 0v1024h270v-1024h-270zM127 1192v242h270v-242h-270z" />
<glyph unicode="j" horiz-adv-x="524" d="M-80 -233h78q66 0 97.5 35t31.5 108v1114h270v-1141q0 -162 -90.5 -245.5t-269.5 -83.5q-77 0 -117 6v207zM127 1192v242h270v-242h-270z" />
<glyph unicode="k" horiz-adv-x="1040" d="M117 0v1434h270v-799h86l225 389h287l-295 -492l340 -532h-293l-266 432h-84v-432h-270z" />
<glyph unicode="l" horiz-adv-x="524" d="M127 0v1434h270v-1434h-270z" />
<glyph unicode="m" horiz-adv-x="1732" d="M117 0v1024h270v-172q28 92 100.5 144.5t180.5 52.5q111 0 190.5 -52t114.5 -149q89 201 311 201q162 0 249 -104t87 -298v-647h-270v655q0 181 -146 181q-93 0 -146.5 -68t-53.5 -193v-575h-271v655q0 181 -145 181q-93 0 -147 -68t-54 -193v-575h-270z" />
<glyph unicode="n" horiz-adv-x="1130" d="M117 0v1024h270v-172q28 91 104 144t185 53q165 0 253.5 -103t88.5 -299v-647h-270v643q0 193 -154 193q-94 0 -150.5 -68.5t-56.5 -192.5v-575h-270z" />
<glyph unicode="o" horiz-adv-x="1110" d="M82 512q0 256 119 396.5t354 140.5t354 -140.5t119 -396.5t-119 -396.5t-354 -140.5t-354 140.5t-119 396.5zM352 512q0 -165 47 -244.5t156 -79.5t156 79.5t47 244.5t-47 244.5t-156 79.5t-156 -79.5t-47 -244.5z" />
<glyph unicode="p" horiz-adv-x="1144" d="M117 -446v1470h270v-158q28 84 102.5 133.5t178.5 49.5q187 0 291 -133.5t104 -403.5t-104 -403.5t-291 -133.5q-104 0 -178.5 49.5t-102.5 133.5v-604h-270zM387 512q0 -165 47 -244.5t156 -79.5t156 79.5t47 244.5t-47 244.5t-156 79.5t-156 -79.5t-47 -244.5z" />
<glyph unicode="q" horiz-adv-x="1144" d="M82 512q0 270 104 403.5t291 133.5q104 0 178.5 -49.5t102.5 -133.5v158h270v-1470h-270v604q-28 -84 -102.5 -133.5t-178.5 -49.5q-187 0 -291 133.5t-104 403.5zM352 512q0 -165 47 -244.5t156 -79.5t156 79.5t47 244.5t-47 244.5t-156 79.5t-156 -79.5t-47 -244.5z " />
<glyph unicode="r" horiz-adv-x="765" d="M117 0v1024h270v-188q25 107 90.5 160t179.5 53q50 0 80 -9l-4 -219q-32 4 -84 4q-126 0 -194 -79t-68 -230v-516h-270z" />
<glyph unicode="s" horiz-adv-x="999" d="M84 295v20h268v-26q0 -54 41.5 -85.5t112.5 -31.5q70 0 110.5 31.5t40.5 83.5t-31 80t-106 41l-102 18q-168 30 -250 105t-82 206q0 138 107.5 225t291.5 87q188 0 294 -84.5t106 -221.5v-18h-269v20q0 46 -34 75.5t-97 29.5q-61 0 -95 -28t-34 -74q0 -47 33 -73t107 -40 l102 -19q174 -32 251 -107.5t77 -213.5q0 -140 -114.5 -230t-307.5 -90q-195 0 -307.5 90t-112.5 230z" />
<glyph unicode="t" horiz-adv-x="798" d="M47 811v213h148v291h270v-291h266v-213h-266v-471q0 -86 33.5 -114.5t128.5 -28.5h104v-205q-55 -6 -166 -6q-201 0 -285.5 69.5t-84.5 241.5v514h-148z" />
<glyph unicode="u" horiz-adv-x="1130" d="M113 377v647h270v-643q0 -193 154 -193q94 0 150 68.5t56 192.5v575h271v-1024h-271v172q-28 -91 -104 -144t-184 -53q-165 0 -253.5 103t-88.5 299z" />
<glyph unicode="v" horiz-adv-x="1077" d="M29 1024h278l232 -743l231 743h279l-363 -1024h-295z" />
<glyph unicode="w" horiz-adv-x="1671" d="M29 1024h274l201 -727l213 727h237l213 -727l201 727h274l-325 -1024h-275l-206 709l-207 -709h-275z" />
<glyph unicode="x" horiz-adv-x="1011" d="M20 0l318 526l-297 498h285l180 -334l180 334h285l-297 -498l317 -526h-284l-201 360l-201 -360h-285z" />
<glyph unicode="y" horiz-adv-x="1079" d="M29 1024h278l236 -707l229 707h279l-422 -1182q-61 -170 -138 -229t-221 -59q-83 0 -114 4v206h75q49 0 82.5 24.5t55.5 86.5l43 121z" />
<glyph unicode="z" horiz-adv-x="950" d="M70 0v193l460 618h-444v213h780v-193l-460 -618h475v-213h-811z" />
<glyph unicode="{" horiz-adv-x="753" d="M78 596v221h41q62 0 92.5 38.5t30.5 105.5v282q0 190 79.5 275.5t266.5 85.5h88v-222h-41q-61 0 -92 -37t-31 -106v-315q0 -173 -150 -217q150 -44 150 -218v-315q0 -68 31 -105.5t92 -37.5h41v-221h-88q-187 0 -266.5 85t-79.5 275v283q0 67 -30.5 105t-92.5 38h-41z " />
<glyph unicode="|" horiz-adv-x="659" d="M195 -190v1794h270v-1794h-270z" />
<glyph unicode="}" horiz-adv-x="753" d="M78 31h41q61 0 92 37.5t31 105.5v315q0 174 149 218q-149 44 -149 217v315q0 69 -31 106t-92 37h-41v222h88q187 0 266.5 -85.5t79.5 -275.5v-282q0 -67 30.5 -105.5t92.5 -38.5h41v-221h-41q-62 0 -92.5 -38t-30.5 -105v-283q0 -190 -79.5 -275t-266.5 -85h-88v221z" />
<glyph unicode="~" d="M117 512q0 150 64 238t192 88q59 0 109 -17.5t77.5 -38t60.5 -38t62 -17.5q73 0 76 98h243q0 -149 -64 -237t-192 -88q-59 0 -109 17t-77.5 38t-60.5 38t-62 17q-73 0 -76 -98h-243z" />
<glyph unicode="&#xa1;" horiz-adv-x="655" d="M193 -182l24 788h221l25 -788v-228h-270v228zM193 774v250h270v-250h-270z" />
<glyph unicode="&#xa2;" horiz-adv-x="1079" d="M82 508q0 232 98.5 368.5t294.5 159.5v170h148v-170q172 -17 272.5 -113t112.5 -257h-269q-12 122 -116 153v-624q104 31 116 155h269q-12 -162 -113 -258.5t-272 -111.5v-162h-148v162q-196 23 -294.5 159t-98.5 369zM350 508q0 -132 29 -208.5t96 -100.5v618 q-67 -25 -96 -101t-29 -208z" />
<glyph unicode="&#xa3;" horiz-adv-x="1107" d="M98 561v189h111q-64 143 -64 301q0 175 116 291t319 116t318.5 -116t115.5 -291v-45h-285v43q0 170 -149 170q-75 0 -112.5 -45t-37.5 -125q0 -61 6 -109t12.5 -70.5t18.5 -54.5q21 -53 25 -65h309v-189h-287q-3 -195 -147 -321h663v-240h-926v215q58 67 94.5 160.5 t37.5 185.5h-138z" />
<glyph unicode="&#xa5;" horiz-adv-x="1259" d="M31 1434h297l301 -580l303 580h297l-385 -660h205v-143h-277v-101h277v-143h-277v-387h-285v387h-276v143h276v101h-276v143h203z" />
<glyph unicode="&#xa7;" horiz-adv-x="1019" d="M82 571q0 87 39 158t112 117q-135 90 -135 274q0 154 109 246t291 92q179 0 289 -91.5t110 -238.5v-20h-266v18q0 58 -37.5 92.5t-95.5 34.5q-62 0 -97.5 -33.5t-35.5 -93.5t36.5 -95t124.5 -58q60 -16 103.5 -30t89 -33t76.5 -40t60 -50t46 -63.5t27 -79.5t10 -99 q0 -86 -39.5 -157.5t-112.5 -117.5q136 -90 136 -274q0 -154 -109 -246t-291 -92q-179 0 -289 91t-110 238v21h266v-18q0 -58 37.5 -92.5t95.5 -34.5q62 0 97.5 33.5t35.5 93.5t-36.5 95t-124.5 58q-60 16 -103.5 30t-89 33t-76.5 40t-60 50t-46 63.5t-27 79.5t-10 99z M346 592q0 -74 37 -115.5t123 -64.5q15 -5 74 -19q94 49 94 164q0 74 -37 115.5t-123 64.5q-13 4 -37.5 10.5t-36.5 10.5v-2q-94 -49 -94 -164z" />
<glyph unicode="&#xa8;" horiz-adv-x="802" d="M78 1192v264h258v-264h-258zM467 1192v264h258v-264h-258z" />
<glyph unicode="&#xa9;" horiz-adv-x="1544" d="M92 717q0 368 178.5 554.5t501.5 186.5t501.5 -186.5t178.5 -554.5t-178.5 -555t-501.5 -187t-501.5 187t-178.5 555zM207 717q0 -315 142 -475t423 -160t423 160t142 475t-142 475t-423 160t-423 -160t-142 -475zM428 717q0 -144 24 -226.5t80 -138.5q80 -80 242 -80 q160 0 240 80q83 80 100 228h-209q-6 -52 -26 -88q-34 -54 -105 -54q-70 0 -104 54q-19 31 -27 80.5t-8 144.5t8 144.5t27 80.5q33 53 104 53q72 0 105 -53q20 -36 26 -88h209q-17 147 -100 227q-80 80 -240 80q-162 0 -242 -80q-56 -56 -80 -138t-24 -226z" />
<glyph unicode="&#xaa;" horiz-adv-x="856" d="M78 901q0 112 70.5 175t185.5 63q73 0 123 -25.5t71 -69.5v144q0 96 -94 96q-41 0 -64 -22t-26 -62h-227q9 118 90 184t227 66q152 0 236 -71.5t84 -192.5v-400q0 -54 16 -104h-227q-15 27 -15 76q-45 -94 -194 -94q-116 0 -186 62t-70 175zM299 901q0 -78 115 -78 q114 0 114 78q0 38 -30 58t-84 20q-55 0 -85 -20t-30 -58z" />
<glyph unicode="&#xab;" horiz-adv-x="1103" d="M78 551v176l463 274v-221l-258 -141l258 -141v-222zM563 551v176l463 274v-221l-258 -141l258 -141v-222z" />
<glyph unicode="&#xac;" d="M98 559v215h922v-526h-246v311h-676z" />
<glyph unicode="&#xad;" horiz-adv-x="856" d="M98 553v227h660v-227h-660z" />
<glyph unicode="&#xae;" horiz-adv-x="1544" d="M92 717q0 368 178.5 554.5t501.5 186.5t501.5 -186.5t178.5 -554.5t-178.5 -555t-501.5 -187t-501.5 187t-178.5 555zM207 717q0 -315 142 -475t423 -160t423 160t142 475t-142 475t-423 160t-423 -160t-142 -475zM465 289v856h350q143 0 223 -69.5t80 -205.5 q0 -86 -40 -141t-113 -76q69 -7 101 -51t38 -131l8 -104q3 -51 14 -78h-215q-9 26 -12 76l-6 96q-5 65 -34 93t-93 28h-92v-293h-209zM674 737h108q127 0 127 125q0 127 -127 127h-108v-252z" />
<glyph unicode="&#xaf;" horiz-adv-x="802" d="M102 1223v207h598v-207h-598z" />
<glyph unicode="&#xb0;" horiz-adv-x="737" d="M78 1165q0 125 80 205t211 80q130 0 210 -80t80 -205t-79.5 -204.5t-210.5 -79.5t-211 80t-80 204zM264 1165q0 -51 30 -81.5t75 -30.5t74.5 30.5t29.5 81.5t-29.5 82t-74.5 31t-75 -31t-30 -82z" />
<glyph unicode="&#xb1;" d="M98 0v213h922v-213h-922zM98 635v213h338v338h246v-338h338v-213h-338v-338h-246v338h-338z" />
<glyph unicode="&#xb4;" horiz-adv-x="802" d="M156 1165l196 330h295l-258 -330h-233z" />
<glyph unicode="&#xb5;" horiz-adv-x="1134" d="M117 -446v1470h270v-643q0 -193 154 -193q94 0 150.5 68.5t56.5 192.5v575h270v-1024h-270v170q-25 -90 -83.5 -142.5t-134.5 -52.5q-49 0 -87 26t-56 67v-514h-270z" />
<glyph unicode="&#xb6;" horiz-adv-x="1204" d="M88 985v14q0 205 111 320t307 115h541v-1702h-185v1528h-92v-1528h-184v815h-56q-195 0 -318.5 117.5t-123.5 320.5z" />
<glyph unicode="&#xb7;" horiz-adv-x="585" d="M150 524v287h286v-287h-286z" />
<glyph unicode="&#xb8;" horiz-adv-x="802" d="M150 -414l69 133q64 -49 146 -49q84 0 84 60q0 63 -101 63q-48 0 -78 -10l-34 43l81 174h189l-45 -92q90 -7 141 -57t51 -127q0 -96 -71 -153.5t-193 -57.5q-147 0 -239 73z" />
<glyph unicode="&#xba;" horiz-adv-x="856" d="M78 1057q0 216 108 313q86 80 242 80t242 -80q108 -97 108 -313q0 -217 -108 -314q-85 -79 -242 -79t-242 79q-108 97 -108 314zM303 1057q0 -131 33 -180q30 -43 92 -43t92 43q33 49 33 180t-33 180q-30 43 -92 43t-92 -43q-33 -49 -33 -180z" />
<glyph unicode="&#xbb;" horiz-adv-x="1103" d="M78 276v222l258 141l-258 141v221l463 -274v-176zM563 276v222l258 141l-258 141v221l463 -274v-176z" />
<glyph unicode="&#xbf;" horiz-adv-x="1097" d="M117 -27q0 118 40.5 199t133.5 164q82 72 110.5 123t28.5 125v55h270v-78q0 -111 -37.5 -184t-138.5 -162q-79 -70 -108 -120t-29 -118q0 -88 45 -136t121 -48q78 0 123 52.5t45 142.5h268v-15q0 -183 -114.5 -295t-321.5 -112q-206 0 -321 112t-115 295zM430 774v250 h270v-250h-270z" />
<glyph unicode="&#xc0;" horiz-adv-x="1277" d="M6 0l461 1434h319l461 -1434h-293l-82 283h-493l-80 -283h-293zM334 1892h295l196 -329h-233zM446 518h359l-178 627z" />
<glyph unicode="&#xc1;" horiz-adv-x="1277" d="M6 0l461 1434h319l461 -1434h-293l-82 283h-493l-80 -283h-293zM446 518h359l-178 627zM453 1563l196 329h295l-258 -329h-233z" />
<glyph unicode="&#xc2;" horiz-adv-x="1277" d="M6 0l461 1434h319l461 -1434h-293l-82 283h-493l-80 -283h-293zM289 1563l239 329h222l239 -329h-227l-123 153l-123 -153h-227zM446 518h359l-178 627z" />
<glyph unicode="&#xc3;" horiz-adv-x="1277" d="M6 0l461 1434h319l461 -1434h-293l-82 283h-493l-80 -283h-293zM299 1595q0 269 201 269q42 0 78.5 -13.5t56 -29.5t41 -29.5t37.5 -13.5q45 0 45 69h221q0 -268 -201 -268q-42 0 -78.5 13.5t-56 29.5t-41 29.5t-37.5 13.5q-45 0 -45 -70h-221zM446 518h359l-178 627z " />
<glyph unicode="&#xc4;" horiz-adv-x="1277" d="M6 0l461 1434h319l461 -1434h-293l-82 283h-493l-80 -283h-293zM315 1589v264h258v-264h-258zM446 518h359l-178 627zM705 1589v264h258v-264h-258z" />
<glyph unicode="&#xc5;" horiz-adv-x="1277" d="M6 0l461 1434h319l461 -1434h-293l-82 283h-493l-80 -283h-293zM414 1726q0 100 63 158t162 58t162 -58t63 -158t-63 -157.5t-162 -57.5t-162 57.5t-63 157.5zM446 518h359l-178 627zM569 1726q0 -35 19 -55t51 -20t51 20t19 55t-19 55.5t-51 20.5t-51 -20.5t-19 -55.5z " />
<glyph unicode="&#xc6;" horiz-adv-x="1849" d="M-29 0l717 1434h1063v-240h-598v-340h524v-240h-524v-374h608v-240h-893v283h-436l-135 -283h-326zM547 518h321v668z" />
<glyph unicode="&#xc7;" horiz-adv-x="1318" d="M98 717q0 366 133 545q144 196 441 196q252 0 399.5 -138t159.5 -374h-285q-8 128 -78.5 200.5t-195.5 72.5q-146 0 -215 -105q-39 -58 -56.5 -149t-17.5 -248t17.5 -248.5t56.5 -149.5q69 -104 215 -104q126 0 196 72t78 200h285q-11 -207 -127.5 -339.5t-317.5 -163.5 l-36 -76q90 -7 141 -57t51 -127q0 -96 -71 -153.5t-193 -57.5q-148 0 -240 73l70 133q64 -49 145 -49q84 0 84 60q0 63 -100 63q-48 0 -78 -10l-35 43l72 154q-241 20 -365 192q-133 179 -133 545z" />
<glyph unicode="&#xc8;" d="M137 0v1434h883v-240h-598v-340h524v-240h-524v-374h608v-240h-893zM279 1892h294l197 -329h-233z" />
<glyph unicode="&#xc9;" d="M137 0v1434h883v-240h-598v-340h524v-240h-524v-374h608v-240h-893zM387 1563l197 329h295l-258 -329h-234z" />
<glyph unicode="&#xca;" d="M137 0v1434h883v-240h-598v-340h524v-240h-524v-374h608v-240h-893zM227 1563l240 329h221l240 -329h-228l-122 153l-123 -153h-228z" />
<glyph unicode="&#xcb;" d="M137 0v1434h883v-240h-598v-340h524v-240h-524v-374h608v-240h-893zM254 1589v264h258v-264h-258zM643 1589v264h258v-264h-258z" />
<glyph unicode="&#xcc;" horiz-adv-x="559" d="M-43 1892h295l197 -329h-234zM137 0v1434h285v-1434h-285z" />
<glyph unicode="&#xcd;" horiz-adv-x="559" d="M111 1563l196 329h295l-258 -329h-233zM137 0v1434h285v-1434h-285z" />
<glyph unicode="&#xce;" horiz-adv-x="559" d="M-72 1563l240 329h221l240 -329h-228l-122 153l-123 -153h-228zM137 0v1434h285v-1434h-285z" />
<glyph unicode="&#xcf;" horiz-adv-x="559" d="M-45 1589v264h258v-264h-258zM137 0v1434h285v-1434h-285zM344 1589v264h258v-264h-258z" />
<glyph unicode="&#xd0;" horiz-adv-x="1327" d="M14 623v188h123v623h531q99 0 180 -20.5t138.5 -55.5t101 -88.5t70 -112.5t43 -134t22.5 -147.5t6 -158.5t-6 -158.5t-22.5 -147.5t-43 -134t-70 -112.5t-101 -88.5t-138.5 -55.5t-180 -20.5h-531v623h-123zM422 240h227q108 0 170.5 42.5t93.5 146.5t31 288t-31 288 t-93.5 146.5t-170.5 42.5h-227v-383h217v-188h-217v-383z" />
<glyph unicode="&#xd1;" horiz-adv-x="1323" d="M137 0v1434h291l473 -942v942h285v-1434h-291l-473 940v-940h-285zM322 1595q0 269 200 269q42 0 78.5 -13.5t56 -29.5t41 -29.5t37.5 -13.5q45 0 45 69h221q0 -137 -49.5 -202.5t-150.5 -65.5q-42 0 -78.5 13.5t-56 29.5t-41 29.5t-37.5 13.5q-45 0 -45 -70h-221z" />
<glyph unicode="&#xd2;" horiz-adv-x="1343" d="M98 717q0 366 133 545q144 196 441 196q296 0 440 -196q133 -179 133 -545t-133 -545q-145 -197 -440 -197q-296 0 -441 197q-133 179 -133 545zM365 1892h294l197 -329h-233zM383 717q0 -157 17.5 -248.5t56.5 -149.5q69 -104 215 -104t215 104q39 58 56.5 149.5 t17.5 248.5t-17.5 248t-56.5 149q-69 105 -215 105t-215 -105q-39 -58 -56.5 -149t-17.5 -248z" />
<glyph unicode="&#xd3;" horiz-adv-x="1343" d="M98 717q0 366 133 545q144 196 441 196q296 0 440 -196q133 -179 133 -545t-133 -545q-145 -197 -440 -197q-296 0 -441 197q-133 179 -133 545zM383 717q0 -157 17.5 -248.5t56.5 -149.5q69 -104 215 -104t215 104q39 58 56.5 149.5t17.5 248.5t-17.5 248t-56.5 149 q-69 105 -215 105t-215 -105q-39 -58 -56.5 -149t-17.5 -248zM487 1563l197 329h295l-258 -329h-234z" />
<glyph unicode="&#xd4;" horiz-adv-x="1343" d="M98 717q0 366 133 545q144 196 441 196q296 0 440 -196q133 -179 133 -545t-133 -545q-145 -197 -440 -197q-296 0 -441 197q-133 179 -133 545zM322 1563l239 329h221l240 -329h-227l-123 153l-123 -153h-227zM383 717q0 -157 17.5 -248.5t56.5 -149.5q69 -104 215 -104 t215 104q39 58 56.5 149.5t17.5 248.5t-17.5 248t-56.5 149q-69 105 -215 105t-215 -105q-39 -58 -56.5 -149t-17.5 -248z" />
<glyph unicode="&#xd5;" horiz-adv-x="1343" d="M98 717q0 366 133 545q144 196 441 196q296 0 440 -196q133 -179 133 -545t-133 -545q-145 -197 -440 -197q-296 0 -441 197q-133 179 -133 545zM332 1595q0 269 200 269q42 0 78.5 -13.5t56 -29.5t41 -29.5t37.5 -13.5q46 0 46 69h221q0 -268 -201 -268 q-42 0 -78.5 13.5t-56 29.5t-41 29.5t-37.5 13.5q-45 0 -45 -70h-221zM383 717q0 -157 17.5 -248.5t56.5 -149.5q69 -104 215 -104t215 104q39 58 56.5 149.5t17.5 248.5t-17.5 248t-56.5 149q-69 105 -215 105t-215 -105q-39 -58 -56.5 -149t-17.5 -248z" />
<glyph unicode="&#xd6;" horiz-adv-x="1343" d="M98 717q0 366 133 545q144 196 441 196q296 0 440 -196q133 -179 133 -545t-133 -545q-145 -197 -440 -197q-296 0 -441 197q-133 179 -133 545zM348 1589v264h258v-264h-258zM383 717q0 -157 17.5 -248.5t56.5 -149.5q69 -104 215 -104t215 104q39 58 56.5 149.5 t17.5 248.5t-17.5 248t-56.5 149q-69 105 -215 105t-215 -105q-39 -58 -56.5 -149t-17.5 -248zM737 1589v264h258v-264h-258z" />
<glyph unicode="&#xd8;" horiz-adv-x="1343" d="M98 717q0 366 133 545q144 196 441 196q173 0 291 -65l59 106h188l-120 -211q63 -71 99 -174t46 -193t10 -204q0 -366 -133 -545q-145 -197 -440 -197q-169 0 -291 64l-59 -105h-189l119 209q-86 107 -120 248.5t-34 325.5zM383 717q0 -193 27 -295l426 747 q-65 50 -164 50q-146 0 -215 -105q-39 -58 -56.5 -149t-17.5 -248zM508 262q65 -47 164 -47q146 0 215 104q39 58 56.5 149.5t17.5 248.5q0 183 -29 293z" />
<glyph unicode="&#xd9;" horiz-adv-x="1343" d="M127 530q0 -259 138 -407t407 -148t407 148t138 407v904h-285v-885q0 -168 -63.5 -251t-196.5 -83t-196.5 83t-63.5 251v885h-285v-904zM367 1892h295l196 -329h-233z" />
<glyph unicode="&#xda;" horiz-adv-x="1343" d="M127 530v904h285v-885q0 -168 63.5 -251t196.5 -83t196.5 83t63.5 251v885h285v-904q0 -259 -138 -407t-407 -148t-407 148t-138 407zM485 1563l197 329h295l-258 -329h-234z" />
<glyph unicode="&#xdb;" horiz-adv-x="1343" d="M127 530v904h285v-885q0 -168 63.5 -251t196.5 -83t196.5 83t63.5 251v885h285v-904q0 -259 -138 -407t-407 -148t-407 148t-138 407zM322 1563l239 329h221l240 -329h-227l-123 153l-123 -153h-227z" />
<glyph unicode="&#xdc;" horiz-adv-x="1343" d="M127 530q0 -259 138 -407t407 -148t407 148t138 407v904h-285v-885q0 -168 -63.5 -251t-196.5 -83t-196.5 83t-63.5 251v885h-285v-904zM348 1589v264h258v-264h-258zM737 1589v264h258v-264h-258z" />
<glyph unicode="&#xdd;" horiz-adv-x="1259" d="M31 1434h297l301 -623l303 623h297l-457 -869v-565h-285v565zM451 1563l196 329h295l-258 -329h-233z" />
<glyph unicode="&#xde;" horiz-adv-x="1239" d="M137 0v1434h285v-256h291q222 0 344.5 -121t122.5 -340t-122.5 -340t-344.5 -121h-291v-256h-285zM422 496h252q221 0 221 221t-221 221h-252v-442z" />
<glyph unicode="&#xdf;" horiz-adv-x="1216" d="M117 0v1018q0 194 124 317t357 123q117 0 211 -35t151.5 -94t88 -133t30.5 -156q0 -117 -63 -202.5t-172 -114.5q138 -25 222.5 -116.5t84.5 -246.5q0 -184 -120.5 -284.5t-328.5 -100.5q-97 0 -186 21v237q62 -18 152 -18q92 0 145 43.5t53 122.5q0 107 -74 166t-200 59 h-37v232h51q94 0 141.5 49.5t47.5 140.5q0 85 -52 138t-145 53q-94 0 -145.5 -54t-51.5 -153v-1012h-284z" />
<glyph unicode="&#xe0;" horiz-adv-x="1105" d="M78 299q0 153 98 239.5t266 86.5q101 0 176 -37.5t101 -104.5v185q0 172 -166 172q-73 0 -114.5 -32.5t-49.5 -94.5h-270q12 157 122.5 246.5t311.5 89.5q214 0 325 -104t111 -281v-519q0 -86 27 -145h-277q-17 42 -20 117q-24 -64 -97 -103t-180 -39q-167 0 -265.5 86 t-98.5 238zM266 1485h295l197 -330h-234zM348 299q0 -135 187 -135q186 0 186 135q0 137 -186 137q-187 0 -187 -137z" />
<glyph unicode="&#xe1;" horiz-adv-x="1105" d="M78 299q0 153 98 239.5t266 86.5q101 0 176 -37.5t101 -104.5v185q0 172 -166 172q-73 0 -114.5 -32.5t-49.5 -94.5h-270q12 157 122.5 246.5t311.5 89.5q214 0 325 -104t111 -281v-519q0 -86 27 -145h-277q-17 42 -20 117q-24 -64 -97 -103t-180 -39q-167 0 -265.5 86 t-98.5 238zM348 299q0 -135 187 -135q186 0 186 135q0 137 -186 137q-187 0 -187 -137zM352 1155l197 330h295l-258 -330h-234z" />
<glyph unicode="&#xe2;" horiz-adv-x="1105" d="M78 299q0 153 98 239.5t266 86.5q101 0 176 -37.5t101 -104.5v185q0 172 -166 172q-73 0 -114.5 -32.5t-49.5 -94.5h-270q12 157 122.5 246.5t311.5 89.5q214 0 325 -104t111 -281v-519q0 -86 27 -145h-277q-17 42 -20 117q-24 -64 -97 -103t-180 -39q-167 0 -265.5 86 t-98.5 238zM207 1155l239 330h222l239 -330h-227l-123 154l-123 -154h-227zM348 299q0 -135 187 -135q186 0 186 135q0 137 -186 137q-187 0 -187 -137z" />
<glyph unicode="&#xe3;" horiz-adv-x="1105" d="M78 299q0 153 98 239.5t266 86.5q101 0 176 -37.5t101 -104.5v185q0 172 -166 172q-73 0 -114.5 -32.5t-49.5 -94.5h-270q12 157 122.5 246.5t311.5 89.5q214 0 325 -104t111 -281v-519q0 -86 27 -145h-277q-17 42 -20 117q-24 -64 -97 -103t-180 -39q-167 0 -265.5 86 t-98.5 238zM219 1188q0 268 201 268q42 0 78.5 -13.5t56 -29.5t41 -29.5t37.5 -13.5q45 0 45 70h221q0 -269 -201 -269q-42 0 -78.5 13.5t-56 29.5t-41 29.5t-37.5 13.5q-45 0 -45 -69h-221zM348 299q0 -135 187 -135q186 0 186 135q0 137 -186 137q-187 0 -187 -137z" />
<glyph unicode="&#xe4;" horiz-adv-x="1105" d="M78 299q0 153 98 239.5t266 86.5q101 0 176 -37.5t101 -104.5v185q0 172 -166 172q-73 0 -114.5 -32.5t-49.5 -94.5h-270q12 157 122.5 246.5t311.5 89.5q214 0 325 -104t111 -281v-519q0 -86 27 -145h-277q-17 42 -20 117q-24 -64 -97 -103t-180 -39q-167 0 -265.5 86 t-98.5 238zM233 1182v264h259v-264h-259zM348 299q0 -135 187 -135q186 0 186 135q0 137 -186 137q-187 0 -187 -137zM623 1182v264h258v-264h-258z" />
<glyph unicode="&#xe5;" horiz-adv-x="1105" d="M78 299q0 153 98 239.5t266 86.5q101 0 176 -37.5t101 -104.5v185q0 172 -166 172q-73 0 -114.5 -32.5t-49.5 -94.5h-270q12 157 122.5 246.5t311.5 89.5q214 0 325 -104t111 -281v-519q0 -86 27 -145h-277q-17 42 -20 117q-24 -64 -97 -103t-180 -39q-167 0 -265.5 86 t-98.5 238zM332 1319q0 100 63 157.5t162 57.5t162 -57.5t63 -157.5t-63 -157.5t-162 -57.5t-162 57.5t-63 157.5zM348 299q0 -135 187 -135q186 0 186 135q0 137 -186 137q-187 0 -187 -137zM487 1319q0 -35 19 -55.5t51 -20.5t51 20.5t19 55.5t-19 55.5t-51 20.5 t-51 -20.5t-19 -55.5z" />
<glyph unicode="&#xe6;" horiz-adv-x="1744" d="M78 299q0 153 98 239.5t266 86.5q101 0 176 -37.5t101 -104.5v185q0 172 -166 172q-73 0 -114.5 -32.5t-49.5 -94.5h-270q12 156 122 246t306 90q109 0 198 -43t129 -121q45 78 132.5 121t189.5 43q231 0 349 -141t118 -396q0 -51 -2 -76h-672v-12q6 -244 201 -244 q72 0 118 34t58 97h274q-25 -159 -143.5 -247.5t-306.5 -88.5q-113 0 -195 42.5t-127 121.5q-40 -78 -142.5 -121t-231.5 -43q-207 0 -311.5 84t-104.5 240zM348 299q0 -135 187 -135q186 0 186 135q0 137 -186 137q-187 0 -187 -137zM991 612h395q-5 114 -54.5 173 t-141.5 59q-94 0 -144 -59t-55 -173z" />
<glyph unicode="&#xe7;" horiz-adv-x="1085" d="M82 512q0 256 119 396.5t354 140.5q204 0 325 -98.5t134 -278.5h-271q-8 80 -56 122t-132 42q-109 0 -156 -79.5t-47 -244.5t47 -244.5t156 -79.5q84 0 132 42t56 122h271q-12 -154 -102 -248.5t-246 -119.5l-37 -76q90 -7 141 -57t51 -127q0 -96 -71 -153.5t-193 -57.5 q-148 0 -240 73l70 133q64 -49 145 -49q84 0 84 60q0 63 -100 63q-48 0 -78 -10l-35 43l72 154q-196 23 -294.5 161t-98.5 371z" />
<glyph unicode="&#xe8;" horiz-adv-x="1110" d="M82 512q0 256 119 396.5t354 140.5t354 -140.5t119 -396.5q0 -51 -2 -76h-672q3 -256 201 -256q72 0 118 34t58 97h275q-25 -159 -144 -247.5t-307 -88.5q-235 0 -354 140.5t-119 396.5zM258 1485h295l197 -330h-234zM356 612h396q-4 114 -54.5 173t-142.5 59 q-94 0 -144 -59t-55 -173z" />
<glyph unicode="&#xe9;" horiz-adv-x="1110" d="M82 512q0 256 119 396.5t354 140.5t354 -140.5t119 -396.5q0 -51 -2 -76h-672q3 -256 201 -256q72 0 118 34t58 97h275q-25 -159 -144 -247.5t-307 -88.5q-235 0 -354 140.5t-119 396.5zM356 612h396q-4 114 -54.5 173t-142.5 59q-94 0 -144 -59t-55 -173zM360 1155 l197 330h295l-258 -330h-234z" />
<glyph unicode="&#xea;" horiz-adv-x="1110" d="M82 512q0 256 119 396.5t354 140.5t354 -140.5t119 -396.5q0 -51 -2 -76h-672q3 -256 201 -256q72 0 118 34t58 97h275q-25 -159 -144 -247.5t-307 -88.5q-235 0 -354 140.5t-119 396.5zM205 1155l239 330h222l239 -330h-227l-123 154l-123 -154h-227zM356 612h396 q-4 114 -54.5 173t-142.5 59q-94 0 -144 -59t-55 -173z" />
<glyph unicode="&#xeb;" horiz-adv-x="1110" d="M82 512q0 256 119 396.5t354 140.5t354 -140.5t119 -396.5q0 -51 -2 -76h-672q3 -256 201 -256q72 0 118 34t58 97h275q-25 -159 -144 -247.5t-307 -88.5q-235 0 -354 140.5t-119 396.5zM231 1182v264h258v-264h-258zM356 612h396q-4 114 -54.5 173t-142.5 59 q-94 0 -144 -59t-55 -173zM621 1182v264h258v-264h-258z" />
<glyph unicode="&#xec;" horiz-adv-x="524" d="M-57 1485h295l196 -330h-233zM127 0v1024h270v-1024h-270z" />
<glyph unicode="&#xed;" horiz-adv-x="524" d="M90 1155l197 330h295l-258 -330h-234zM127 0v1024h270v-1024h-270z" />
<glyph unicode="&#xee;" horiz-adv-x="524" d="M-88 1155l240 330h221l239 -330h-227l-123 154l-123 -154h-227zM127 0v1024h270v-1024h-270z" />
<glyph unicode="&#xef;" horiz-adv-x="524" d="M-61 1182v264h258v-264h-258zM127 0v1024h270v-1024h-270zM328 1182v264h258v-264h-258z" />
<glyph unicode="&#xf0;" horiz-adv-x="1110" d="M82 512q0 270 104 403.5t291 133.5q147 0 228 -91q-43 132 -158 224l-156 -101l-65 99l114 73q-65 38 -143 64l141 166q120 -46 205 -99l152 99l65 -99l-115 -75q147 -125 213.5 -317t69.5 -480q0 -256 -119 -396.5t-354 -140.5t-354 140.5t-119 396.5zM352 512 q0 -165 47 -244.5t156 -79.5t156 79.5t47 244.5t-47 244.5t-156 79.5t-156 -79.5t-47 -244.5z" />
<glyph unicode="&#xf1;" horiz-adv-x="1130" d="M117 0v1024h270v-172q28 91 104 144t185 53q165 0 253.5 -103t88.5 -299v-647h-270v643q0 193 -154 193q-94 0 -150.5 -68.5t-56.5 -192.5v-575h-270zM225 1188q0 268 201 268q42 0 78.5 -13.5t56 -29.5t41 -29.5t37.5 -13.5q45 0 45 70h221q0 -269 -200 -269 q-42 0 -78.5 13.5t-56 29.5t-41 29.5t-37.5 13.5q-46 0 -46 -69h-221z" />
<glyph unicode="&#xf2;" horiz-adv-x="1110" d="M82 512q0 256 119 396.5t354 140.5t354 -140.5t119 -396.5t-119 -396.5t-354 -140.5t-354 140.5t-119 396.5zM258 1485h295l197 -330h-234zM352 512q0 -165 47 -244.5t156 -79.5t156 79.5t47 244.5t-47 244.5t-156 79.5t-156 -79.5t-47 -244.5z" />
<glyph unicode="&#xf3;" horiz-adv-x="1110" d="M82 512q0 256 119 396.5t354 140.5t354 -140.5t119 -396.5t-119 -396.5t-354 -140.5t-354 140.5t-119 396.5zM352 512q0 -165 47 -244.5t156 -79.5t156 79.5t47 244.5t-47 244.5t-156 79.5t-156 -79.5t-47 -244.5zM360 1155l197 330h295l-258 -330h-234z" />
<glyph unicode="&#xf4;" horiz-adv-x="1110" d="M82 512q0 256 119 396.5t354 140.5t354 -140.5t119 -396.5t-119 -396.5t-354 -140.5t-354 140.5t-119 396.5zM205 1155l239 330h222l239 -330h-227l-123 154l-123 -154h-227zM352 512q0 -165 47 -244.5t156 -79.5t156 79.5t47 244.5t-47 244.5t-156 79.5t-156 -79.5 t-47 -244.5z" />
<glyph unicode="&#xf5;" horiz-adv-x="1110" d="M82 512q0 256 119 396.5t354 140.5t354 -140.5t119 -396.5t-119 -396.5t-354 -140.5t-354 140.5t-119 396.5zM215 1188q0 268 201 268q42 0 78.5 -13.5t56 -29.5t41 -29.5t37.5 -13.5q45 0 45 70h221q0 -269 -201 -269q-42 0 -78.5 13.5t-56 29.5t-41 29.5t-37.5 13.5 q-45 0 -45 -69h-221zM352 512q0 -165 47 -244.5t156 -79.5t156 79.5t47 244.5t-47 244.5t-156 79.5t-156 -79.5t-47 -244.5z" />
<glyph unicode="&#xf6;" horiz-adv-x="1110" d="M82 512q0 256 119 396.5t354 140.5t354 -140.5t119 -396.5t-119 -396.5t-354 -140.5t-354 140.5t-119 396.5zM231 1182v264h258v-264h-258zM352 512q0 -165 47 -244.5t156 -79.5t156 79.5t47 244.5t-47 244.5t-156 79.5t-156 -79.5t-47 -244.5zM621 1182v264h258v-264 h-258z" />
<glyph unicode="&#xf7;" d="M98 559v215h922v-215h-922zM428 178h262v262h-262v-262zM428 893v262h262v-262h-262z" />
<glyph unicode="&#xf8;" horiz-adv-x="1110" d="M82 512q0 256 119 396.5t354 140.5q116 0 203 -35l51 88h164l-94 -164q149 -137 149 -426q0 -256 -119 -396.5t-354 -140.5q-115 0 -205 35l-49 -88h-164l92 164q-147 138 -147 426zM352 512q0 -104 19 -178l276 483q-43 19 -92 19q-109 0 -156 -79.5t-47 -244.5z M463 207q40 -19 92 -19q109 0 156 79.5t47 244.5q0 104 -21 178z" />
<glyph unicode="&#xf9;" horiz-adv-x="1130" d="M113 377v647h270v-643q0 -193 154 -193q94 0 150 68.5t56 192.5v575h271v-1024h-271v172q-28 -91 -104 -144t-184 -53q-165 0 -253.5 103t-88.5 299zM260 1485h295l197 -330h-234z" />
<glyph unicode="&#xfa;" horiz-adv-x="1130" d="M113 377v647h270v-643q0 -193 154 -193q94 0 150 68.5t56 192.5v575h271v-1024h-271v172q-28 -91 -104 -144t-184 -53q-165 0 -253.5 103t-88.5 299zM381 1155l197 330h294l-258 -330h-233z" />
<glyph unicode="&#xfb;" horiz-adv-x="1130" d="M113 377v647h270v-643q0 -193 154 -193q94 0 150 68.5t56 192.5v575h271v-1024h-271v172q-28 -91 -104 -144t-184 -53q-165 0 -253.5 103t-88.5 299zM213 1155l240 330h221l239 -330h-227l-123 154l-123 -154h-227z" />
<glyph unicode="&#xfc;" horiz-adv-x="1130" d="M113 377v647h270v-643q0 -193 154 -193q94 0 150 68.5t56 192.5v575h271v-1024h-271v172q-28 -91 -104 -144t-184 -53q-165 0 -253.5 103t-88.5 299zM240 1182v264h258v-264h-258zM629 1182v264h258v-264h-258z" />
<glyph unicode="&#xfd;" horiz-adv-x="1079" d="M29 1024h278l236 -707l229 707h279l-422 -1182q-61 -170 -138 -229t-221 -59q-83 0 -114 4v206h75q49 0 82.5 24.5t55.5 86.5l43 121zM350 1155l197 330h295l-258 -330h-234z" />
<glyph unicode="&#xfe;" horiz-adv-x="1144" d="M117 -446v1880h270v-568q28 84 102.5 133.5t178.5 49.5q187 0 291 -133.5t104 -403.5t-104 -403.5t-291 -133.5q-104 0 -178.5 49.5t-102.5 133.5v-604h-270zM387 512q0 -165 47 -244.5t156 -79.5t156 79.5t47 244.5t-47 244.5t-156 79.5t-156 -79.5t-47 -244.5z" />
<glyph unicode="&#xff;" horiz-adv-x="1079" d="M29 1024h278l236 -707l229 707h279l-422 -1182q-61 -170 -138 -229t-221 -59q-83 0 -114 4v206h75q49 0 82.5 24.5t55.5 86.5l43 121zM227 1182v264h258v-264h-258zM616 1182v264h258v-264h-258z" />
<glyph unicode="&#x131;" horiz-adv-x="524" d="M127 0v1024h270v-1024h-270z" />
<glyph unicode="&#x152;" horiz-adv-x="1886" d="M98 717q0 86 6 158.5t22.5 147.5t43 134t70 112.5t101 88.5t138.5 55.5t180 20.5h1129v-240h-598v-340h524v-240h-524v-374h608v-240h-1139q-99 0 -180 20.5t-138.5 55.5t-101 88.5t-70 112.5t-43 134t-22.5 147.5t-6 158.5zM383 717q0 -184 31 -288t93.5 -146.5 t170.5 -42.5h227v954h-227q-108 0 -170.5 -42.5t-93.5 -146.5t-31 -288z" />
<glyph unicode="&#x153;" horiz-adv-x="1783" d="M82 512q0 254 118 395.5t343 141.5q117 0 209 -50.5t139 -134.5q47 84 139 134.5t209 50.5q227 0 345 -141t118 -396q0 -51 -2 -76h-672q3 -256 201 -256q72 0 118 34t58 97h274q-25 -159 -141.5 -247.5t-298.5 -88.5q-122 0 -210.5 49t-137.5 136q-47 -84 -139 -134.5 t-209 -50.5q-225 0 -343 141.5t-118 395.5zM352 512q0 -165 47 -244.5t156 -79.5t156 79.5t47 244.5t-47 244.5t-156 79.5t-156 -79.5t-47 -244.5zM1030 612h395q-5 114 -54.5 173t-141.5 59q-94 0 -144 -59t-55 -173z" />
<glyph unicode="&#x178;" horiz-adv-x="1259" d="M31 1434h297l301 -623l303 623h297l-457 -869v-565h-285v565zM305 1589v264h258v-264h-258zM694 1589v264h258v-264h-258z" />
<glyph unicode="&#x192;" horiz-adv-x="759" d="M-4 -233h78q66 0 97.5 35t31.5 108v901h-148v213h148v109q0 168 85 241.5t279 73.5q98 0 154 -10v-203h-111q-77 0 -107 -27t-30 -92v-92h248v-213h-248v-928q0 -162 -90.5 -245.5t-269.5 -83.5q-77 0 -117 6v207z" />
<glyph unicode="&#x2c6;" horiz-adv-x="802" d="M51 1165l240 330h221l240 -330h-228l-123 154l-122 -154h-228z" />
<glyph unicode="&#x2c7;" horiz-adv-x="802" d="M51 1495h228l122 -154l123 154h228l-240 -330h-221z" />
<glyph unicode="&#x2d8;" horiz-adv-x="802" d="M72 1477h219q3 -125 110 -125q108 0 111 125h219q-6 -145 -96 -226.5t-234 -81.5t-233.5 81.5t-95.5 226.5z" />
<glyph unicode="&#x2d9;" horiz-adv-x="802" d="M270 1192v264h262v-264h-262z" />
<glyph unicode="&#x2da;" horiz-adv-x="802" d="M176 1329q0 100 63 157.5t162 57.5q100 0 163 -57.5t63 -157.5t-63 -157.5t-163 -57.5q-99 0 -162 57.5t-63 157.5zM332 1329q0 -35 18.5 -55.5t50.5 -20.5t51 20.5t19 55.5t-19 55.5t-51 20.5t-50.5 -20.5t-18.5 -55.5z" />
<glyph unicode="&#x2db;" horiz-adv-x="802" d="M156 -227q0 65 41 127t112 100h199q-74 -44 -114 -96.5t-40 -98.5v-10q0 -35 25.5 -58.5t71.5 -23.5q67 0 114 41l82 -123q-36 -38 -95 -59t-126 -21q-126 0 -198 54.5t-72 150.5v17z" />
<glyph unicode="&#x2dc;" horiz-adv-x="802" d="M61 1200q0 268 201 268q42 0 78.5 -13.5t56 -29.5t41 -29.5t37.5 -13.5q45 0 45 70h221q0 -137 -49.5 -202.5t-150.5 -65.5q-42 0 -78.5 13.5t-56 29.5t-41 29.5t-37.5 13.5q-45 0 -45 -70h-222z" />
<glyph unicode="&#x2dd;" horiz-adv-x="802" d="M0 1159l158 336h274l-213 -336h-219zM315 1159l213 336h275l-268 -336h-220z" />
<glyph unicode="&#x3a9;" horiz-adv-x="1347" d="M100 760q0 320 133 502q141 196 441 196q299 0 440 -196q133 -182 133 -502q0 -193 -62 -325t-177 -195h215v-240h-490v240q117 46 173.5 161t56.5 316q0 156 -17.5 246.5t-56.5 150.5q-69 105 -215 105t-215 -105q-39 -60 -56.5 -150.5t-17.5 -246.5q0 -202 56 -316.5 t173 -160.5v-240h-489v240h215q-115 63 -177.5 195t-62.5 325z" />
<glyph unicode="&#x3c0;" horiz-adv-x="1189" d="M57 811v213h1073v-213h-147v-811h-270v811h-238v-811h-270v811h-148z" />
<glyph unicode="&#x400;" d="M137 0v1434h883v-240h-598v-340h524v-240h-524v-374h608v-240h-893zM279 1892h294l197 -329h-233z" />
<glyph unicode="&#x401;" d="M137 0v1434h883v-240h-598v-340h524v-240h-524v-374h608v-240h-893zM254 1589v264h258v-264h-258zM643 1589v264h258v-264h-258z" />
<glyph unicode="&#x402;" horiz-adv-x="1478" d="M29 1194v240h1050v-240h-383v-340q120 92 299 92q193 0 292 -102.5t99 -296.5v-236q0 -160 -90.5 -242.5t-263.5 -82.5q-69 0 -112 6v233h69q113 0 113 121v172q0 91 -44.5 140t-127.5 49q-67 0 -130 -21.5t-104 -56.5v-629h-284v1194h-383z" />
<glyph unicode="&#x403;" horiz-adv-x="1042" d="M137 0v1434h885v-240h-600v-1194h-285zM399 1563l197 329h295l-258 -329h-234z" />
<glyph unicode="&#x404;" horiz-adv-x="1318" d="M98 717q0 366 133 545q144 196 441 196q252 0 399.5 -138t159.5 -374h-285q-8 128 -78.5 200.5t-195.5 72.5q-146 0 -215 -105q-61 -91 -72 -278h406v-238h-406q11 -191 72 -279q69 -104 215 -104q126 0 196 72t78 200h285q-12 -236 -159.5 -374t-399.5 -138 q-296 0 -441 197q-133 179 -133 545z" />
<glyph unicode="&#x405;" horiz-adv-x="1200" d="M96 1047q0 177 129 294t359 117q228 0 357.5 -117t129.5 -290v-21h-285v21q0 78 -53 125t-149 47q-98 0 -150.5 -47t-52.5 -125q0 -76 47.5 -118.5t151.5 -64.5l161 -32q187 -37 285 -144t98 -282q0 -195 -136 -315t-376 -120q-239 0 -376.5 119t-137.5 312v26h285v-31 q0 -87 61.5 -139.5t167.5 -52.5q105 0 166.5 52.5t61.5 139.5q0 157 -199 197l-162 33q-383 76 -383 416z" />
<glyph unicode="&#x406;" horiz-adv-x="559" d="M137 0v1434h285v-1434h-285z" />
<glyph unicode="&#x407;" horiz-adv-x="559" d="M-45 1589v264h258v-264h-258zM137 0v1434h285v-1434h-285zM344 1589v264h258v-264h-258z" />
<glyph unicode="&#x408;" horiz-adv-x="1114" d="M37 444v19h285q3 -132 49.5 -190t138.5 -58q95 0 141.5 62t46.5 204v953h285v-990q0 -226 -122.5 -347.5t-350.5 -121.5t-350.5 121.5t-122.5 347.5z" />
<glyph unicode="&#x409;" horiz-adv-x="1990" d="M18 -8v233h66q75 0 106 28.5t31 108.5v1072h987v-578h242q230 0 350.5 -107t120.5 -323q0 -426 -471 -426h-526v1194h-418v-842q0 -107 -20 -177.5t-65.5 -112.5t-112 -59t-167.5 -17q-71 0 -123 6zM1208 236h203q116 0 170.5 45t54.5 145q0 99 -54.5 144.5t-170.5 45.5 h-203v-380z" />
<glyph unicode="&#x40a;" horiz-adv-x="1927" d="M137 0v1434h285v-580h438v580h285v-578h241q230 0 351 -107.5t121 -322.5q0 -426 -472 -426h-526v614h-438v-614h-285zM1145 236h203q116 0 170.5 45t54.5 145q0 99 -54.5 144.5t-170.5 45.5h-203v-380z" />
<glyph unicode="&#x40b;" horiz-adv-x="1488" d="M29 1194v240h1050v-240h-383v-340q120 92 299 92q193 0 292 -102.5t99 -296.5v-547h-284v518q0 91 -44.5 140t-127.5 49q-67 0 -130 -21.5t-104 -56.5v-629h-284v1194h-383z" />
<glyph unicode="&#x40c;" horiz-adv-x="1247" d="M137 0v1434h285v-580h131l330 580h307l-408 -699l465 -735h-311l-383 614h-131v-614h-285zM444 1563l197 329h295l-258 -329h-234z" />
<glyph unicode="&#x40d;" horiz-adv-x="1323" d="M137 0h291l473 942v-942h285v1434h-291l-473 -940v940h-285v-1434zM375 1892h295l196 -329h-233z" />
<glyph unicode="&#x40e;" horiz-adv-x="1241" d="M37 1434h291l299 -738l303 738h291l-484 -1166q-64 -156 -141 -212t-223 -56q-74 0 -107 4v236h72q68 0 95.5 26t64.5 115zM297 1870h219q3 -125 111 -125q107 0 110 125h219q-6 -145 -95.5 -226t-233.5 -81t-234 81t-96 226z" />
<glyph unicode="&#x40f;" horiz-adv-x="1302" d="M137 0v1434h285v-1194h459v1194h284v-1434h-372v-246h-283v246h-373z" />
<glyph unicode="&#x410;" horiz-adv-x="1277" d="M6 0l461 1434h319l461 -1434h-293l-82 283h-493l-80 -283h-293zM446 518h359l-178 627z" />
<glyph unicode="&#x411;" horiz-adv-x="1204" d="M137 0v1434h912v-240h-627v-338h242q230 0 350.5 -107t120.5 -323q0 -426 -471 -426h-527zM422 236h203q116 0 170.5 45t54.5 145q0 99 -54.5 144.5t-170.5 45.5h-203v-380z" />
<glyph unicode="&#x412;" horiz-adv-x="1255" d="M137 0v1434h547q227 0 342 -99t115 -291q0 -112 -54 -187.5t-153 -108.5q115 -31 181.5 -120t66.5 -214q0 -204 -116.5 -309t-348.5 -105h-580zM422 240h248q117 0 171 43.5t54 144.5t-54 144.5t-171 43.5h-248v-376zM422 854h215q113 0 167 38t54 132t-54 132t-167 38 h-215v-340z" />
<glyph unicode="&#x413;" horiz-adv-x="1042" d="M137 0v1434h885v-240h-600v-1194h-285z" />
<glyph unicode="&#x414;" horiz-adv-x="1343" d="M31 240h141q61 244 61 604v590h914v-1194h156v-486h-285v246h-703v-246h-284v486zM463 240h399v954h-344v-369q0 -357 -55 -585z" />
<glyph unicode="&#x415;" d="M137 0v1434h883v-240h-598v-340h524v-240h-524v-374h608v-240h-893z" />
<glyph unicode="&#x416;" horiz-adv-x="1841" d="M14 0l420 735l-360 699h297l288 -580h119v580h285v-580h119l288 580h297l-360 -699l420 -735h-305l-340 614h-119v-614h-285v614h-119l-340 -614h-305z" />
<glyph unicode="&#x417;" horiz-adv-x="1185" d="M78 414v20h284v-10q0 -98 60 -153.5t166 -55.5q107 0 166 56t59 153q0 213 -244 213h-170v240h170q102 0 151.5 43t49.5 131q0 75 -47 121.5t-135 46.5q-89 0 -135.5 -50t-46.5 -127h-285v25q0 82 30 152t86.5 124t147 84.5t203.5 30.5q224 0 345.5 -110.5t121.5 -278.5 q0 -121 -60.5 -199t-169.5 -108q128 -28 200.5 -119t72.5 -229q0 -201 -139.5 -320t-370.5 -119q-229 0 -369.5 119t-140.5 320z" />
<glyph unicode="&#x418;" horiz-adv-x="1323" d="M137 0v1434h285v-940l473 940h291v-1434h-285v942l-473 -942h-291z" />
<glyph unicode="&#x419;" horiz-adv-x="1323" d="M137 0v1434h285v-940l473 940h291v-1434h-285v942l-473 -942h-291zM332 1870h219q3 -125 111 -125q107 0 110 125h219q-6 -145 -95.5 -226t-233.5 -81t-234 81t-96 226z" />
<glyph unicode="&#x41a;" horiz-adv-x="1247" d="M137 0v1434h285v-580h131l330 580h307l-408 -699l465 -735h-311l-383 614h-131v-614h-285z" />
<glyph unicode="&#x41b;" horiz-adv-x="1366" d="M18 -8v233h66q75 0 106 28.5t31 108.5v1072h1008v-1434h-285v1194h-438v-842q0 -107 -20 -177.5t-65.5 -112.5t-112 -59t-167.5 -17q-71 0 -123 6z" />
<glyph unicode="&#x41c;" horiz-adv-x="1732" d="M137 0v1434h295l434 -1135l434 1135h295v-1434h-278v862l-330 -862h-242l-329 862v-862h-279z" />
<glyph unicode="&#x41d;" horiz-adv-x="1302" d="M137 0v1434h285v-580h459v580h284v-1434h-284v614h-459v-614h-285z" />
<glyph unicode="&#x41e;" horiz-adv-x="1343" d="M98 717q0 366 133 545q144 196 441 196q296 0 440 -196q133 -179 133 -545t-133 -545q-145 -197 -440 -197q-296 0 -441 197q-133 179 -133 545zM383 717q0 -157 17.5 -248.5t56.5 -149.5q69 -104 215 -104t215 104q39 58 56.5 149.5t17.5 248.5t-17.5 248t-56.5 149 q-69 105 -215 105t-215 -105q-39 -58 -56.5 -149t-17.5 -248z" />
<glyph unicode="&#x41f;" horiz-adv-x="1302" d="M137 0v1434h1028v-1434h-284v1194h-459v-1194h-285z" />
<glyph unicode="&#x420;" horiz-adv-x="1239" d="M137 0v1434h576q222 0 344.5 -121t122.5 -340t-122.5 -340t-344.5 -121h-291v-512h-285zM422 752h252q221 0 221 221t-221 221h-252v-442z" />
<glyph unicode="&#x421;" horiz-adv-x="1318" d="M98 717q0 366 133 545q144 196 441 196q252 0 399.5 -138t159.5 -374h-285q-8 128 -78.5 200.5t-195.5 72.5q-146 0 -215 -105q-39 -58 -56.5 -149t-17.5 -248t17.5 -248.5t56.5 -149.5q69 -104 215 -104q126 0 196 72t78 200h285q-12 -236 -159.5 -374t-399.5 -138 q-296 0 -441 197q-133 179 -133 545z" />
<glyph unicode="&#x422;" horiz-adv-x="1107" d="M29 1194v240h1050v-240h-383v-1194h-284v1194h-383z" />
<glyph unicode="&#x423;" horiz-adv-x="1241" d="M37 1434h291l299 -738l303 738h291l-484 -1166q-64 -156 -141 -212t-223 -56q-74 0 -107 4v236h72q68 0 95.5 26t64.5 115z" />
<glyph unicode="&#x424;" horiz-adv-x="1546" d="M68 717q0 121 40.5 213.5t115.5 153t177 94.5t230 43v213h284v-213q129 -9 230.5 -43t177 -94.5t116 -153t40.5 -213.5t-40.5 -213.5t-116 -153t-177 -94.5t-230.5 -43v-213h-284v213q-128 9 -230 43t-177 94.5t-115.5 153t-40.5 213.5zM352 717q0 -128 72.5 -193.5 t206.5 -70.5v528q-134 -5 -206.5 -70.5t-72.5 -193.5zM915 453q134 5 206.5 70.5t72.5 193.5t-72.5 193.5t-206.5 70.5v-528z" />
<glyph unicode="&#x425;" horiz-adv-x="1261" d="M29 0l420 741l-390 693h308l264 -512l264 512h307l-389 -693l420 -741h-307l-295 557l-295 -557h-307z" />
<glyph unicode="&#x426;" horiz-adv-x="1361" d="M137 0v1434h285v-1194h459v1194h284v-1194h156v-486h-285v246h-899z" />
<glyph unicode="&#x427;" horiz-adv-x="1255" d="M117 911v523h284v-502q0 -111 44 -158t145 -47q74 0 140 22.5t104 61.5v623h284v-1434h-284v580q-51 -41 -134.5 -67t-169.5 -26q-211 0 -312 103.5t-101 320.5z" />
<glyph unicode="&#x428;" horiz-adv-x="1964" d="M137 0v1434h285v-1194h418v1194h284v-1194h418v1194h285v-1434h-1690z" />
<glyph unicode="&#x429;" horiz-adv-x="2023" d="M137 0v1434h285v-1194h418v1194h284v-1194h418v1194h285v-1194h155v-486h-284v246h-1561z" />
<glyph unicode="&#x42a;" horiz-adv-x="1447" d="M29 1194v240h639l-2 -2v-576h241q230 0 350.5 -107t120.5 -323q0 -426 -471 -426h-526v1194h-352zM666 236h202q116 0 171 45t55 145q0 99 -55 144.5t-171 45.5h-202v-380z" />
<glyph unicode="&#x42b;" horiz-adv-x="1708" d="M137 0v1434h285v-578h242q230 0 350.5 -107t120.5 -323q0 -426 -471 -426h-527zM422 236h203q116 0 170.5 45t54.5 145q0 99 -54.5 144.5t-170.5 45.5h-203v-380zM1286 0v1434h285v-1434h-285z" />
<glyph unicode="&#x42c;" horiz-adv-x="1204" d="M137 0v1434h285v-578h242q230 0 350.5 -107t120.5 -323q0 -426 -471 -426h-527zM422 236h203q116 0 170.5 45t54.5 145q0 99 -54.5 144.5t-170.5 45.5h-203v-380z" />
<glyph unicode="&#x42d;" horiz-adv-x="1318" d="M88 487h285q8 -128 78 -200t196 -72q146 0 215 104q61 88 72 279h-406v238h406q-11 187 -72 278q-69 105 -215 105q-125 0 -195.5 -72.5t-78.5 -200.5h-285q12 236 159.5 374t399.5 138q296 0 440 -196q134 -181 134 -545t-134 -545q-145 -197 -440 -197 q-252 0 -399.5 138t-159.5 374z" />
<glyph unicode="&#x42e;" horiz-adv-x="1810" d="M137 0v1434h285v-598h147q17 273 129 426q144 196 441 196q296 0 440 -196q133 -179 133 -545t-133 -545q-145 -197 -440 -197q-296 0 -441 197q-112 150 -129 426h-147v-598h-285zM850 717q0 -157 17.5 -248.5t56.5 -149.5q69 -104 215 -104t215 104q39 58 56 149 t17 249t-17 248.5t-56 148.5q-69 105 -215 105t-215 -105q-39 -58 -56.5 -149t-17.5 -248z" />
<glyph unicode="&#x42f;" horiz-adv-x="1284" d="M88 0q21 50 27 131l12 199q9 144 63 217t170 88q-128 34 -193 125.5t-65 234.5q0 208 119 323.5t344 115.5h582v-1434h-285v512h-223q-120 0 -171.5 -46t-57.5 -157l-11 -180q-3 -80 -22 -129h-289zM389 973q0 -117 57.5 -169t167.5 -52h248v442h-248q-110 0 -167.5 -52 t-57.5 -169z" />
<glyph unicode="&#x430;" horiz-adv-x="1105" d="M78 299q0 153 98 239.5t266 86.5q101 0 176 -37.5t101 -104.5v185q0 172 -166 172q-73 0 -114.5 -32.5t-49.5 -94.5h-270q12 157 122.5 246.5t311.5 89.5q214 0 325 -104t111 -281v-519q0 -86 27 -145h-277q-17 42 -20 117q-24 -64 -97 -103t-180 -39q-167 0 -265.5 86 t-98.5 238zM348 299q0 -135 187 -135q186 0 186 135q0 137 -186 137q-187 0 -187 -137z" />
<glyph unicode="&#x431;" horiz-adv-x="1120" d="M92 614q0 157 7 264.5t27 193.5t49 139t80.5 92.5t113.5 61.5t155 40l312 59l71 -213l-323 -59q-93 -17 -138 -48t-64.5 -94t-19.5 -184q28 84 102.5 133.5t178.5 49.5q187 0 291 -133.5t104 -403.5q0 -256 -119 -396.5t-354 -140.5q-251 0 -362 150t-111 489zM362 512 q0 -165 47 -244.5t156 -79.5t156 79.5t47 244.5t-47 244.5t-156 79.5t-156 -79.5t-47 -244.5z" />
<glyph unicode="&#x432;" horiz-adv-x="1044" d="M117 0v1024h481q180 0 268 -74.5t88 -208.5q0 -77 -40.5 -133t-110.5 -78q86 -22 133 -80.5t47 -148.5q0 -143 -89 -222t-280 -79h-497zM387 199h188q70 0 104 27t34 87q0 115 -138 115h-188v-229zM387 618h176q64 0 93.5 24.5t29.5 78.5t-29.5 79t-93.5 25h-176v-207z " />
<glyph unicode="&#x433;" horiz-adv-x="854" d="M117 0v1024h696v-213h-426v-811h-270z" />
<glyph unicode="&#x434;" horiz-adv-x="1107" d="M20 213h117q41 188 41 438v373h770v-811h129v-438h-270v225h-516v-225h-271v438zM412 213h266v598h-229v-180q0 -247 -37 -418z" />
<glyph unicode="&#x435;" horiz-adv-x="1110" d="M82 512q0 256 119 396.5t354 140.5t354 -140.5t119 -396.5q0 -51 -2 -76h-672q3 -256 201 -256q72 0 118 34t58 97h275q-25 -159 -144 -247.5t-307 -88.5q-235 0 -354 140.5t-119 396.5zM356 612h396q-4 114 -54.5 173t-142.5 59q-94 0 -144 -59t-55 -173z" />
<glyph unicode="&#x436;" horiz-adv-x="1519" d="M18 0l306 532l-258 492h278l193 -387h88v387h270v-387h88l193 387h278l-258 -492l305 -532h-287l-233 430h-86v-430h-270v430h-86l-234 -430h-287z" />
<glyph unicode="&#x437;" horiz-adv-x="1024" d="M57 287v14h271v-4q0 -53 46.5 -85t127.5 -32q83 0 128.5 32t45.5 91q0 57 -45.5 87t-130.5 30h-150v209h158q71 0 108 28.5t37 77.5q0 48 -36.5 78.5t-108.5 30.5t-109 -30.5t-37 -78.5v-12h-270v18q0 136 106.5 222t309.5 86q202 0 309 -84t107 -215q0 -82 -53.5 -143.5 t-133.5 -80.5q95 -18 152 -81t57 -158q0 -140 -118.5 -226t-325.5 -86q-206 0 -325.5 86t-119.5 226z" />
<glyph unicode="&#x438;" horiz-adv-x="1093" d="M117 0v1024h270v-604l336 604h254v-1024h-270v604l-336 -604h-254z" />
<glyph unicode="&#x439;" horiz-adv-x="1093" d="M117 0v1024h270v-604l336 604h254v-1024h-270v604l-336 -604h-254zM217 1466h219q3 -125 111 -125q107 0 110 125h220q-6 -145 -96 -226t-234 -81t-234 81t-96 226z" />
<glyph unicode="&#x43a;" horiz-adv-x="1040" d="M117 0v1024h270v-389h86l225 389h287l-295 -492l340 -532h-293l-266 432h-84v-432h-270z" />
<glyph unicode="&#x43b;" horiz-adv-x="1144" d="M29 -10v209h51q63 0 89 28.5t26 102.5v694h833v-1024h-270v811h-293v-500q0 -181 -80.5 -253t-267.5 -72q-48 0 -88 4z" />
<glyph unicode="&#x43c;" horiz-adv-x="1359" d="M117 0v1024h248l315 -737l315 737h248v-1024h-262v498l-213 -498h-176l-213 498v-498h-262z" />
<glyph unicode="&#x43d;" horiz-adv-x="1083" d="M117 0v1024h270v-393h309v393h271v-1024h-271v418h-309v-418h-270z" />
<glyph unicode="&#x43e;" horiz-adv-x="1110" d="M82 512q0 256 119 396.5t354 140.5t354 -140.5t119 -396.5t-119 -396.5t-354 -140.5t-354 140.5t-119 396.5zM352 512q0 -165 47 -244.5t156 -79.5t156 79.5t47 244.5t-47 244.5t-156 79.5t-156 -79.5t-47 -244.5z" />
<glyph unicode="&#x43f;" horiz-adv-x="1083" d="M117 0v1024h850v-1024h-271v811h-309v-811h-270z" />
<glyph unicode="&#x440;" horiz-adv-x="1144" d="M117 -446v1470h270v-158q28 84 102.5 133.5t178.5 49.5q187 0 291 -133.5t104 -403.5t-104 -403.5t-291 -133.5q-104 0 -178.5 49.5t-102.5 133.5v-604h-270zM387 512q0 -165 47 -244.5t156 -79.5t156 79.5t47 244.5t-47 244.5t-156 79.5t-156 -79.5t-47 -244.5z" />
<glyph unicode="&#x441;" horiz-adv-x="1085" d="M82 512q0 256 119 396.5t354 140.5q204 0 325 -98.5t134 -278.5h-271q-8 80 -56 122t-132 42q-109 0 -156 -79.5t-47 -244.5t47 -244.5t156 -79.5q84 0 132 42t56 122h271q-13 -180 -134 -278.5t-325 -98.5q-235 0 -354 140.5t-119 396.5z" />
<glyph unicode="&#x442;" horiz-adv-x="954" d="M39 811v213h876v-213h-303v-811h-270v811h-303z" />
<glyph unicode="&#x443;" horiz-adv-x="1079" d="M29 1024h278l236 -707l229 707h279l-422 -1182q-61 -170 -138 -229t-221 -59q-83 0 -114 4v206h75q49 0 82.5 24.5t55.5 86.5l43 121z" />
<glyph unicode="&#x444;" horiz-adv-x="1785" d="M82 512q0 270 104 403.5t291 133.5q104 0 178.5 -49.5t102.5 -133.5v568h270v-568q28 84 102.5 133.5t178.5 49.5q187 0 291 -133.5t104 -403.5t-104 -403.5t-291 -133.5q-104 0 -178.5 49.5t-102.5 133.5v-604h-270v604q-28 -84 -102.5 -133.5t-178.5 -49.5 q-187 0 -291 133.5t-104 403.5zM352 512q0 -165 47 -244.5t156 -79.5t156 79.5t47 244.5t-47 244.5t-156 79.5t-156 -79.5t-47 -244.5zM1028 512q0 -165 47 -244.5t156 -79.5t156 79.5t47 244.5t-47 244.5t-156 79.5t-156 -79.5t-47 -244.5z" />
<glyph unicode="&#x445;" horiz-adv-x="1011" d="M20 0l318 526l-297 498h285l180 -334l180 334h285l-297 -498l317 -526h-284l-201 360l-201 -360h-285z" />
<glyph unicode="&#x446;" horiz-adv-x="1126" d="M117 0v1024h270v-811h309v811h271v-811h129v-438h-271v225h-708z" />
<glyph unicode="&#x447;" horiz-adv-x="1044" d="M96 651v373h271v-360q0 -77 30 -110.5t97 -33.5q105 0 163 55v449h271v-1024h-271v369q-37 -28 -99 -45t-124 -17q-170 0 -254 82.5t-84 261.5z" />
<glyph unicode="&#x448;" horiz-adv-x="1601" d="M117 0v1024h270v-811h279v811h270v-811h278v811h271v-1024h-1368z" />
<glyph unicode="&#x449;" horiz-adv-x="1644" d="M117 0v1024h270v-811h279v811h270v-811h278v811h271v-811h129v-438h-271v225h-1226z" />
<glyph unicode="&#x44a;" horiz-adv-x="1214" d="M39 811v213h543v-356h192q182 0 280.5 -86.5t98.5 -247.5q0 -162 -98.5 -248t-280.5 -86h-463v811h-272zM582 209h157q144 0 144 125t-144 125h-157v-250z" />
<glyph unicode="&#x44b;" horiz-adv-x="1466" d="M117 0v1024h270v-356h193q182 0 280 -86.5t98 -247.5q0 -162 -98 -248t-280 -86h-463zM387 209h158q143 0 143 125t-143 125h-158v-250zM1079 0v1024h271v-1024h-271z" />
<glyph unicode="&#x44c;" horiz-adv-x="1019" d="M117 0v1024h270v-356h193q182 0 280 -86.5t98 -247.5q0 -162 -98 -248t-280 -86h-463zM387 209h158q143 0 143 125t-143 125h-158v-250z" />
<glyph unicode="&#x44d;" horiz-adv-x="1085" d="M72 342h270q8 -75 55.5 -114.5t132.5 -39.5q90 0 137.5 54t61.5 164h-268v212h268q-14 110 -61.5 164t-137.5 54q-85 0 -132.5 -39.5t-55.5 -114.5h-270q13 175 133.5 271t324.5 96q235 0 354.5 -140.5t119.5 -396.5t-119.5 -396.5t-354.5 -140.5q-204 0 -324.5 96 t-133.5 271z" />
<glyph unicode="&#x44e;" horiz-adv-x="1517" d="M117 0v1024h270v-406h109q24 207 141 319t326 112q235 0 354 -140.5t119 -396.5t-119 -396.5t-354 -140.5q-209 0 -326 112t-141 319h-109v-406h-270zM760 512q0 -165 47 -244.5t156 -79.5t155.5 79.5t46.5 244.5t-46.5 244.5t-155.5 79.5t-156 -79.5t-47 -244.5z" />
<glyph unicode="&#x44f;" horiz-adv-x="1064" d="M90 0q12 49 14 94l9 144q6 96 46 149t124 70q-88 26 -138.5 92t-50.5 174q0 146 96 223.5t283 77.5h475v-1024h-270v346h-152q-71 0 -105.5 -30.5t-39.5 -94.5l-8 -131q-3 -56 -15 -90h-268zM365 686q0 -67 38 -99t105 -32h170v260h-170q-67 0 -105 -32t-38 -97z" />
<glyph unicode="&#x450;" horiz-adv-x="1110" d="M82 512q0 256 119 396.5t354 140.5t354 -140.5t119 -396.5q0 -51 -2 -76h-672q3 -256 201 -256q72 0 118 34t58 97h275q-25 -159 -144 -247.5t-307 -88.5q-235 0 -354 140.5t-119 396.5zM258 1485h295l197 -330h-234zM356 612h396q-4 114 -54.5 173t-142.5 59 q-94 0 -144 -59t-55 -173z" />
<glyph unicode="&#x451;" horiz-adv-x="1110" d="M82 512q0 256 119 396.5t354 140.5t354 -140.5t119 -396.5q0 -51 -2 -76h-672q3 -256 201 -256q72 0 118 34t58 97h275q-25 -159 -144 -247.5t-307 -88.5q-235 0 -354 140.5t-119 396.5zM231 1182v264h258v-264h-258zM356 612h396q-4 114 -54.5 173t-142.5 59 q-94 0 -144 -59t-55 -173zM621 1182v264h258v-264h-258z" />
<glyph unicode="&#x452;" horiz-adv-x="1130" d="M8 1155v160h109v119h270v-119h250v-160h-250v-303q28 91 104 144t185 53q165 0 253.5 -103t88.5 -299v-764q0 -162 -91 -245.5t-270 -83.5q-75 0 -116 6v207h77q66 0 98 35t32 108v733q0 193 -154 193q-94 0 -150.5 -68.5t-56.5 -192.5v-575h-270v1155h-109z" />
<glyph unicode="&#x453;" horiz-adv-x="854" d="M117 0v1024h696v-213h-426v-811h-270zM268 1155l197 330h295l-258 -330h-234z" />
<glyph unicode="&#x454;" horiz-adv-x="1085" d="M82 512q0 256 119 396.5t354 140.5q204 0 325 -96t134 -271h-271q-8 75 -55.5 114.5t-132.5 39.5q-90 0 -137.5 -54t-61.5 -164h269v-212h-269q14 -110 61.5 -164t137.5 -54q85 0 132.5 39.5t55.5 114.5h271q-13 -175 -134 -271t-325 -96q-235 0 -354 140.5t-119 396.5z " />
<glyph unicode="&#x455;" horiz-adv-x="999" d="M84 295v20h268v-26q0 -54 41.5 -85.5t112.5 -31.5q70 0 110.5 31.5t40.5 83.5t-31 80t-106 41l-102 18q-168 30 -250 105t-82 206q0 138 107.5 225t291.5 87q188 0 294 -84.5t106 -221.5v-18h-269v20q0 46 -34 75.5t-97 29.5q-61 0 -95 -28t-34 -74q0 -47 33 -73t107 -40 l102 -19q174 -32 251 -107.5t77 -213.5q0 -140 -114.5 -230t-307.5 -90q-195 0 -307.5 90t-112.5 230z" />
<glyph unicode="&#x456;" horiz-adv-x="524" d="M127 0v1024h270v-1024h-270zM127 1192v242h270v-242h-270z" />
<glyph unicode="&#x457;" horiz-adv-x="524" d="M-61 1182v264h258v-264h-258zM127 0v1024h270v-1024h-270zM328 1182v264h258v-264h-258z" />
<glyph unicode="&#x458;" horiz-adv-x="524" d="M-80 -233h78q66 0 97.5 35t31.5 108v1114h270v-1141q0 -162 -90.5 -245.5t-269.5 -83.5q-77 0 -117 6v207zM127 1192v242h270v-242h-270z" />
<glyph unicode="&#x459;" horiz-adv-x="1644" d="M29 -10v209h51q63 0 89 28.5t26 102.5v694h817v-356h192q182 0 280.5 -86.5t98.5 -247.5q0 -162 -98.5 -248t-280.5 -86h-463v811h-276v-500q0 -181 -80.5 -253t-267.5 -72q-48 0 -88 4zM1012 209h157q144 0 144 125t-144 125h-157v-250z" />
<glyph unicode="&#x45a;" horiz-adv-x="1583" d="M117 0v1024h270v-393h293v393h270v-356h193q182 0 280.5 -86.5t98.5 -247.5q0 -162 -98.5 -248t-280.5 -86h-463v418h-293v-418h-270zM950 209h158q143 0 143 125t-143 125h-158v-250z" />
<glyph unicode="&#x45b;" horiz-adv-x="1130" d="M8 1155v160h109v119h270v-119h250v-160h-250v-303q28 91 104 144t185 53q165 0 253.5 -103t88.5 -299v-647h-270v643q0 193 -154 193q-94 0 -150.5 -68.5t-56.5 -192.5v-575h-270v1155h-109z" />
<glyph unicode="&#x45c;" horiz-adv-x="1040" d="M117 0v1024h270v-389h86l225 389h287l-295 -492l340 -532h-293l-266 432h-84v-432h-270zM342 1155l197 330h295l-259 -330h-233z" />
<glyph unicode="&#x45d;" horiz-adv-x="1093" d="M117 0v1024h270v-604l336 604h254v-1024h-270v604l-336 -604h-254zM268 1485h295l197 -330h-234z" />
<glyph unicode="&#x45e;" horiz-adv-x="1079" d="M29 1024h278l236 -707l229 707h279l-422 -1182q-61 -170 -138 -229t-221 -59q-83 0 -114 4v206h75q49 0 82.5 24.5t55.5 86.5l43 121zM211 1466h219q3 -125 111 -125q107 0 110 125h219q-6 -145 -95.5 -226t-233.5 -81t-234 81t-96 226z" />
<glyph unicode="&#x45f;" horiz-adv-x="1083" d="M117 0v1024h270v-811h309v811h271v-1024h-291v-225h-268v225h-291z" />
<glyph unicode="&#x490;" horiz-adv-x="1042" d="M137 0v1434h600v286h285v-526h-600v-1194h-285z" />
<glyph unicode="&#x491;" horiz-adv-x="854" d="M117 0v1024h426v221h270v-434h-426v-811h-270z" />
<glyph unicode="&#x2000;" horiz-adv-x="971" />
<glyph unicode="&#x2001;" horiz-adv-x="1942" />
<glyph unicode="&#x2002;" horiz-adv-x="971" />
<glyph unicode="&#x2003;" horiz-adv-x="1942" />
<glyph unicode="&#x2004;" horiz-adv-x="647" />
<glyph unicode="&#x2005;" horiz-adv-x="485" />
<glyph unicode="&#x2006;" horiz-adv-x="323" />
<glyph unicode="&#x2007;" horiz-adv-x="323" />
<glyph unicode="&#x2008;" horiz-adv-x="242" />
<glyph unicode="&#x2009;" horiz-adv-x="388" />
<glyph unicode="&#x200a;" horiz-adv-x="107" />
<glyph unicode="&#x2010;" horiz-adv-x="856" d="M98 553v227h660v-227h-660z" />
<glyph unicode="&#x2011;" horiz-adv-x="856" d="M98 553v227h660v-227h-660z" />
<glyph unicode="&#x2012;" horiz-adv-x="856" d="M98 553v227h660v-227h-660z" />
<glyph unicode="&#x2013;" horiz-adv-x="1024" d="M0 553v227h1024v-227h-1024z" />
<glyph unicode="&#x2014;" horiz-adv-x="2048" d="M0 553v227h2048v-227h-2048z" />
<glyph unicode="&#x2018;" horiz-adv-x="585" d="M150 1049v286q0 113 71 181.5t215 72.5v-125q-143 -6 -143 -129h143v-286h-286z" />
<glyph unicode="&#x2019;" horiz-adv-x="585" d="M150 1049v125q143 6 143 129h-143v286h286v-286q0 -113 -71 -181.5t-215 -72.5z" />
<glyph unicode="&#x201a;" horiz-adv-x="585" d="M150 0v287h286v-287q0 -113 -71 -181.5t-215 -72.5v125q143 6 143 129h-143z" />
<glyph unicode="&#x201c;" horiz-adv-x="980" d="M150 1049v286q0 113 71 181.5t215 72.5v-125q-143 -6 -143 -129h143v-286h-286zM545 1049v286q0 113 71 181.5t215 72.5v-125q-143 -6 -143 -129h143v-286h-286z" />
<glyph unicode="&#x201d;" horiz-adv-x="980" d="M150 1049v125q143 6 143 129h-143v286h286v-286q0 -113 -71 -181.5t-215 -72.5zM545 1049v125q143 6 143 129h-143v286h286v-286q0 -113 -71 -181.5t-215 -72.5z" />
<glyph unicode="&#x201e;" horiz-adv-x="980" d="M150 0v287h286v-287q0 -113 -71 -181.5t-215 -72.5v125q143 6 143 129h-143zM545 0v287h286v-287q0 -113 -71 -181.5t-215 -72.5v125q143 6 143 129h-143z" />
<glyph unicode="&#x2020;" horiz-adv-x="1146" d="M117 975v213h332v344h249v-344h332v-213h-332v-1243h-249v1243h-332z" />
<glyph unicode="&#x2021;" horiz-adv-x="1146" d="M117 76v213h332v686h-332v213h332v344h249v-344h332v-213h-332v-686h332v-213h-332v-344h-249v344h-332z" />
<glyph unicode="&#x2022;" horiz-adv-x="741" d="M102 668q0 110 79.5 189t189.5 79t189 -79t79 -189t-79 -189.5t-189 -79.5t-189.5 79.5t-79.5 189.5z" />
<glyph unicode="&#x2026;" horiz-adv-x="1757" d="M150 0v287h286v-287h-286zM735 0v287h287v-287h-287zM1321 0v287h287v-287h-287z" />
<glyph unicode="&#x202f;" horiz-adv-x="388" />
<glyph unicode="&#x2030;" horiz-adv-x="2385" d="M109 1071q0 387 307 387t307 -387t-307 -387t-307 387zM322 1071q0 -116 20.5 -162.5t73.5 -46.5t73.5 46.5t20.5 162.5t-20.5 162.5t-73.5 46.5t-73.5 -46.5t-20.5 -162.5zM444 0l588 1434h213l-588 -1434h-213zM967 362q0 388 307 388t307 -388q0 -387 -307 -387 t-307 387zM1180 362q0 -115 20.5 -161.5t73.5 -46.5t73.5 46.5t20.5 161.5q0 116 -20.5 162.5t-73.5 46.5t-73.5 -46.5t-20.5 -162.5zM1663 362q0 388 307 388t307 -388q0 -387 -307 -387t-307 387zM1876 362q0 -115 20.5 -161.5t73.5 -46.5t73.5 46.5t20.5 161.5 q0 116 -20.5 162.5t-73.5 46.5t-73.5 -46.5t-20.5 -162.5z" />
<glyph unicode="&#x2039;" horiz-adv-x="618" d="M78 551v176l463 274v-221l-258 -141l258 -141v-222z" />
<glyph unicode="&#x203a;" horiz-adv-x="618" d="M78 276v222l258 141l-258 141v221l463 -274v-176z" />
<glyph unicode="&#x2044;" horiz-adv-x="366" d="M-279 0l701 1434h223l-700 -1434h-224z" />
<glyph unicode="&#x205f;" horiz-adv-x="485" />
<glyph unicode="&#x20ac;" horiz-adv-x="1318" d="M16 530v132h82v108h-82v131h90q23 223 125 361q144 196 441 196q252 0 399.5 -138t159.5 -374h-285q-8 128 -78.5 200.5t-195.5 72.5q-146 0 -215 -105q-52 -76 -66 -213h367l-23 -131h-352v-108h334l-23 -132h-303q14 -138 66 -211q69 -104 215 -104q126 0 196 72 t78 200h285q-12 -236 -159.5 -374t-399.5 -138q-296 0 -441 197q-102 135 -125 358h-90z" />
<glyph unicode="&#x2122;" horiz-adv-x="1376" d="M18 1282v152h521v-152h-168v-532h-185v532h-168zM584 750v684h159l193 -463l192 463h160v-684h-176v292l-123 -292h-106l-123 292v-292h-176z" />
<glyph unicode="&#x2202;" horiz-adv-x="1161" d="M88 426q0 236 129.5 370t329.5 134q89 0 153.5 -32t92.5 -91q4 86 4 115q0 162 -38.5 236.5t-129.5 74.5q-69 0 -113.5 -38.5t-62.5 -107.5h-279q44 178 167 274.5t308 96.5q220 0 321 -140t101 -425q0 -466 -131 -692t-426 -226q-196 0 -311 119t-115 332zM365 412 q0 -101 46.5 -155t131.5 -54q104 0 161.5 75.5t59.5 202.5q0 107 -45 164t-133 57q-105 0 -163 -79t-58 -211z" />
<glyph unicode="&#x2206;" horiz-adv-x="1277" d="M18 0l461 1434h320l461 -1434h-1242zM379 236h520l-260 909z" />
<glyph unicode="&#x220f;" horiz-adv-x="1343" d="M158 -227v1661h1028v-1661h-285v1421h-459v-1421h-284z" />
<glyph unicode="&#x2211;" horiz-adv-x="1169" d="M98 4l324 590l-324 600v240h973v-240h-653l301 -565v-72l-299 -545h651v-239h-973v231z" />
<glyph unicode="&#x221a;" horiz-adv-x="1169" d="M18 541h299l181 -426l389 1421h282l-499 -1763h-295z" />
<glyph unicode="&#x221e;" horiz-adv-x="1601" d="M117 678q0 145 91.5 229t248.5 84q99 0 187.5 -46t156.5 -138q68 92 156.5 138t187.5 46q157 0 248.5 -84t91.5 -229t-91.5 -229t-248.5 -84q-99 0 -187.5 46t-156.5 138q-68 -92 -156.5 -138t-187.5 -46q-157 0 -248.5 84t-91.5 229zM354 678q0 -54 33.5 -85.5 t87.5 -31.5q106 0 191 117q-85 117 -191 117q-54 0 -87.5 -31.5t-33.5 -85.5zM936 678q85 -117 190 -117q54 0 87.5 31.5t33.5 85.5t-33.5 85.5t-87.5 31.5q-105 0 -190 -117z" />
<glyph unicode="&#x222b;" horiz-adv-x="880" d="M57 -10h111q77 0 107 27t30 92v1208q0 168 85.5 241.5t279.5 73.5q97 0 153 -10v-203h-110q-77 0 -107.5 -27t-30.5 -92v-1208q0 -168 -85 -241.5t-279 -73.5q-98 0 -154 10v203z" />
<glyph unicode="&#x2248;" d="M117 305q0 150 64 238t192 88q59 0 109 -17.5t77.5 -38t60.5 -38t62 -17.5q73 0 76 98h243q0 -149 -64 -237t-192 -88q-59 0 -109 17t-77.5 38t-60.5 38t-62 17q-73 0 -76 -98h-243zM117 715q0 149 64 237t192 88q59 0 109 -17t77.5 -38t60.5 -38t62 -17q73 0 76 98h243 q0 -150 -64 -238t-192 -88q-59 0 -109 17.5t-77.5 38t-60.5 38t-62 17.5q-73 0 -76 -98h-243z" />
<glyph unicode="&#x2260;" d="M98 365v215h322l100 174h-422v215h547l127 217h176l-127 -217h199v-215h-324l-100 -174h424v-215h-549l-125 -218h-176l125 218h-197z" />
<glyph unicode="&#x2264;" d="M98 0v213h922v-213h-922zM115 629v225l889 342v-242l-580 -213l580 -213v-241z" />
<glyph unicode="&#x2265;" d="M98 0v213h922v-213h-922zM115 287v241l579 213l-579 213v242l889 -342v-225z" />
<glyph unicode="&#x25ca;" horiz-adv-x="1183" d="M92 618l500 941l500 -941l-500 -940zM371 618l221 -411l221 411l-221 410z" />
<glyph unicode="&#x25fc;" horiz-adv-x="1024" d="M0 0v1024h1024v-1024h-1024z" />
</font>
</defs>
</svg>
