<?xml version="1.0" standalone="no"?>
<!DOCTYPE svg PUBLIC "-//W3C//DTD SVG 1.1//EN" "http://www.w3.org/Graphics/SVG/1.1/DTD/svg11.dtd" >
<svg xmlns="http://www.w3.org/2000/svg" xmlns:xlink="http://www.w3.org/1999/xlink" version="1.1">
<metadata></metadata>
<defs>
<font id="core_sans_e25_extralight" horiz-adv-x="1052" >
<font-face units-per-em="2048" ascent="1638" descent="-410" />
<missing-glyph horiz-adv-x="532" />
<glyph unicode="&#xfb01;" horiz-adv-x="1048" d="M70 942v82h155v143q0 157 65.5 219t229.5 62q32 0 98 -4v-78h-92q-124 0 -167.5 -42.5t-43.5 -164.5v-135h303v-82h-303v-942h-90v942h-155zM807 0v1024h90v-1024h-90zM807 1253v181h90v-181h-90z" />
<glyph unicode="&#xfb02;" horiz-adv-x="1048" d="M70 942v82h155v143q0 157 65.5 219t229.5 62q32 0 98 -4v-78h-92q-124 0 -167.5 -42.5t-43.5 -164.5v-135h303v-82h-303v-942h-90v942h-155zM807 0v1434h90v-1434h-90z" />
<glyph horiz-adv-x="682" />
<glyph horiz-adv-x="0" />
<glyph horiz-adv-x="0" />
<glyph unicode="&#xd;" horiz-adv-x="485" />
<glyph unicode=" "  horiz-adv-x="532" />
<glyph unicode="&#x09;" horiz-adv-x="532" />
<glyph unicode="&#xa0;" horiz-adv-x="532" />
<glyph unicode="!" horiz-adv-x="565" d="M231 0v178h103v-178h-103zM236 1309v125h94v-125l-6 -887h-82z" />
<glyph unicode="&#x22;" horiz-adv-x="694" d="M188 1024v410h86v-410h-86zM420 1024v410h86v-410h-86z" />
<glyph unicode="#" horiz-adv-x="1323" d="M78 432v78h254l90 414h-275v77h291l94 433h86l-94 -433h398l94 433h86l-94 -433h237v-77h-254l-90 -414h275v-78h-291l-94 -432h-86l94 432h-398l-94 -432h-86l94 432h-237zM418 510h397l90 414h-397z" />
<glyph unicode="$" horiz-adv-x="1157" d="M117 369v45h94v-45q0 -125 84.5 -209t236.5 -97v639l-69 15q-346 69 -346 366q0 155 109.5 260.5t305.5 114.5v154h82v-156q185 -15 288.5 -119t103.5 -254v-34h-95v34q0 121 -78 197.5t-219 89.5v-594l60 -12q199 -39 292 -137.5t93 -257.5q0 -165 -117 -276t-328 -118 v-153h-82v155q-199 15 -307 123.5t-108 268.5zM211 1083q0 -118 69.5 -186t208.5 -96l43 -8v577q-153 -6 -237 -83t-84 -204zM614 61q165 6 258 91.5t93 216.5q0 126 -74 201t-244 110l-33 6v-625z" />
<glyph unicode="%" horiz-adv-x="1595" d="M131 1071q0 196 72.5 291.5t206.5 95.5t206 -95.5t72 -291.5t-72 -291.5t-206 -95.5t-206.5 95.5t-72.5 291.5zM211 1071q0 -170 51.5 -243.5t147.5 -73.5t147 73t51 244t-51 244.5t-147 73.5t-147.5 -74t-51.5 -244zM463 0l588 1434h82l-588 -1434h-82zM907 362 q0 196 72.5 292t206.5 96t206 -96t72 -292t-72 -291.5t-206 -95.5t-206.5 95.5t-72.5 291.5zM987 362q0 -170 51.5 -243.5t147.5 -73.5t147 73t51 244t-51 244.5t-147 73.5t-147.5 -74t-51.5 -244z" />
<glyph unicode="&#x26;" horiz-adv-x="1294" d="M117 381q0 278 260 432q-87 89 -120.5 162t-33.5 160q0 152 95.5 237.5t254.5 85.5t255 -86t96 -237v-41h-90v39q0 115 -70.5 179t-190.5 64t-190 -63.5t-70 -179.5q0 -71 32 -133t120 -152l528 -531q79 157 88 394h90q-10 -285 -110 -461l248 -250h-123l-174 174 q-156 -199 -445 -199q-204 0 -327 111t-123 295zM207 383q0 -149 100.5 -237.5t259.5 -88.5q249 0 379 183l-514 516q-225 -132 -225 -373z" />
<glyph unicode="'" horiz-adv-x="462" d="M188 1024v410h86v-410h-86z" />
<glyph unicode="(" horiz-adv-x="643" d="M188 709q0 197 10 341.5t32.5 248t53.5 169t79 103t102.5 51.5t130.5 14v-77q-60 0 -103 -13t-80.5 -48t-61 -95t-40.5 -155t-24.5 -227t-7.5 -312t7.5 -312t24.5 -227t40.5 -155t61 -95t80.5 -48t103 -13v-78q-76 0 -130.5 14t-102.5 52t-79 103.5t-53.5 168.5 t-32.5 248t-10 342z" />
<glyph unicode=")" horiz-adv-x="643" d="M47 -141q61 0 103.5 13t80.5 48t61.5 95t40.5 155t24.5 227t7.5 312t-7.5 312t-24.5 227t-40.5 155t-61.5 95t-80.5 48t-103.5 13v77q76 0 130.5 -14t102.5 -51.5t79 -103t53.5 -169t32.5 -248t10 -341.5t-10 -342t-32.5 -248t-53.5 -168.5t-79 -103.5t-102.5 -52 t-130.5 -14v78z" />
<glyph unicode="*" horiz-adv-x="954" d="M82 489l319 179l-319 178l43 76l315 -191l-6 369h86l-6 -369l315 191l43 -76l-321 -178l321 -179l-43 -75l-315 188l6 -366h-86l6 366l-315 -188z" />
<glyph unicode="+" horiz-adv-x="1077" d="M119 629v78h377v393h86v-393h376v-78h-376v-393h-86v393h-377z" />
<glyph unicode="," horiz-adv-x="561" d="M195 -176q42 14 60.5 46.5t18.5 94.5v31h-49v190h111v-213q0 -90 -32 -139t-109 -70v60z" />
<glyph unicode="-" horiz-adv-x="815" d="M119 625v86h577v-86h-577z" />
<glyph unicode="." horiz-adv-x="561" d="M225 0v186h111v-186h-111z" />
<glyph unicode="/" horiz-adv-x="747" d="M-4 -190l661 1794h95l-662 -1794h-94z" />
<glyph unicode="0" horiz-adv-x="1122" d="M111 717q0 243 31 380t100 224q109 137 319 137q211 0 320 -137q69 -87 100 -224t31 -380t-31 -380t-100 -224q-110 -138 -320 -138q-209 0 -319 138q-69 87 -100 224t-31 380zM201 717q0 -224 25.5 -351t80.5 -196q89 -113 254 -113t254 113q55 69 81 196t26 351 t-26 351t-81 196q-88 112 -254 112t-254 -112q-55 -69 -80.5 -196t-25.5 -351z" />
<glyph unicode="1" horiz-adv-x="1122" d="M254 1167v90l389 177h82v-1434h-90v1339z" />
<glyph unicode="2" horiz-adv-x="1122" d="M145 999v41q0 85 27 160t78.5 133t131.5 91.5t179 33.5t179 -33.5t131.5 -91.5t78.5 -133t27 -160q0 -101 -29 -176t-112 -166l-549 -616h710v-82h-831v78l598 674q65 74 94 142t29 144q0 149 -86.5 243.5t-239.5 94.5q-152 0 -238.5 -95t-86.5 -243v-39h-91z" />
<glyph unicode="3" horiz-adv-x="1122" d="M119 406v10h90v-8q0 -159 97 -255t251 -96q153 0 250.5 92t97.5 240q0 150 -90 241t-246 91h-137v82h148q91 0 156.5 42t95.5 106t30 139q0 127 -83.5 206.5t-221.5 79.5q-141 0 -223 -79t-82 -207v-29h-90v35q0 156 107.5 259t287.5 103t287.5 -103t107.5 -259 q0 -128 -61.5 -215.5t-173.5 -118.5q125 -26 201.5 -123t76.5 -250q0 -189 -120 -301.5t-318 -112.5t-318 117t-120 314z" />
<glyph unicode="4" horiz-adv-x="1122" d="M117 340v82l620 1012h97v-1012h198v-82h-198v-340h-91v340h-626zM217 422h526v858z" />
<glyph unicode="5" horiz-adv-x="1122" d="M147 373h91q17 -155 103 -235.5t228 -80.5q161 0 248.5 103t87.5 293t-87.5 292.5t-248.5 102.5q-98 0 -172 -51t-112 -148h-90q6 131 18 392.5t18 392.5h687v-82h-601q-4 -96 -14 -285t-14 -289q41 71 117 111.5t176 40.5q192 0 302.5 -125.5t110.5 -353.5 q0 -225 -113 -350.5t-313 -125.5q-185 0 -294 105t-128 293z" />
<glyph unicode="6" horiz-adv-x="1122" d="M135 600v62q0 297 46.5 472t140 249.5t249.5 74.5q166 0 270 -88t124 -258h-93q-17 133 -97.5 198.5t-205.5 65.5q-185 0 -261 -146t-81 -493q44 89 135 141t216 52q197 0 312.5 -128t115.5 -349q0 -220 -118.5 -349t-316.5 -129q-282 0 -391 250q-28 64 -36.5 152 t-8.5 223zM227 453q0 -185 94 -290.5t250 -105.5t250 105.5t94 290.5t-94 290t-250 105t-250 -105t-94 -290z" />
<glyph unicode="7" horiz-adv-x="1122" d="M141 1352v82h830v-76l-520 -1358h-97l523 1352h-736z" />
<glyph unicode="8" horiz-adv-x="1122" d="M102 381q0 142 76.5 242.5t210.5 132.5q-110 37 -177 124t-67 212q0 164 113 265t303 101t303 -101t113 -265q0 -125 -67 -212t-177 -124q134 -32 210.5 -132.5t76.5 -242.5q0 -190 -125.5 -298t-333.5 -108t-333.5 108t-125.5 298zM193 387q0 -155 101.5 -242.5 t266.5 -87.5t267 87.5t102 242.5t-102 242.5t-267 87.5t-266.5 -87.5t-101.5 -242.5zM236 1087q0 -132 89.5 -210t235.5 -78t236 78t90 210t-90 210.5t-236 78.5t-235.5 -78.5t-89.5 -210.5z" />
<glyph unicode="9" horiz-adv-x="1122" d="M117 981q0 220 118 348.5t316 128.5q282 0 391 -250q28 -64 36.5 -151.5t8.5 -222.5v-62q0 -297 -46.5 -472t-140 -250t-249.5 -75q-166 0 -269.5 88.5t-123.5 258.5h92q17 -133 97.5 -199t205.5 -66q185 0 261 146t81 493q-44 -89 -134 -140.5t-216 -51.5 q-197 0 -312.5 128t-115.5 349zM207 981q0 -185 94 -290t250 -105t250 105t94 290t-94 290t-250 105t-250 -105t-94 -290z" />
<glyph unicode=":" horiz-adv-x="561" d="M225 0v186h111v-186h-111zM225 838v186h111v-186h-111z" />
<glyph unicode=";" horiz-adv-x="561" d="M195 -176q42 14 60.5 46.5t18.5 94.5v31h-49v190h111v-213q0 -90 -32 -139t-109 -70v60zM225 838v186h111v-186h-111z" />
<glyph unicode="&#x3c;" horiz-adv-x="1077" d="M135 629v78l807 399v-90l-709 -348l709 -349v-90z" />
<glyph unicode="=" horiz-adv-x="1077" d="M119 442v82h839v-82h-839zM119 811v82h839v-82h-839z" />
<glyph unicode="&#x3e;" horiz-adv-x="1077" d="M135 229v90l709 349l-709 348v90l807 -399v-78z" />
<glyph unicode="?" horiz-adv-x="1060" d="M129 1059v6q0 172 103 282.5t292 110.5q188 0 292 -110.5t104 -282.5q0 -116 -39.5 -193t-143.5 -165q-112 -93 -145 -150t-33 -143v-43h-90v47q0 103 38 168t161 170q91 77 126 144.5t35 162.5q0 142 -81 227.5t-224 85.5t-224 -88.5t-81 -228.5h-90zM463 0v178h102 v-178h-102z" />
<glyph unicode="@" horiz-adv-x="1527" d="M164 535q0 204 20.5 354.5t64 260.5t115 177t169.5 99t231 32t231 -32t169.5 -99t115 -177t64 -260.5t20.5 -354.5v-35q0 -231 -104.5 -357.5t-301.5 -126.5t-300 125t-103 348q0 225 103 349.5t294 124.5q118 0 200.5 -46t119.5 -124q-23 320 -140 455.5t-368 135.5 q-119 0 -204 -28t-146.5 -87.5t-98 -161t-53 -240t-16.5 -332.5q0 -162 11 -283.5t36.5 -218t64.5 -161t98 -106.5t134 -60.5t174 -18.5q153 0 262 65l29 -71q-133 -68 -291 -68q-133 0 -231 32t-169.5 99t-115 177t-64 260t-20.5 354zM641 489q0 -194 82 -295.5t238 -101.5 q157 0 239 101t82 296q0 194 -82 296t-239 102q-155 0 -237.5 -102.5t-82.5 -295.5z" />
<glyph unicode="A" horiz-adv-x="1204" d="M23 0l530 1434h98l531 -1434h-101l-133 367h-692l-133 -367h-100zM287 453h628l-313 864z" />
<glyph unicode="B" horiz-adv-x="1216" d="M164 0v1434h508q204 0 308.5 -95t104.5 -270q0 -264 -223 -334q129 -27 196.5 -114.5t67.5 -235.5q0 -196 -112 -290.5t-334 -94.5h-516zM258 86h406q198 0 283 75.5t85 227.5t-85 227.5t-283 75.5h-406v-606zM258 778h397q336 0 336 285t-336 285h-397v-570z" />
<glyph unicode="C" horiz-adv-x="1273" d="M117 717q0 400 147 579q134 162 385 162q233 0 367 -130.5t149 -358.5h-96q-14 191 -120.5 297t-299.5 106q-204 0 -311 -131q-68 -85 -97.5 -212.5t-29.5 -311.5t29.5 -311.5t97.5 -212.5q107 -132 311 -132q193 0 299.5 106.5t120.5 297.5h96q-15 -228 -149 -359 t-367 -131q-251 0 -385 162q-147 179 -147 580z" />
<glyph unicode="D" horiz-adv-x="1294" d="M164 0v1434h483q121 0 213.5 -37t151.5 -100.5t96.5 -156.5t52.5 -195.5t15 -227.5t-15 -227.5t-52.5 -195.5t-96.5 -156.5t-151.5 -100.5t-213.5 -37h-483zM258 86h381q101 0 178.5 31.5t127 86t80.5 135.5t43.5 172.5t12.5 205.5t-12.5 205.5t-43.5 172.5t-80.5 135.5 t-127 86t-178.5 31.5h-381v-1262z" />
<glyph unicode="E" horiz-adv-x="1062" d="M164 0v1434h801v-86h-707v-570h633v-86h-633v-606h717v-86h-811z" />
<glyph unicode="F" horiz-adv-x="1026" d="M164 0v1434h790v-86h-696v-592h633v-86h-633v-670h-94z" />
<glyph unicode="G" horiz-adv-x="1316" d="M117 717q0 400 147 579q134 162 385 162q233 0 367 -130.5t149 -358.5h-96q-14 191 -120.5 297t-299.5 106q-204 0 -311 -131q-68 -85 -97.5 -212.5t-29.5 -311.5t29.5 -311.5t97.5 -212.5q107 -132 311 -132t317 130t113 378v60h-420v86h510v-715h-73l-13 242 q-45 -125 -156.5 -196t-277.5 -71q-251 0 -385 162q-147 179 -147 580z" />
<glyph unicode="H" horiz-adv-x="1273" d="M164 0v1434h94v-658h758v658h94v-1434h-94v690h-758v-690h-94z" />
<glyph unicode="I" horiz-adv-x="421" d="M164 0v1434h94v-1434h-94z" />
<glyph unicode="J" horiz-adv-x="1046" d="M55 440h95q0 -178 82.5 -278.5t240.5 -100.5q156 0 239 99.5t83 283.5v990h94v-996q0 -220 -106.5 -341.5t-309.5 -121.5q-206 0 -312 121.5t-106 343.5z" />
<glyph unicode="K" horiz-adv-x="1126" d="M164 0v1434h94v-656h199l497 656h111l-535 -701l598 -733h-112l-559 692h-199v-692h-94z" />
<glyph unicode="L" horiz-adv-x="1005" d="M164 0v1434h94v-1348h717v-86h-811z" />
<glyph unicode="M" horiz-adv-x="1703" d="M164 0v1434h102l586 -1328l586 1328h102v-1434h-94v1227l-543 -1227h-102l-543 1227v-1227h-94z" />
<glyph unicode="N" horiz-adv-x="1294" d="M164 0v1434h94l778 -1262v1262h94v-1434h-94l-778 1262v-1262h-94z" />
<glyph unicode="O" horiz-adv-x="1302" d="M119 717q0 400 147 579q134 162 385 162t385 -162q148 -181 148 -579q0 -399 -148 -580q-134 -162 -385 -162t-385 162q-147 179 -147 580zM213 717q0 -184 29.5 -311.5t97.5 -212.5q107 -132 311 -132q205 0 312 132q68 85 97.5 212.5t29.5 311.5t-29.5 311.5 t-97.5 212.5q-107 131 -312 131q-204 0 -311 -131q-68 -85 -97.5 -212.5t-29.5 -311.5z" />
<glyph unicode="P" horiz-adv-x="1196" d="M164 0v1434h518q217 0 330.5 -116t113.5 -319t-113.5 -318.5t-330.5 -115.5h-424v-565h-94zM258 651h418q174 0 265 91.5t91 256.5t-91 257t-265 92h-418v-697z" />
<glyph unicode="Q" horiz-adv-x="1294" d="M119 717q0 400 147 579q134 162 385 162t385 -162q148 -181 148 -579q0 -350 -113 -533l193 -164l-62 -69l-188 160q-133 -136 -363 -136q-251 0 -385 162q-147 179 -147 580zM213 717q0 -184 29.5 -311.5t97.5 -212.5q107 -132 311 -132q187 0 293 109l-237 205l61 69 l231 -198q91 159 91 471q0 184 -29.5 311.5t-97.5 212.5q-107 131 -312 131q-204 0 -311 -131q-68 -85 -97.5 -212.5t-29.5 -311.5z" />
<glyph unicode="R" horiz-adv-x="1241" d="M164 0v1434h522q220 0 330 -110t110 -306q0 -149 -62.5 -246t-184.5 -135q104 -22 156.5 -92.5t62.5 -210.5l14 -203q6 -78 25 -131h-97q-15 39 -22 129l-14 205q-9 139 -83 199.5t-245 60.5h-418v-594h-94zM258 680h422q174 0 263 85t89 249t-89 249t-263 85h-422v-668z " />
<glyph unicode="S" horiz-adv-x="1157" d="M117 369v45h94v-45q0 -136 100 -222t277 -86t277 86t100 222q0 126 -74 201t-244 110l-184 37q-346 69 -346 366q0 162 117.5 268.5t326.5 106.5t327 -106.5t118 -268.5v-34h-95v34q0 132 -92.5 210.5t-257.5 78.5t-257.5 -78.5t-92.5 -210.5q0 -118 69.5 -186t208.5 -96 l185 -37q199 -39 292 -137.5t93 -257.5q0 -170 -124 -282t-347 -112t-347 112t-124 282z" />
<glyph unicode="T" horiz-adv-x="1040" d="M35 1348v86h971v-86h-439v-1348h-94v1348h-438z" />
<glyph unicode="U" horiz-adv-x="1314" d="M154 528v906h94v-895q0 -235 98.5 -356.5t310.5 -121.5t311 121.5t99 356.5v895h94v-906q0 -259 -123.5 -406t-380.5 -147t-380 147t-123 406z" />
<glyph unicode="V" horiz-adv-x="1204" d="M23 1434h100l479 -1303l479 1303h101l-531 -1434h-98z" />
<glyph unicode="W" horiz-adv-x="1888" d="M35 1434h96l371 -1297l393 1297h98l393 -1297l371 1297h96l-411 -1434h-105l-393 1292l-393 -1292h-105z" />
<glyph unicode="X" horiz-adv-x="1183" d="M43 0l487 733l-462 701h106l418 -631l418 631h106l-463 -701l488 -733h-109l-440 664l-440 -664h-109z" />
<glyph unicode="Y" horiz-adv-x="1183" d="M35 1434h102l455 -783l455 783h102l-510 -869v-565h-94v565z" />
<glyph unicode="Z" horiz-adv-x="1073" d="M94 0v80l766 1268h-745v86h854v-80l-766 -1268h776v-86h-885z" />
<glyph unicode="[" horiz-adv-x="675" d="M188 -190v1794h394v-78h-303v-1639h303v-77h-394z" />
<glyph unicode="\" horiz-adv-x="747" d="M-4 1604h94l662 -1794h-95z" />
<glyph unicode="]" horiz-adv-x="675" d="M94 -113h303v1639h-303v78h393v-1794h-393v77z" />
<glyph unicode="^" horiz-adv-x="835" d="M47 958l332 476h78l331 -476h-94l-276 400l-277 -400h-94z" />
<glyph unicode="_" horiz-adv-x="1024" d="M0 -248h1024v-63h-1024v63z" />
<glyph unicode="`" horiz-adv-x="679" d="M180 1495h105l215 -330h-92z" />
<glyph unicode="a" horiz-adv-x="1048" d="M90 301q0 151 104.5 238.5t294.5 87.5q131 0 219 -39t123 -105v207q0 129 -78.5 203t-226.5 74q-140 0 -215 -63t-88 -171h-90q14 145 113.5 230.5t279.5 85.5q191 0 293.5 -96t102.5 -267v-545q0 -81 26 -141h-92q-25 46 -25 119q-35 -68 -122.5 -106t-219.5 -38 q-190 0 -294.5 87t-104.5 239zM180 301q0 -116 82.5 -180t243.5 -64t243 64t82 180t-82 180t-243 64t-243.5 -64t-82.5 -180z" />
<glyph unicode="b" horiz-adv-x="1095" d="M141 0v1434h90v-592q35 95 123 151t221 56q206 0 314 -138.5t108 -398.5t-108 -398.5t-314 -138.5q-133 0 -221 56t-123 151v-182h-90zM231 512q0 -455 338 -455t338 455t-338 455t-338 -455z" />
<glyph unicode="c" horiz-adv-x="1034" d="M98 512q0 258 107 397.5t321 139.5q178 0 284 -91.5t126 -257.5h-92q-17 129 -98 198t-220 69q-338 0 -338 -455t338 -455q139 0 220 69t98 198h92q-20 -166 -126 -257.5t-284 -91.5q-214 0 -321 139.5t-107 397.5z" />
<glyph unicode="d" horiz-adv-x="1095" d="M98 512q0 260 108 398.5t314 138.5q133 0 221 -56t123 -151v592h90v-1434h-90v182q-35 -95 -123 -151t-221 -56q-206 0 -314 138.5t-108 398.5zM188 512q0 -455 338 -455t338 455t-338 455t-338 -455z" />
<glyph unicode="e" d="M98 512q0 255 107.5 396t320.5 141t320.5 -141t107.5 -396v-27h-766q9 -428 338 -428q262 0 314 238h92q-31 -154 -134 -237t-272 -83q-213 0 -320.5 141t-107.5 396zM190 567h672q-22 400 -336 400q-317 0 -336 -400z" />
<glyph unicode="f" horiz-adv-x="665" d="M70 942v82h155v143q0 157 65.5 219t229.5 62q32 0 98 -4v-78h-92q-124 0 -167.5 -42.5t-43.5 -164.5v-135h303v-82h-303v-942h-90v942h-155z" />
<glyph unicode="g" horiz-adv-x="1095" d="M98 512q0 260 108 398.5t314 138.5q133 0 221 -56t123 -151v182h90v-1087q0 -190 -106 -301t-297 -111q-168 0 -269 81t-122 220h90q17 -103 97.5 -161t203.5 -58q144 0 228.5 85.5t84.5 239.5v250q-35 -95 -123 -151t-221 -56q-206 0 -314 138.5t-108 398.5zM188 512 q0 -455 338 -455t338 455t-338 455t-338 -455z" />
<glyph unicode="h" horiz-adv-x="1093" d="M141 0v1434h90v-623q42 109 134 173.5t227 64.5q176 0 270 -110t94 -308v-631h-90v602q0 365 -286 365q-154 0 -250 -121t-99 -332v-514h-90z" />
<glyph unicode="i" horiz-adv-x="393" d="M152 0v1024h90v-1024h-90zM152 1253v181h90v-181h-90z" />
<glyph unicode="j" horiz-adv-x="393" d="M-55 -365h49q81 0 119.5 40t38.5 128v1221h90v-1219q0 -131 -60 -191t-182 -60q-41 0 -55 2v79zM152 1253v181h90v-181h-90z" />
<glyph unicode="k" horiz-adv-x="911" d="M141 0v1434h90v-861h140l372 451h111l-405 -489l452 -535h-113l-419 492h-138v-492h-90z" />
<glyph unicode="l" horiz-adv-x="393" d="M152 0v1434h90v-1434h-90z" />
<glyph unicode="m" horiz-adv-x="1695" d="M141 0v1024h90v-209q36 111 119 172.5t207 61.5q126 0 210.5 -65.5t109.5 -184.5q95 250 344 250q161 0 249.5 -95t88.5 -272v-682h-91v678q0 143 -67.5 216t-192.5 73q-138 0 -225.5 -121.5t-87.5 -341.5v-504h-90v678q0 143 -67.5 216t-192.5 73q-139 0 -226.5 -121.5 t-87.5 -341.5v-504h-90z" />
<glyph unicode="n" horiz-adv-x="1093" d="M141 0v1024h90v-213q42 109 134 173.5t227 64.5q176 0 270 -110t94 -308v-631h-90v602q0 365 -286 365q-154 0 -250 -121t-99 -332v-514h-90z" />
<glyph unicode="o" d="M98 512q0 255 107.5 396t320.5 141t320.5 -141t107.5 -396t-107.5 -396t-320.5 -141t-320.5 141t-107.5 396zM188 512q0 -455 338 -455t338 455t-338 455t-338 -455z" />
<glyph unicode="p" horiz-adv-x="1095" d="M141 -446v1470h90v-182q35 95 123 151t221 56q206 0 314 -138.5t108 -398.5t-108 -398.5t-314 -138.5q-133 0 -221 56t-123 151v-628h-90zM231 512q0 -455 338 -455t338 455t-338 455t-338 -455z" />
<glyph unicode="q" horiz-adv-x="1095" d="M98 512q0 260 108 398.5t314 138.5q133 0 221 -56t123 -151v182h90v-1470h-90v628q-35 -95 -123 -151t-221 -56q-206 0 -314 138.5t-108 398.5zM188 512q0 -455 338 -455t338 455t-338 455t-338 -455z" />
<glyph unicode="r" horiz-adv-x="651" d="M141 0v1024h90v-205q68 230 312 230q49 0 73 -9l-2 -79q-24 6 -71 6q-149 0 -230.5 -115.5t-81.5 -339.5v-512h-90z" />
<glyph unicode="s" horiz-adv-x="948" d="M98 266v37h90v-37q0 -94 81 -151.5t210 -57.5q128 0 209.5 57t81.5 152q0 83 -56.5 132t-185.5 75l-120 25q-162 34 -232 97.5t-70 176.5q0 120 97 198.5t262 78.5q163 0 260.5 -77.5t97.5 -199.5v-35h-90v35q0 87 -71 141t-197 54t-197 -54t-71 -141q0 -81 54 -125 t177 -69l121 -25q164 -34 237.5 -102t73.5 -185q0 -131 -104 -211t-277 -80q-171 0 -276 79.5t-105 211.5z" />
<glyph unicode="t" horiz-adv-x="690" d="M51 942v82h158v291h90v-291h322v-82h-322v-663q0 -122 52.5 -166.5t168.5 -44.5h101v-80q-39 -2 -109 -2q-160 0 -231.5 61.5t-71.5 216.5v678h-158z" />
<glyph unicode="u" horiz-adv-x="1093" d="M137 393v631h90v-602q0 -365 287 -365q154 0 249.5 120.5t98.5 332.5v514h90v-1024h-90v213q-42 -109 -134 -173.5t-226 -64.5q-176 0 -270.5 110t-94.5 308z" />
<glyph unicode="v" horiz-adv-x="1007" d="M41 1024h96l367 -915l366 915h97l-414 -1024h-98z" />
<glyph unicode="w" horiz-adv-x="1601" d="M35 1024h94l311 -909l312 909h98l311 -909l312 909h94l-357 -1024h-98l-311 907l-312 -907h-98z" />
<glyph unicode="x" horiz-adv-x="925" d="M18 0l390 524l-369 500h104l320 -430l319 430h105l-369 -500l389 -524h-104l-340 455l-340 -455h-105z" />
<glyph unicode="y" horiz-adv-x="1007" d="M41 1024h96l367 -913l366 913h97l-521 -1288q-44 -109 -99.5 -145.5t-156.5 -36.5q-29 0 -43 2v79h37q74 0 110.5 24t67.5 103l95 236z" />
<glyph unicode="z" horiz-adv-x="901" d="M86 0v78l606 864h-590v82h699v-78l-606 -864h620v-82h-729z" />
<glyph unicode="{" horiz-adv-x="688" d="M94 668v77h37q62 0 94.5 36.5t32.5 101.5v397q0 171 72.5 247.5t218.5 76.5h45v-78h-37q-109 0 -159 -57.5t-50 -194.5v-397q0 -140 -112 -170q112 -30 112 -170v-398q0 -137 50 -194.5t159 -57.5h37v-77h-45q-146 0 -218.5 76t-72.5 247v397q0 65 -32.5 101.5 t-94.5 36.5h-37z" />
<glyph unicode="|" horiz-adv-x="557" d="M233 -190v1794h91v-1794h-91z" />
<glyph unicode="}" horiz-adv-x="688" d="M94 -113h37q109 0 159 57.5t50 194.5v398q0 139 113 170q-113 31 -113 170v397q0 137 -50 194.5t-159 57.5h-37v78h45q146 0 218.5 -76.5t72.5 -247.5v-397q0 -65 32.5 -101.5t94.5 -36.5h37v-77h-37q-62 0 -94.5 -36.5t-32.5 -101.5v-397q0 -171 -72.5 -247t-218.5 -76 h-45v77z" />
<glyph unicode="~" horiz-adv-x="1077" d="M145 524q0 146 56 223.5t159 77.5q61 0 105.5 -24.5t71 -59.5t50 -69.5t55.5 -59t73 -24.5q130 0 133 225h84q0 -146 -56 -223.5t-159 -77.5q-61 0 -105.5 24.5t-71 59.5t-50 70t-55.5 59.5t-73 24.5q-130 0 -133 -226h-84z" />
<glyph unicode="&#xa1;" horiz-adv-x="565" d="M231 846v178h103v-178h-103zM236 -285l6 887h82l6 -887v-125h-94v125z" />
<glyph unicode="&#xa2;" horiz-adv-x="1034" d="M98 512q0 242 95.5 380t285.5 155v159h86v-159q160 -9 255.5 -99.5t115.5 -247.5h-92q-15 120 -86 188t-193 77l2 -906q121 9 191.5 77.5t85.5 187.5h92q-19 -156 -114 -246.5t-255 -100.5l2 -159h-90v159q-190 17 -285.5 155t-95.5 380zM188 512q0 -424 291 -453v904 q-291 -29 -291 -451z" />
<glyph unicode="&#xa3;" horiz-adv-x="1060" d="M117 614v78h104q-19 69 -28 108t-19 109.5t-10 137.5q0 86 24 159.5t71 130t123.5 89t174.5 32.5t174.5 -32.5t123.5 -89t71 -130t24 -159.5v-27h-94v24q0 147 -76.5 237.5t-222.5 90.5q-148 0 -223.5 -89.5t-75.5 -238.5q0 -65 10.5 -136t18.5 -104.5t28 -111.5h426v-78 h-407q16 -98 16 -151q0 -231 -123 -377h740v-86h-844v82q133 154 133 383q0 71 -16 149h-123z" />
<glyph unicode="&#xa5;" horiz-adv-x="1183" d="M35 1434h100l457 -717l457 717h100l-463 -727h287v-70h-330l-4 -6v-105h334v-69h-334v-457h-94v457h-334v69h334v105l-4 6h-330v70h285z" />
<glyph unicode="&#xa7;" horiz-adv-x="974" d="M98 604q0 93 49 167t142 114q-87 47 -127.5 114t-40.5 164q0 129 95.5 212t262.5 83q166 0 262.5 -83t96.5 -212v-20h-90v18q0 99 -74 160t-195 61q-120 0 -194 -60.5t-74 -160.5q0 -101 66 -162t210 -100l76 -20q170 -46 242 -122.5t72 -209.5q0 -93 -50 -168t-143 -115 q88 -45 129 -112.5t41 -163.5q0 -129 -95.5 -212t-262.5 -83q-166 0 -262.5 83t-96.5 212v20h90v-18q0 -99 74 -160t195 -61q120 0 194 60.5t74 160.5q0 101 -66.5 162t-210.5 100l-75 20q-170 46 -242 122.5t-72 209.5zM188 606q0 -108 57 -164t206 -96l75 -20 q12 -4 25.5 -8t29 -9t23.5 -8q91 37 136.5 101.5t45.5 142.5q0 108 -57 164t-205 96l-75 20q-15 3 -78 25q-91 -39 -137 -102.5t-46 -141.5z" />
<glyph unicode="&#xa8;" horiz-adv-x="679" d="M121 1266v116h112v-116h-112zM446 1266v116h113v-116h-113z" />
<glyph unicode="&#xa9;" horiz-adv-x="1511" d="M106 717q0 364 167 552.5t483 188.5t482.5 -188.5t166.5 -552.5t-166.5 -553t-482.5 -189t-483 189t-167 553zM166 717q0 -337 151.5 -511.5t438.5 -174.5t438.5 174.5t151.5 511.5t-151.5 511.5t-438.5 174.5t-438.5 -174.5t-151.5 -511.5zM453 717q0 141 19 221.5 t69 136.5q77 86 223 86t223 -86q67 -75 82 -198h-76q-9 90 -59 151q-56 68 -170 68q-117 0 -170 -68q-38 -49 -53 -117.5t-15 -193.5t15 -193.5t53 -117.5q53 -68 170 -68q114 0 170 68q50 61 59 151h76q-16 -124 -82 -199q-77 -86 -223 -86t-223 86q-50 56 -69 136.5 t-19 222.5z" />
<glyph unicode="&#xaa;" horiz-adv-x="811" d="M92 901q0 115 76 176.5t209 61.5q87 0 146.5 -27t84.5 -74v162q0 85 -49.5 131.5t-148.5 46.5q-192 0 -199 -161h-82q5 104 75.5 168.5t205.5 64.5q136 0 208 -70t72 -182v-412q0 -51 17 -104h-84q-15 37 -15 82q-25 -47 -84.5 -73.5t-146.5 -26.5q-133 0 -209 61 t-76 176zM174 901q0 -81 56.5 -123.5t160.5 -42.5t160.5 42.5t56.5 123.5t-56.5 123.5t-160.5 42.5t-160.5 -42.5t-56.5 -123.5z" />
<glyph unicode="&#xab;" horiz-adv-x="1011" d="M94 606v66l441 282v-80l-375 -235l375 -236v-79zM477 606v66l441 282v-80l-375 -235l375 -236v-79z" />
<glyph unicode="&#xac;" horiz-adv-x="1077" d="M119 629v78h839v-420h-86v342h-753z" />
<glyph unicode="&#xad;" horiz-adv-x="815" d="M119 625v86h577v-86h-577z" />
<glyph unicode="&#xae;" horiz-adv-x="1511" d="M106 717q0 364 167 552.5t483 188.5t482.5 -188.5t166.5 -552.5t-166.5 -553t-482.5 -189t-483 189t-167 553zM166 717q0 -337 151.5 -511.5t438.5 -174.5t438.5 174.5t151.5 511.5t-151.5 511.5t-438.5 174.5t-438.5 -174.5t-151.5 -511.5zM481 289v856h307 q283 0 283 -258q0 -176 -151 -221q125 -24 137 -191l8 -106q3 -53 14 -80h-75q-10 29 -13 80l-8 106q-6 82 -47 118t-131 36h-250v-340h-74zM555 698h223q109 0 164 44t55 145t-55 144.5t-164 43.5h-223v-377z" />
<glyph unicode="&#xaf;" horiz-adv-x="679" d="M51 1286v78h578v-78h-578z" />
<glyph unicode="&#xb0;" horiz-adv-x="733" d="M94 1174q0 119 76 197.5t197 78.5t196.5 -78.5t75.5 -197.5t-75.5 -198t-196.5 -79t-197 79t-76 198zM176 1174q0 -91 54 -146t137 -55t136.5 55t53.5 146t-53.5 145.5t-136.5 54.5t-137 -54.5t-54 -145.5z" />
<glyph unicode="&#xb1;" horiz-adv-x="1077" d="M119 0v78h839v-78h-839zM119 690v78h377v393h86v-393h376v-78h-376v-393h-86v393h-377z" />
<glyph unicode="&#xb4;" horiz-adv-x="679" d="M180 1165l215 330h105l-228 -330h-92z" />
<glyph unicode="&#xb5;" horiz-adv-x="1097" d="M141 -446v1470h90v-621q3 -173 79 -259.5t208 -86.5q154 0 249.5 120.5t98.5 332.5v514h90v-1024h-90v213q-44 -109 -133.5 -173.5t-218.5 -64.5q-100 0 -173 41t-110 117v-579h-90z" />
<glyph unicode="&#xb6;" horiz-adv-x="993" d="M92 985v14q0 205 111 320t307 115h319v-1702h-73v1634h-92v-1634h-74v815h-55q-195 0 -319 117.5t-124 320.5z" />
<glyph unicode="&#xb7;" horiz-adv-x="561" d="M225 573v187h111v-187h-111z" />
<glyph unicode="&#xb8;" horiz-adv-x="679" d="M127 -424l41 68q28 -25 72 -40.5t84 -15.5q69 0 108 31.5t39 83.5q0 53 -35.5 85t-101.5 32q-56 0 -94 -19l-37 39l80 160h84l-68 -129q21 12 66 12q83 0 135.5 -49.5t52.5 -128.5q0 -87 -58.5 -139.5t-166.5 -52.5q-123 0 -201 63z" />
<glyph unicode="&#xba;" horiz-adv-x="811" d="M94 1055q0 199 80 297t232 98q311 0 311 -395q0 -199 -79.5 -297.5t-231.5 -98.5t-232 98.5t-80 297.5zM176 1055q0 -324 230 -324q229 0 229 324q0 323 -229 323q-230 0 -230 -323z" />
<glyph unicode="&#xbb;" horiz-adv-x="1011" d="M94 324v79l375 236l-375 235v80l441 -282v-66zM477 324v79l375 236l-375 235v80l441 -282v-66z" />
<glyph unicode="&#xbf;" horiz-adv-x="1060" d="M141 -41q0 116 39.5 193t143.5 165q112 93 145 150t33 143v43h90v-47q0 -103 -38 -168t-161 -170q-91 -77 -126.5 -144.5t-35.5 -162.5q0 -142 81.5 -227.5t224.5 -85.5t224 88.5t81 228.5h90v-6q0 -172 -103 -282.5t-292 -110.5q-188 0 -292 110.5t-104 282.5zM496 846 v178h102v-178h-102z" />
<glyph unicode="&#xc0;" horiz-adv-x="1204" d="M23 0h100l133 367h692l133 -367h101l-531 1434h-98zM287 453l315 864l313 -864h-628zM389 1892h105l215 -329h-93z" />
<glyph unicode="&#xc1;" horiz-adv-x="1204" d="M23 0l530 1434h98l531 -1434h-101l-133 367h-692l-133 -367h-100zM287 453h628l-313 864zM496 1563l215 329h104l-227 -329h-92z" />
<glyph unicode="&#xc2;" horiz-adv-x="1204" d="M23 0l530 1434h98l531 -1434h-101l-133 367h-692l-133 -367h-100zM287 453h628l-313 864zM305 1563l258 329h78l258 -329h-96l-201 241l-201 -241h-96z" />
<glyph unicode="&#xc3;" horiz-adv-x="1204" d="M23 0h100l133 367h692l133 -367h101l-531 1434h-98zM287 453l315 864l313 -864h-628zM303 1602q0 125 38 189t124 64q44 0 79 -20t57.5 -48t42.5 -56t42.5 -48t48.5 -20q46 0 65 41.5t19 134.5h82q0 -125 -38 -189.5t-124 -64.5q-44 0 -79 20t-57.5 48.5t-42.5 56.5 t-42.5 48t-48.5 20q-46 0 -65 -41.5t-19 -134.5h-82z" />
<glyph unicode="&#xc4;" horiz-adv-x="1204" d="M23 0h100l133 367h692l133 -367h101l-531 1434h-98zM287 453l315 864l313 -864h-628zM383 1663v117h113v-117h-113zM709 1663v117h112v-117h-112z" />
<glyph unicode="&#xc5;" horiz-adv-x="1204" d="M23 0h100l133 367h692l133 -367h101l-531 1434h-98zM287 453l315 864l313 -864h-628zM389 1726q0 97 60 155t153 58t153 -58t60 -155t-60 -155t-153 -58t-153 58t-60 155zM467 1726q0 -67 37 -105t98 -38t98 38t37 105t-37 105.5t-98 38.5t-98 -38.5t-37 -105.5z" />
<glyph unicode="&#xc6;" horiz-adv-x="1759" d="M-16 0l827 1434h850v-86h-707v-570h633v-86h-633v-606h717v-86h-811v367h-561l-211 -367h-104zM348 453h512v888z" />
<glyph unicode="&#xc7;" horiz-adv-x="1273" d="M117 717q0 400 147 579q134 162 385 162q233 0 367 -130.5t149 -358.5h-96q-14 191 -120.5 297t-299.5 106q-204 0 -311 -131q-68 -85 -97.5 -212.5t-29.5 -311.5t29.5 -311.5t97.5 -212.5q107 -132 311 -132q193 0 299.5 106.5t120.5 297.5h96q-15 -214 -133.5 -342.5 t-326.5 -145.5l-56 -106q21 12 66 12q83 0 135.5 -49.5t52.5 -128.5q0 -87 -58.5 -139.5t-166.5 -52.5q-123 0 -201 63l41 68q28 -25 72 -40.5t84 -15.5q69 0 108 31.5t39 83.5q0 53 -35.5 85t-101.5 32q-56 0 -94 -19l-37 39l68 135q-232 9 -357 162q-147 179 -147 580z " />
<glyph unicode="&#xc8;" horiz-adv-x="1062" d="M164 0v1434h801v-86h-707v-570h633v-86h-633v-606h717v-86h-811zM373 1892h104l215 -329h-92z" />
<glyph unicode="&#xc9;" horiz-adv-x="1062" d="M164 0v1434h801v-86h-707v-570h633v-86h-633v-606h717v-86h-811zM430 1563l215 329h105l-228 -329h-92z" />
<glyph unicode="&#xca;" horiz-adv-x="1062" d="M164 0v1434h801v-86h-707v-570h633v-86h-633v-606h717v-86h-811zM264 1563l258 329h78l258 -329h-96l-201 241l-201 -241h-96z" />
<glyph unicode="&#xcb;" horiz-adv-x="1062" d="M164 0v1434h801v-86h-707v-570h633v-86h-633v-606h717v-86h-811zM342 1663v117h113v-117h-113zM668 1663v117h112v-117h-112z" />
<glyph unicode="&#xcc;" horiz-adv-x="421" d="M-6 1892h104l215 -329h-92zM164 0v1434h94v-1434h-94z" />
<glyph unicode="&#xcd;" horiz-adv-x="421" d="M109 1563l215 329h104l-227 -329h-92zM164 0v1434h94v-1434h-94z" />
<glyph unicode="&#xce;" horiz-adv-x="421" d="M-86 1563l258 329h78l258 -329h-96l-201 241l-201 -241h-96zM164 0v1434h94v-1434h-94z" />
<glyph unicode="&#xcf;" horiz-adv-x="421" d="M-8 1663v117h112v-117h-112zM164 0v1434h94v-1434h-94zM317 1663v117h113v-117h-113z" />
<glyph unicode="&#xd0;" horiz-adv-x="1294" d="M20 678v78h144v678h483q121 0 213.5 -37t151.5 -100.5t96.5 -156.5t52.5 -195.5t15 -227.5t-15 -227.5t-52.5 -195.5t-96.5 -156.5t-151.5 -100.5t-213.5 -37h-483v678h-144zM258 86h381q101 0 178.5 31.5t127 86t80.5 135.5t43.5 172.5t12.5 205.5t-12.5 205.5 t-43.5 172.5t-80.5 135.5t-127 86t-178.5 31.5h-381v-592h320v-78h-320v-592z" />
<glyph unicode="&#xd1;" horiz-adv-x="1294" d="M164 0v1434h94l778 -1262v1262h94v-1434h-94l-778 1262v-1262h-94zM348 1602q0 125 38 189t124 64q44 0 79 -20t57.5 -48t42.5 -56t42.5 -48t48.5 -20q46 0 65 41.5t19 134.5h82q0 -125 -38 -189.5t-124 -64.5q-44 0 -79 20t-57.5 48.5t-42.5 56.5t-42.5 48t-48.5 20 q-46 0 -65 -41.5t-19 -134.5h-82z" />
<glyph unicode="&#xd2;" horiz-adv-x="1302" d="M119 717q0 400 147 579q134 162 385 162t385 -162q148 -181 148 -579q0 -399 -148 -580q-134 -162 -385 -162t-385 162q-147 179 -147 580zM213 717q0 -184 29.5 -311.5t97.5 -212.5q107 -132 311 -132q205 0 312 132q68 85 97.5 212.5t29.5 311.5t-29.5 311.5 t-97.5 212.5q-107 131 -312 131q-204 0 -311 -131q-68 -85 -97.5 -212.5t-29.5 -311.5zM455 1892h104l215 -329h-92z" />
<glyph unicode="&#xd3;" horiz-adv-x="1302" d="M119 717q0 400 147 579q134 162 385 162t385 -162q148 -181 148 -579q0 -399 -148 -580q-134 -162 -385 -162t-385 162q-147 179 -147 580zM213 717q0 -184 29.5 -311.5t97.5 -212.5q107 -132 311 -132q205 0 312 132q68 85 97.5 212.5t29.5 311.5t-29.5 311.5 t-97.5 212.5q-107 131 -312 131q-204 0 -311 -131q-68 -85 -97.5 -212.5t-29.5 -311.5zM528 1563l215 329h105l-227 -329h-93z" />
<glyph unicode="&#xd4;" horiz-adv-x="1302" d="M119 717q0 400 147 579q134 162 385 162t385 -162q148 -181 148 -579q0 -399 -148 -580q-134 -162 -385 -162t-385 162q-147 179 -147 580zM213 717q0 -184 29.5 -311.5t97.5 -212.5q107 -132 311 -132q205 0 312 132q68 85 97.5 212.5t29.5 311.5t-29.5 311.5 t-97.5 212.5q-107 131 -312 131q-204 0 -311 -131q-68 -85 -97.5 -212.5t-29.5 -311.5zM354 1563l258 329h78l258 -329h-96l-201 241l-200 -241h-97z" />
<glyph unicode="&#xd5;" horiz-adv-x="1302" d="M119 717q0 400 147 579q134 162 385 162t385 -162q148 -181 148 -579q0 -399 -148 -580q-134 -162 -385 -162t-385 162q-147 179 -147 580zM213 717q0 -184 29.5 -311.5t97.5 -212.5q107 -132 311 -132q205 0 312 132q68 85 97.5 212.5t29.5 311.5t-29.5 311.5 t-97.5 212.5q-107 131 -312 131q-204 0 -311 -131q-68 -85 -97.5 -212.5t-29.5 -311.5zM352 1602q0 125 38 189t124 64q44 0 79 -20t57.5 -48t42.5 -56t42.5 -48t48.5 -20q46 0 65 41.5t19 134.5h82q0 -125 -38 -189.5t-124 -64.5q-44 0 -79 20t-57.5 48.5t-42.5 56.5 t-42.5 48t-48.5 20q-46 0 -65 -41.5t-19 -134.5h-82z" />
<glyph unicode="&#xd6;" horiz-adv-x="1302" d="M119 717q0 400 147 579q134 162 385 162t385 -162q148 -181 148 -579q0 -399 -148 -580q-134 -162 -385 -162t-385 162q-147 179 -147 580zM213 717q0 -184 29.5 -311.5t97.5 -212.5q107 -132 311 -132q205 0 312 132q68 85 97.5 212.5t29.5 311.5t-29.5 311.5 t-97.5 212.5q-107 131 -312 131q-204 0 -311 -131q-68 -85 -97.5 -212.5t-29.5 -311.5zM432 1663v117h113v-117h-113zM758 1663v117h112v-117h-112z" />
<glyph unicode="&#xd8;" horiz-adv-x="1302" d="M119 717q0 400 147 579q134 162 385 162q196 0 320 -98l82 139h98l-117 -203h2q148 -181 148 -579q0 -399 -148 -580q-134 -162 -385 -162q-201 0 -321 99l-80 -140h-98l114 201v2q-147 179 -147 580zM213 717q0 -341 104 -494l609 1057q-109 92 -275 92 q-204 0 -311 -131q-68 -85 -97.5 -212.5t-29.5 -311.5zM375 154q107 -93 276 -93q205 0 312 132q68 85 97.5 212.5t29.5 311.5q0 331 -105 493z" />
<glyph unicode="&#xd9;" horiz-adv-x="1314" d="M154 528q0 -259 123 -406t380 -147t380.5 147t123.5 406v906h-94v-895q0 -235 -99 -356.5t-311 -121.5t-310.5 121.5t-98.5 356.5v895h-94v-906zM461 1892h104l215 -329h-92z" />
<glyph unicode="&#xda;" horiz-adv-x="1314" d="M154 528v906h94v-895q0 -235 98.5 -356.5t310.5 -121.5t311 121.5t99 356.5v895h94v-906q0 -259 -123.5 -406t-380.5 -147t-380 147t-123 406zM535 1563l215 329h104l-227 -329h-92z" />
<glyph unicode="&#xdb;" horiz-adv-x="1314" d="M154 528v906h94v-895q0 -235 98.5 -356.5t310.5 -121.5t311 121.5t99 356.5v895h94v-906q0 -259 -123.5 -406t-380.5 -147t-380 147t-123 406zM360 1563l258 329h78l258 -329h-96l-201 241l-200 -241h-97z" />
<glyph unicode="&#xdc;" horiz-adv-x="1314" d="M154 528q0 -259 123 -406t380 -147t380.5 147t123.5 406v906h-94v-895q0 -235 -99 -356.5t-311 -121.5t-310.5 121.5t-98.5 356.5v895h-94v-906zM438 1663v117h113v-117h-113zM764 1663v117h113v-117h-113z" />
<glyph unicode="&#xdd;" horiz-adv-x="1183" d="M35 1434h102l455 -783l455 783h102l-510 -869v-565h-94v565zM473 1563l215 329h105l-228 -329h-92z" />
<glyph unicode="&#xde;" horiz-adv-x="1196" d="M164 0v1434h94v-283h424q217 0 330.5 -115.5t113.5 -318.5t-113.5 -318.5t-330.5 -115.5h-424v-283h-94zM258 369h418q174 0 265 91.5t91 256.5t-91 256.5t-265 91.5h-418v-696z" />
<glyph unicode="&#xdf;" horiz-adv-x="1165" d="M141 0v1042q0 183 119 299.5t322 116.5q201 0 320.5 -116t119.5 -295q0 -126 -69.5 -214.5t-190.5 -109.5q65 -8 123 -34t105.5 -69.5t75.5 -111t28 -150.5q0 -176 -114.5 -279.5t-311.5 -103.5q-102 0 -179 21v88q81 -23 175 -23q159 0 247 78.5t88 220.5 q0 150 -110.5 235t-304.5 85h-49v86h55q92 0 160 23t105.5 63.5t55 88t17.5 103.5q0 148 -94 238t-252 90q-159 0 -252.5 -90t-93.5 -240v-1042h-95z" />
<glyph unicode="&#xe0;" horiz-adv-x="1048" d="M90 301q0 151 104.5 238.5t294.5 87.5q131 0 219 -39t123 -105v207q0 129 -78.5 203t-226.5 74q-140 0 -215 -63t-88 -171h-90q14 145 113.5 230.5t279.5 85.5q191 0 293.5 -96t102.5 -267v-545q0 -81 26 -141h-92q-25 46 -25 119q-35 -68 -122.5 -106t-219.5 -38 q-190 0 -294.5 87t-104.5 239zM180 301q0 -116 82.5 -180t243.5 -64t243 64t82 180t-82 180t-243 64t-243.5 -64t-82.5 -180zM354 1485h105l215 -330h-92z" />
<glyph unicode="&#xe1;" horiz-adv-x="1048" d="M90 301q0 151 104.5 238.5t294.5 87.5q131 0 219 -39t123 -105v207q0 129 -78.5 203t-226.5 74q-140 0 -215 -63t-88 -171h-90q14 145 113.5 230.5t279.5 85.5q191 0 293.5 -96t102.5 -267v-545q0 -81 26 -141h-92q-25 46 -25 119q-35 -68 -122.5 -106t-219.5 -38 q-190 0 -294.5 87t-104.5 239zM180 301q0 -116 82.5 -180t243.5 -64t243 64t82 180t-82 180t-243 64t-243.5 -64t-82.5 -180zM389 1155l215 330h105l-228 -330h-92z" />
<glyph unicode="&#xe2;" horiz-adv-x="1048" d="M90 301q0 151 104.5 238.5t294.5 87.5q131 0 219 -39t123 -105v207q0 129 -78.5 203t-226.5 74q-140 0 -215 -63t-88 -171h-90q14 145 113.5 230.5t279.5 85.5q191 0 293.5 -96t102.5 -267v-545q0 -81 26 -141h-92q-25 46 -25 119q-35 -68 -122.5 -106t-219.5 -38 q-190 0 -294.5 87t-104.5 239zM180 301q0 -116 82.5 -180t243.5 -64t243 64t82 180t-82 180t-243 64t-243.5 -64t-82.5 -180zM233 1155l259 330h77l258 -330h-96l-201 242l-200 -242h-97z" />
<glyph unicode="&#xe3;" horiz-adv-x="1048" d="M90 301q0 151 104.5 238.5t294.5 87.5q131 0 219 -39t123 -105v207q0 129 -78.5 203t-226.5 74q-140 0 -215 -63t-88 -171h-90q14 145 113.5 230.5t279.5 85.5q191 0 293.5 -96t102.5 -267v-545q0 -81 26 -141h-92q-25 46 -25 119q-35 -68 -122.5 -106t-219.5 -38 q-190 0 -294.5 87t-104.5 239zM180 301q0 -116 82.5 -180t243.5 -64t243 64t82 180t-82 180t-243 64t-243.5 -64t-82.5 -180zM233 1194q0 125 38 189.5t124 64.5q44 0 79.5 -20t58 -48t42.5 -56.5t42.5 -48.5t48.5 -20q46 0 65 42t19 135h81q0 -126 -37.5 -190t-123.5 -64 q-44 0 -79.5 20t-58 48t-42.5 56t-42.5 48t-48.5 20q-46 0 -65 -41.5t-19 -134.5h-82z" />
<glyph unicode="&#xe4;" horiz-adv-x="1048" d="M90 301q0 151 104.5 238.5t294.5 87.5q131 0 219 -39t123 -105v207q0 129 -78.5 203t-226.5 74q-140 0 -215 -63t-88 -171h-90q14 145 113.5 230.5t279.5 85.5q191 0 293.5 -96t102.5 -267v-545q0 -81 26 -141h-92q-25 46 -25 119q-35 -68 -122.5 -106t-219.5 -38 q-190 0 -294.5 87t-104.5 239zM180 301q0 -116 82.5 -180t243.5 -64t243 64t82 180t-82 180t-243 64t-243.5 -64t-82.5 -180zM311 1255v117h113v-117h-113zM637 1255v117h113v-117h-113z" />
<glyph unicode="&#xe5;" horiz-adv-x="1048" d="M90 301q0 151 104.5 238.5t294.5 87.5q131 0 219 -39t123 -105v207q0 129 -78.5 203t-226.5 74q-140 0 -215 -63t-88 -171h-90q14 145 113.5 230.5t279.5 85.5q191 0 293.5 -96t102.5 -267v-545q0 -81 26 -141h-92q-25 46 -25 119q-35 -68 -122.5 -106t-219.5 -38 q-190 0 -294.5 87t-104.5 239zM180 301q0 -116 82.5 -180t243.5 -64t243 64t82 180t-82 180t-243 64t-243.5 -64t-82.5 -180zM317 1319q0 97 60 155t153 58t153 -58t60 -155t-60 -155t-153 -58t-153 58t-60 155zM395 1319q0 -67 37 -105t98 -38t98.5 38.5t37.5 104.5 t-37.5 104.5t-98.5 38.5t-98 -38t-37 -105z" />
<glyph unicode="&#xe6;" horiz-adv-x="1785" d="M90 301q0 151 104.5 238.5t294.5 87.5q131 0 219 -39t123 -105v207q0 129 -78.5 203t-226.5 74q-141 0 -215.5 -62.5t-87.5 -171.5h-90q14 145 113.5 230.5t279.5 85.5q147 0 244.5 -60.5t124.5 -173.5q39 113 134.5 173.5t230.5 60.5q213 0 320.5 -141t107.5 -396v-27 h-766q9 -428 338 -428q261 0 313 238h92q-31 -155 -133.5 -237.5t-271.5 -82.5q-259 0 -363 207q-41 -100 -142 -153.5t-249 -53.5q-203 0 -309.5 86t-106.5 240zM180 301q0 -116 82.5 -180t243.5 -64t243 64t82 180t-82 180t-243 64t-243.5 -64t-82.5 -180zM924 567h671 q-22 400 -335 400q-317 0 -336 -400z" />
<glyph unicode="&#xe7;" horiz-adv-x="1034" d="M98 512q0 258 107 397.5t321 139.5q178 0 284 -91.5t126 -257.5h-92q-17 129 -98 198t-220 69q-338 0 -338 -455t338 -455q139 0 220 69t98 198h92q-19 -152 -109 -241.5t-243 -102.5l-56 -109q21 12 66 12q83 0 135.5 -49.5t52.5 -128.5q0 -87 -58.5 -139.5 t-166.5 -52.5q-123 0 -201 63l41 68q28 -25 72 -40.5t84 -15.5q69 0 108 31.5t39 83.5q0 53 -35.5 85t-101.5 32q-56 0 -94 -19l-37 39l68 135q-200 9 -301 148.5t-101 388.5z" />
<glyph unicode="&#xe8;" d="M98 512q0 255 107.5 396t320.5 141t320.5 -141t107.5 -396v-27h-766q9 -428 338 -428q262 0 314 238h92q-31 -154 -134 -237t-272 -83q-213 0 -320.5 141t-107.5 396zM190 567h672q-22 400 -336 400q-317 0 -336 -400zM330 1485h104l215 -330h-92z" />
<glyph unicode="&#xe9;" d="M98 512q0 255 107.5 396t320.5 141t320.5 -141t107.5 -396v-27h-766q9 -428 338 -428q262 0 314 238h92q-31 -154 -134 -237t-272 -83q-213 0 -320.5 141t-107.5 396zM190 567h672q-22 400 -336 400q-317 0 -336 -400zM403 1155l215 330h105l-227 -330h-93z" />
<glyph unicode="&#xea;" d="M98 512q0 255 107.5 396t320.5 141t320.5 -141t107.5 -396v-27h-766q9 -428 338 -428q262 0 314 238h92q-31 -154 -134 -237t-272 -83q-213 0 -320.5 141t-107.5 396zM190 567h672q-22 400 -336 400q-317 0 -336 -400zM225 1155l258 330h78l258 -330h-96l-201 242 l-200 -242h-97z" />
<glyph unicode="&#xeb;" d="M98 512q0 255 107.5 396t320.5 141t320.5 -141t107.5 -396v-27h-766q9 -428 338 -428q262 0 314 238h92q-31 -154 -134 -237t-272 -83q-213 0 -320.5 141t-107.5 396zM190 567h672q-22 400 -336 400q-317 0 -336 -400zM303 1255v117h113v-117h-113zM629 1255v117h112 v-117h-112z" />
<glyph unicode="&#xec;" horiz-adv-x="393" d="M-20 1485h104l215 -330h-92zM152 0v1024h90v-1024h-90z" />
<glyph unicode="&#xed;" horiz-adv-x="393" d="M94 1155l215 330h105l-228 -330h-92zM152 0v1024h90v-1024h-90z" />
<glyph unicode="&#xee;" horiz-adv-x="393" d="M-100 1155l258 330h78l258 -330h-97l-200 242l-201 -242h-96zM152 0v1024h90v-1024h-90z" />
<glyph unicode="&#xef;" horiz-adv-x="393" d="M-23 1255v117h113v-117h-113zM152 0v1024h90v-1024h-90zM303 1255v117h113v-117h-113z" />
<glyph unicode="&#xf0;" d="M98 512q0 259 107.5 398t308.5 139q112 0 194 -38.5t121 -107.5q-49 230 -211 359l-194 -115l-39 61l168 101q-89 55 -225 104l53 70q149 -55 256 -125l168 100l39 -61l-146 -88q137 -118 196.5 -305t59.5 -492q0 -258 -106.5 -397.5t-321.5 -139.5t-321.5 139.5 t-106.5 397.5zM188 512q0 -455 338 -455t338 455t-338 455t-338 -455z" />
<glyph unicode="&#xf1;" horiz-adv-x="1093" d="M141 0v1024h90v-213q42 109 134 173.5t227 64.5q176 0 270 -110t94 -308v-631h-90v602q0 365 -286 365q-154 0 -250 -121t-99 -332v-514h-90zM248 1194q0 125 38 189.5t124 64.5q44 0 79 -20t57.5 -48t42.5 -56.5t42.5 -48.5t48.5 -20q46 0 65 42t19 135h82 q0 -125 -38 -189.5t-124 -64.5q-44 0 -79 20t-57.5 48t-42.5 56t-42.5 48t-48.5 20q-46 0 -65 -41.5t-19 -134.5h-82z" />
<glyph unicode="&#xf2;" d="M98 512q0 255 107.5 396t320.5 141t320.5 -141t107.5 -396t-107.5 -396t-320.5 -141t-320.5 141t-107.5 396zM188 512q0 -455 338 -455t338 455t-338 455t-338 -455zM330 1485h104l215 -330h-92z" />
<glyph unicode="&#xf3;" d="M98 512q0 255 107.5 396t320.5 141t320.5 -141t107.5 -396t-107.5 -396t-320.5 -141t-320.5 141t-107.5 396zM188 512q0 -455 338 -455t338 455t-338 455t-338 -455zM403 1155l215 330h105l-227 -330h-93z" />
<glyph unicode="&#xf4;" d="M98 512q0 255 107.5 396t320.5 141t320.5 -141t107.5 -396t-107.5 -396t-320.5 -141t-320.5 141t-107.5 396zM188 512q0 -455 338 -455t338 455t-338 455t-338 -455zM229 1155l258 330h78l258 -330h-96l-201 242l-200 -242h-97z" />
<glyph unicode="&#xf5;" d="M98 512q0 255 107.5 396t320.5 141t320.5 -141t107.5 -396t-107.5 -396t-320.5 -141t-320.5 141t-107.5 396zM188 512q0 -455 338 -455t338 455t-338 455t-338 -455zM227 1194q0 125 38 189.5t124 64.5q44 0 79 -20t57.5 -48t42.5 -56.5t42.5 -48.5t48.5 -20q46 0 65 42 t19 135h82q0 -126 -37.5 -190t-123.5 -64q-44 0 -79.5 20t-58 48t-42.5 56t-42.5 48t-48.5 20q-46 0 -65 -41.5t-19 -134.5h-82z" />
<glyph unicode="&#xf6;" d="M98 512q0 255 107.5 396t320.5 141t320.5 -141t107.5 -396t-107.5 -396t-320.5 -141t-320.5 141t-107.5 396zM188 512q0 -455 338 -455t338 455t-338 455t-338 -455zM307 1255v117h113v-117h-113zM633 1255v117h112v-117h-112z" />
<glyph unicode="&#xf7;" horiz-adv-x="1077" d="M119 629v78h839v-78h-839zM489 236h99v184h-99v-184zM489 915v185h99v-185h-99z" />
<glyph unicode="&#xf8;" d="M98 512q0 255 107.5 396t320.5 141q132 0 224 -56l59 109h90l-88 -156q143 -137 143 -434q0 -255 -107.5 -396t-320.5 -141q-132 0 -223 54l-59 -107h-90l86 156q-142 136 -142 434zM188 512q0 -241 97 -356l424 764q-74 47 -183 47q-338 0 -338 -455zM344 104 q74 -47 182 -47q338 0 338 455q0 243 -96 354z" />
<glyph unicode="&#xf9;" horiz-adv-x="1093" d="M137 393v631h90v-602q0 -365 287 -365q154 0 249.5 120.5t98.5 332.5v514h90v-1024h-90v213q-42 -109 -134 -173.5t-226 -64.5q-176 0 -270.5 110t-94.5 308zM356 1485h105l215 -330h-92z" />
<glyph unicode="&#xfa;" horiz-adv-x="1093" d="M137 393v631h90v-602q0 -365 287 -365q154 0 249.5 120.5t98.5 332.5v514h90v-1024h-90v213q-42 -109 -134 -173.5t-226 -64.5q-176 0 -270.5 110t-94.5 308zM416 1155l215 330h104l-227 -330h-92z" />
<glyph unicode="&#xfb;" horiz-adv-x="1093" d="M137 393v631h90v-602q0 -365 287 -365q154 0 249.5 120.5t98.5 332.5v514h90v-1024h-90v213q-42 -109 -134 -173.5t-226 -64.5q-176 0 -270.5 110t-94.5 308zM248 1155l258 330h78l258 -330h-97l-200 242l-201 -242h-96z" />
<glyph unicode="&#xfc;" horiz-adv-x="1093" d="M137 393v631h90v-602q0 -365 287 -365q154 0 249.5 120.5t98.5 332.5v514h90v-1024h-90v213q-42 -109 -134 -173.5t-226 -64.5q-176 0 -270.5 110t-94.5 308zM326 1255v117h112v-117h-112zM651 1255v117h113v-117h-113z" />
<glyph unicode="&#xfd;" horiz-adv-x="1007" d="M41 1024h96l367 -913l366 913h97l-521 -1288q-44 -109 -99.5 -145.5t-156.5 -36.5q-29 0 -43 2v79h37q74 0 110.5 24t67.5 103l95 236zM381 1155l215 330h104l-227 -330h-92z" />
<glyph unicode="&#xfe;" horiz-adv-x="1095" d="M141 -446v1880h90v-592q35 95 123 151t221 56q206 0 314 -138.5t108 -398.5t-108 -398.5t-314 -138.5q-133 0 -221 56t-123 151v-628h-90zM231 512q0 -455 338 -455t338 455t-338 455t-338 -455z" />
<glyph unicode="&#xff;" horiz-adv-x="1007" d="M41 1024h96l367 -913l366 913h97l-521 -1288q-44 -109 -99.5 -145.5t-156.5 -36.5q-29 0 -43 2v79h37q74 0 110.5 24t67.5 103l95 236zM285 1255v117h112v-117h-112zM610 1255v117h113v-117h-113z" />
<glyph unicode="&#x131;" horiz-adv-x="393" d="M152 0v1024h90v-1024h-90z" />
<glyph unicode="&#x152;" horiz-adv-x="1914" d="M119 717q0 125 15 227.5t52 195.5t96 156.5t151.5 100.5t213.5 37h1170v-86h-707v-570h633v-86h-633v-606h717v-86h-1180q-121 0 -213.5 37t-151.5 100.5t-96 156.5t-52 195.5t-15 227.5zM213 717q0 -114 12.5 -205.5t43.5 -172.5t80.5 -135.5t127 -86t178.5 -31.5h361 v1262h-361q-101 0 -178.5 -31.5t-127 -86t-80.5 -135.5t-43.5 -172.5t-12.5 -205.5z" />
<glyph unicode="&#x153;" horiz-adv-x="1818" d="M98 512q0 255 107.5 396t320.5 141q297 0 383 -275q86 275 383 275q213 0 320.5 -141t107.5 -396v-27h-766q9 -428 338 -428q262 0 314 238h92q-31 -154 -134 -237t-272 -83q-297 0 -383 275q-86 -275 -383 -275q-213 0 -320.5 141t-107.5 396zM188 512q0 -455 338 -455 t338 455t-338 455t-338 -455zM956 567h672q-22 400 -336 400q-317 0 -336 -400z" />
<glyph unicode="&#x178;" horiz-adv-x="1183" d="M35 1434l510 -869v-565h94v565l510 869h-102l-455 -783l-455 783h-102zM373 1663v117h112v-117h-112zM698 1663v117h113v-117h-113z" />
<glyph unicode="&#x192;" horiz-adv-x="665" d="M18 -365h50q81 0 119 40t38 128v1139h-155v82h155v143q0 157 65.5 219t229.5 62q32 0 98 -4v-78h-92q-124 0 -167.5 -42.5t-43.5 -164.5v-135h303v-82h-303v-1137q0 -131 -59.5 -191t-181.5 -60q-42 0 -56 2v79z" />
<glyph unicode="&#x2c6;" horiz-adv-x="679" d="M43 1165l258 330h78l258 -330h-96l-201 242l-201 -242h-96z" />
<glyph unicode="&#x2c7;" horiz-adv-x="679" d="M43 1495h96l201 -242l201 242h96l-258 -330h-78z" />
<glyph unicode="&#x2d8;" horiz-adv-x="679" d="M51 1477h86q15 -226 203 -226t203 226h86q-4 -146 -80.5 -224.5t-208.5 -78.5t-208.5 78.5t-80.5 224.5z" />
<glyph unicode="&#x2d9;" horiz-adv-x="679" d="M281 1262v122h118v-122h-118z" />
<glyph unicode="&#x2da;" horiz-adv-x="679" d="M127 1329q0 97 60 155t153 58t153 -58t60 -155t-60 -155t-153 -58t-153 58t-60 155zM205 1329q0 -67 37 -105t98 -38t98 38t37 105t-37 105.5t-98 38.5t-98 -38.5t-37 -105.5z" />
<glyph unicode="&#x2db;" horiz-adv-x="679" d="M125 -244q0 72 48 139t128 105h115q-104 -42 -156.5 -106.5t-52.5 -133.5v-10q0 -58 40 -90.5t111 -32.5q88 0 154 56l43 -62q-79 -70 -201 -70q-106 0 -167.5 53t-61.5 142v10z" />
<glyph unicode="&#x2dc;" horiz-adv-x="679" d="M41 1206q0 125 38 189.5t124 64.5q44 0 79 -20t57.5 -48t42.5 -56t42.5 -48t48.5 -20q46 0 65 41.5t19 134.5h82q0 -125 -38 -189.5t-124 -64.5q-44 0 -79 20t-57.5 48t-42.5 56t-42.5 48t-48.5 20q-46 0 -65 -41.5t-19 -134.5h-82z" />
<glyph unicode="&#x2dd;" horiz-adv-x="679" d="M55 1165l209 330h94l-217 -330h-86zM309 1165l221 330h95l-230 -330h-86z" />
<glyph unicode="&#x3a9;" horiz-adv-x="1302" d="M119 717q0 400 147 579q134 162 385 162t385 -162q148 -181 148 -579q0 -246 -62.5 -405.5t-203.5 -225.5h225v-86h-391v86q97 30 164.5 88.5t104.5 143t53 181t16 218.5q0 184 -29.5 311.5t-97.5 212.5q-107 131 -312 131q-204 0 -311 -131q-68 -85 -97.5 -212.5 t-29.5 -311.5q0 -122 16 -218.5t53 -181t104.5 -143t164.5 -88.5v-86h-391v86h225q-141 66 -203.5 225.5t-62.5 405.5z" />
<glyph unicode="&#x3c0;" horiz-adv-x="1073" d="M49 942v82h975v-82h-168v-942h-90v942h-459v-942h-90v942h-168z" />
<glyph unicode="&#x400;" horiz-adv-x="1062" d="M164 0v1434h801v-86h-707v-570h633v-86h-633v-606h717v-86h-811zM373 1892h104l215 -329h-92z" />
<glyph unicode="&#x401;" horiz-adv-x="1062" d="M164 0v1434h801v-86h-707v-570h633v-86h-633v-606h717v-86h-811zM342 1663v117h113v-117h-113zM668 1663v117h112v-117h-112z" />
<glyph unicode="&#x402;" horiz-adv-x="1415" d="M35 1348v86h971v-86h-439v-519q70 53 166 85t193 32q201 0 292 -98t91 -295v-270q0 -156 -57.5 -226.5t-188.5 -70.5q-38 0 -70 4v82h66q80 0 117.5 44.5t37.5 153.5v271q0 167 -70 243t-229 76q-95 0 -187.5 -33t-160.5 -92v-735h-94v1348h-438z" />
<glyph unicode="&#x403;" horiz-adv-x="976" d="M164 0v1434h788v-86h-694v-1348h-94zM420 1563l215 329h104l-227 -329h-92z" />
<glyph unicode="&#x404;" horiz-adv-x="1273" d="M117 717q0 400 147 579q134 162 385 162q233 0 367 -130.5t149 -358.5h-96q-14 191 -120.5 297t-299.5 106q-204 0 -311 -131q-121 -152 -127 -481h532v-86h-532q6 -331 127 -481q107 -132 311 -132q193 0 299.5 106.5t120.5 297.5h96q-15 -228 -149 -359t-367 -131 q-251 0 -385 162q-147 179 -147 580z" />
<glyph unicode="&#x405;" horiz-adv-x="1157" d="M117 369v45h94v-45q0 -136 100 -222t277 -86t277 86t100 222q0 126 -74 201t-244 110l-184 37q-346 69 -346 366q0 162 117.5 268.5t326.5 106.5t327 -106.5t118 -268.5v-34h-95v34q0 132 -92.5 210.5t-257.5 78.5t-257.5 -78.5t-92.5 -210.5q0 -118 69.5 -186t208.5 -96 l185 -37q199 -39 292 -137.5t93 -257.5q0 -170 -124 -282t-347 -112t-347 112t-124 282z" />
<glyph unicode="&#x406;" horiz-adv-x="421" d="M164 0v1434h94v-1434h-94z" />
<glyph unicode="&#x407;" horiz-adv-x="421" d="M-8 1663v117h112v-117h-112zM164 0v1434h94v-1434h-94zM317 1663v117h113v-117h-113z" />
<glyph unicode="&#x408;" horiz-adv-x="1046" d="M55 440h95q0 -178 82.5 -278.5t240.5 -100.5q156 0 239 99.5t83 283.5v990h94v-996q0 -220 -106.5 -341.5t-309.5 -121.5q-206 0 -312 121.5t-106 343.5z" />
<glyph unicode="&#x409;" horiz-adv-x="2033" d="M27 -10v82h53q72 0 103.5 32.5t31.5 114.5v1215h922v-590h397q198 0 310 -107.5t112 -314.5t-112 -314.5t-310 -107.5h-492v1348h-733v-1139q0 -120 -51.5 -171.5t-161.5 -51.5q-51 0 -69 4zM1137 86h376q167 0 258 84.5t91 251.5t-91 251.5t-258 84.5h-376v-672z" />
<glyph unicode="&#x40a;" horiz-adv-x="1986" d="M164 0v1434h94v-658h737v658h95v-590h397q198 0 310 -107.5t112 -314.5t-112 -314.5t-310 -107.5h-492v690h-737v-690h-94zM1090 86h376q167 0 258 84.5t91 251.5t-91 251.5t-258 84.5h-376v-672z" />
<glyph unicode="&#x40b;" horiz-adv-x="1425" d="M35 1348v86h971v-86h-439v-519q70 53 166 85t193 32q201 0 292 -98t91 -295v-553h-95v541q0 167 -70 243t-229 76q-95 0 -187.5 -33t-160.5 -92v-735h-94v1348h-438z" />
<glyph unicode="&#x40c;" horiz-adv-x="1126" d="M164 0v1434h94v-656h199l497 656h111l-535 -701l598 -733h-112l-559 692h-199v-692h-94zM449 1563l215 329h104l-227 -329h-92z" />
<glyph unicode="&#x40d;" horiz-adv-x="1294" d="M164 0h94l778 1262v-1262h94v1434h-94l-778 -1262v1262h-94v-1434zM463 1892h104l215 -329h-92z" />
<glyph unicode="&#x40e;" horiz-adv-x="1153" d="M41 1434h98l449 -934l442 934h98l-602 -1284q-40 -86 -84 -118t-123 -32q-53 0 -71 2v80h63q43 0 70.5 19t52.5 73l103 217zM299 1870h86q15 -225 203 -225t203 225h86q-4 -146 -80.5 -224.5t-208.5 -78.5t-208.5 78.5t-80.5 224.5z" />
<glyph unicode="&#x40f;" horiz-adv-x="1273" d="M164 0v1434h94v-1348h758v1348h94v-1434h-426v-246h-94v246h-426z" />
<glyph unicode="&#x410;" horiz-adv-x="1204" d="M23 0l530 1434h98l531 -1434h-101l-133 367h-692l-133 -367h-100zM287 453h628l-313 864z" />
<glyph unicode="&#x411;" horiz-adv-x="1155" d="M164 0v1434h827v-86h-733v-504h397q198 0 310 -107.5t112 -314.5t-112 -314.5t-310 -107.5h-491zM258 86h377q167 0 257.5 84.5t90.5 251.5t-90.5 251.5t-257.5 84.5h-377v-672z" />
<glyph unicode="&#x412;" horiz-adv-x="1216" d="M164 0v1434h508q204 0 308.5 -95t104.5 -270q0 -264 -223 -334q129 -27 196.5 -114.5t67.5 -235.5q0 -196 -112 -290.5t-334 -94.5h-516zM258 86h406q198 0 283 75.5t85 227.5t-85 227.5t-283 75.5h-406v-606zM258 778h397q336 0 336 285t-336 285h-397v-570z" />
<glyph unicode="&#x413;" horiz-adv-x="976" d="M164 0v1434h788v-86h-694v-1348h-94z" />
<glyph unicode="&#x414;" horiz-adv-x="1236" d="M27 86h129q73 299 73 684v664h820v-1348h141v-332h-94v246h-975v-246h-94v332zM256 86h698v1266h-630v-588q0 -379 -68 -678z" />
<glyph unicode="&#x415;" horiz-adv-x="1062" d="M164 0v1434h801v-86h-707v-570h633v-86h-633v-606h717v-86h-811z" />
<glyph unicode="&#x416;" horiz-adv-x="1699" d="M16 0l502 735l-438 699h102l414 -660h207v660h94v-660h207l414 660h102l-438 -699l501 -735h-106l-473 694h-207v-694h-94v694h-207l-473 -694h-107z" />
<glyph unicode="&#x417;" horiz-adv-x="1126" d="M88 385v31h94v-29q0 -146 103 -236t272 -90q171 0 273 90t102 236q0 148 -103.5 239t-273.5 91h-160v86h160q154 0 244 77.5t90 206.5q0 126 -90 205.5t-242 79.5q-151 0 -241.5 -79.5t-90.5 -205.5v-26h-94v31q0 156 115.5 261t310.5 105q196 0 311 -105t115 -261 q0 -130 -72 -216.5t-194 -115.5q144 -27 226.5 -129.5t82.5 -245.5q0 -182 -128 -296t-341 -114q-212 0 -340.5 113.5t-128.5 296.5z" />
<glyph unicode="&#x418;" horiz-adv-x="1294" d="M164 0v1434h94v-1262l778 1262h94v-1434h-94v1262l-778 -1262h-94z" />
<glyph unicode="&#x419;" horiz-adv-x="1294" d="M164 0v1434h94v-1262l778 1262h94v-1434h-94v1262l-778 -1262h-94zM358 1870h86q15 -225 203 -225t203 225h86q-4 -146 -80.5 -224.5t-208.5 -78.5t-208.5 78.5t-80.5 224.5z" />
<glyph unicode="&#x41a;" horiz-adv-x="1126" d="M164 0v1434h94v-656h199l497 656h111l-535 -701l598 -733h-112l-559 692h-199v-692h-94z" />
<glyph unicode="&#x41b;" horiz-adv-x="1325" d="M27 -10v82h53q72 0 103.5 32.5t31.5 114.5v1215h946v-1434h-94v1348h-758v-1139q0 -120 -51.5 -171.5t-161.5 -51.5q-51 0 -69 4z" />
<glyph unicode="&#x41c;" horiz-adv-x="1703" d="M164 0v1434h102l586 -1328l586 1328h102v-1434h-94v1227l-543 -1227h-102l-543 1227v-1227h-94z" />
<glyph unicode="&#x41d;" horiz-adv-x="1273" d="M164 0v1434h94v-658h758v658h94v-1434h-94v690h-758v-690h-94z" />
<glyph unicode="&#x41e;" horiz-adv-x="1302" d="M119 717q0 400 147 579q134 162 385 162t385 -162q148 -181 148 -579q0 -399 -148 -580q-134 -162 -385 -162t-385 162q-147 179 -147 580zM213 717q0 -184 29.5 -311.5t97.5 -212.5q107 -132 311 -132q205 0 312 132q68 85 97.5 212.5t29.5 311.5t-29.5 311.5 t-97.5 212.5q-107 131 -312 131q-204 0 -311 -131q-68 -85 -97.5 -212.5t-29.5 -311.5z" />
<glyph unicode="&#x41f;" horiz-adv-x="1273" d="M164 0v1434h946v-1434h-94v1348h-758v-1348h-94z" />
<glyph unicode="&#x420;" horiz-adv-x="1196" d="M164 0v1434h518q217 0 330.5 -116t113.5 -319t-113.5 -318.5t-330.5 -115.5h-424v-565h-94zM258 651h418q174 0 265 91.5t91 256.5t-91 257t-265 92h-418v-697z" />
<glyph unicode="&#x421;" horiz-adv-x="1273" d="M117 717q0 400 147 579q134 162 385 162q233 0 367 -130.5t149 -358.5h-96q-14 191 -120.5 297t-299.5 106q-204 0 -311 -131q-68 -85 -97.5 -212.5t-29.5 -311.5t29.5 -311.5t97.5 -212.5q107 -132 311 -132q193 0 299.5 106.5t120.5 297.5h96q-15 -228 -149 -359 t-367 -131q-251 0 -385 162q-147 179 -147 580z" />
<glyph unicode="&#x422;" horiz-adv-x="1040" d="M35 1348v86h971v-86h-439v-1348h-94v1348h-438z" />
<glyph unicode="&#x423;" horiz-adv-x="1153" d="M41 1434h98l449 -934l442 934h98l-602 -1284q-40 -86 -84 -118t-123 -32q-53 0 -71 2v80h63q43 0 70.5 19t52.5 73l103 217z" />
<glyph unicode="&#x424;" horiz-adv-x="1458" d="M84 717q0 102 29 184.5t81 140t126.5 96.5t164.5 58t197 21v217h94v-217q107 -2 197 -21t164.5 -58t126.5 -96.5t81 -140t29 -184.5t-29 -184.5t-81 -140t-126.5 -96.5t-164.5 -58t-197 -21v-217h-94v217q-107 2 -197 21t-164.5 58t-126.5 96.5t-81 140t-29 184.5z M178 717q0 -109 35 -188.5t102.5 -128t157.5 -72t209 -25.5v827q-119 -2 -209 -25.5t-157.5 -71.5t-102.5 -127.5t-35 -188.5zM776 303q119 2 209 25.5t157.5 72t102.5 128t35 188.5t-35 188.5t-102.5 127.5t-157.5 71.5t-209 25.5v-827z" />
<glyph unicode="&#x425;" horiz-adv-x="1183" d="M43 0l487 733l-462 701h106l418 -631l418 631h106l-463 -701l488 -733h-109l-440 664l-440 -664h-109z" />
<glyph unicode="&#x426;" horiz-adv-x="1298" d="M164 0v1434h94v-1348h758v1348h94v-1348h141v-332h-94v246h-993z" />
<glyph unicode="&#x427;" horiz-adv-x="1228" d="M143 918v516h95v-500q0 -187 79.5 -274t245.5 -87q232 0 408 136v725h94v-1434h-92v618q-75 -61 -186.5 -96t-237.5 -35q-203 0 -304.5 106t-101.5 325z" />
<glyph unicode="&#x428;" horiz-adv-x="1941" d="M164 0v1434h94v-1348h666v1348h94v-1348h665v1348h95v-1434h-1614z" />
<glyph unicode="&#x429;" horiz-adv-x="1961" d="M164 0v1434h94v-1348h666v1348h94v-1348h665v1348h95v-1348h141v-332h-94v246h-1661z" />
<glyph unicode="&#x42a;" horiz-adv-x="1392" d="M35 1348v86h461v-590h397q198 0 310 -107.5t112 -314.5t-112 -314.5t-310 -107.5h-492v1348h-366zM496 86h376q167 0 258 84.5t91 251.5t-91 251.5t-258 84.5h-376v-672z" />
<glyph unicode="&#x42b;" horiz-adv-x="1507" d="M164 0v1434h94v-590h397q198 0 310 -107.5t112 -314.5t-112 -314.5t-310 -107.5h-491zM258 86h377q167 0 257.5 84.5t90.5 251.5t-90.5 251.5t-257.5 84.5h-377v-672zM1249 0v1434h94v-1434h-94z" />
<glyph unicode="&#x42c;" horiz-adv-x="1155" d="M164 0v1434h94v-590h397q198 0 310 -107.5t112 -314.5t-112 -314.5t-310 -107.5h-491zM258 86h377q167 0 257.5 84.5t90.5 251.5t-90.5 251.5t-257.5 84.5h-377v-672z" />
<glyph unicode="&#x42d;" horiz-adv-x="1273" d="M109 465h96q14 -191 120.5 -297.5t299.5 -106.5q204 0 311 132q121 150 127 481h-533v86h533q-6 329 -127 481q-107 131 -311 131q-193 0 -299.5 -106t-120.5 -297h-96q15 228 149 358.5t367 130.5q251 0 385 -162q147 -179 147 -579q0 -401 -147 -580 q-134 -162 -385 -162q-233 0 -367 131t-149 359z" />
<glyph unicode="&#x42e;" horiz-adv-x="1626" d="M164 0v1434h94v-674h184q7 363 148 536q134 162 385 162t385 -162q147 -179 147 -579q0 -401 -147 -580q-134 -162 -385 -162t-385 162q-142 173 -148 537h-184v-674h-94zM537 717q0 -184 29.5 -311.5t97.5 -212.5q107 -132 311 -132t311 132q68 85 97.5 212.5 t29.5 311.5t-29.5 311.5t-97.5 212.5q-107 131 -311 131t-311 -131q-68 -85 -97.5 -212.5t-29.5 -311.5z" />
<glyph unicode="&#x42f;" horiz-adv-x="1241" d="M104 0q19 53 25 131l14 203q10 140 62.5 210.5t156.5 92.5q-122 38 -184.5 135t-62.5 246q0 196 110 306t330 110h522v-1434h-94v594h-418q-171 0 -244.5 -60.5t-82.5 -199.5l-15 -205q-7 -90 -22 -129h-97zM209 1014q0 -164 89 -249t263 -85h422v668h-422 q-174 0 -263 -85t-89 -249z" />
<glyph unicode="&#x430;" horiz-adv-x="1048" d="M90 301q0 151 104.5 238.5t294.5 87.5q131 0 219 -39t123 -105v207q0 129 -78.5 203t-226.5 74q-140 0 -215 -63t-88 -171h-90q14 145 113.5 230.5t279.5 85.5q191 0 293.5 -96t102.5 -267v-545q0 -81 26 -141h-92q-25 46 -25 119q-35 -68 -122.5 -106t-219.5 -38 q-190 0 -294.5 87t-104.5 239zM180 301q0 -116 82.5 -180t243.5 -64t243 64t82 180t-82 180t-243 64t-243.5 -64t-82.5 -180z" />
<glyph unicode="&#x431;" horiz-adv-x="1062" d="M109 678q0 110 3 188t11 150t21 120t36 91t51.5 69.5t72 49.5t93.5 37.5t119 27.5l258 47l27 -78l-258 -47q-75 -14 -125.5 -30t-91 -42.5t-63.5 -59t-38.5 -86t-20.5 -117t-5 -156.5q35 95 123 151t221 56q206 0 314 -138.5t108 -398.5q0 -255 -107.5 -396t-320.5 -141 q-255 0 -359 199q-41 80 -55 192t-14 312zM199 512q0 -455 338 -455q337 0 337 455t-337 455q-338 0 -338 -455z" />
<glyph unicode="&#x432;" horiz-adv-x="997" d="M141 0v1024h410q178 0 259 -68t81 -200q0 -93 -40.5 -149t-123.5 -83q188 -43 188 -250q0 -274 -340 -274h-434zM231 82h334q129 0 194.5 45.5t65.5 155.5t-65.5 155t-194.5 45h-334v-401zM231 565h316q134 0 194 43.5t60 145.5q0 101 -60 144.5t-194 43.5h-316v-377z " />
<glyph unicode="&#x433;" horiz-adv-x="792" d="M141 0v1024h615v-82h-525v-942h-90z" />
<glyph unicode="&#x434;" horiz-adv-x="1007" d="M27 82h110q43 198 43 471v471h668v-942h123v-307h-90v225h-764v-225h-90v307zM231 82h527v860h-488v-383q0 -282 -39 -477z" />
<glyph unicode="&#x435;" d="M98 512q0 255 107.5 396t320.5 141t320.5 -141t107.5 -396v-27h-766q9 -428 338 -428q262 0 314 238h92q-31 -154 -134 -237t-272 -83q-213 0 -320.5 141t-107.5 396zM190 567h672q-22 400 -336 400q-317 0 -336 -400z" />
<glyph unicode="&#x436;" horiz-adv-x="1359" d="M18 0l373 532l-325 492h100l297 -449h172v449h90v-449h172l297 449h100l-325 -492l372 -532h-102l-342 494h-172v-494h-90v494h-172l-342 -494h-103z" />
<glyph unicode="&#x437;" horiz-adv-x="974" d="M74 272v7h90v-5q0 -99 86 -158t227 -59q143 0 228.5 55t85.5 154q0 100 -85 156.5t-229 56.5h-121v82h127q137 0 211 57t74 148q0 89 -75 145t-210 56t-209.5 -55.5t-74.5 -145.5v-23h-90v23q0 125 98.5 204t275.5 79q178 0 276.5 -79.5t98.5 -201.5q0 -95 -54 -159.5 t-159 -88.5q110 -22 173 -89t63 -169q0 -134 -107.5 -210.5t-296.5 -76.5q-186 0 -294.5 81t-108.5 216z" />
<glyph unicode="&#x438;" horiz-adv-x="1056" d="M141 0v1024h90v-872l594 872h90v-1024h-90v872l-594 -872h-90z" />
<glyph unicode="&#x439;" horiz-adv-x="1056" d="M141 0v1024h90v-872l594 872h90v-1024h-90v872l-594 -872h-90zM240 1466h86q15 -225 202 -225q188 0 203 225h86q-4 -146 -80.5 -224.5t-208.5 -78.5t-208 78.5t-80 224.5z" />
<glyph unicode="&#x43a;" horiz-adv-x="911" d="M141 0v1024h90v-451h140l372 451h111l-405 -489l452 -535h-113l-419 492h-138v-492h-90z" />
<glyph unicode="&#x43b;" horiz-adv-x="1087" d="M35 -12v80h43q57 0 81.5 26.5t24.5 95.5v834h762v-1024h-90v942h-582v-756q0 -108 -46.5 -154t-139.5 -46q-39 0 -53 2z" />
<glyph unicode="&#x43c;" horiz-adv-x="1327" d="M141 0v1024h90l433 -905l432 905h90v-1024h-90v827l-394 -827h-77l-394 827v-827h-90z" />
<glyph unicode="&#x43d;" horiz-adv-x="1048" d="M141 0v1024h90v-459h586v459h90v-1024h-90v483h-586v-483h-90z" />
<glyph unicode="&#x43e;" d="M98 512q0 255 107.5 396t320.5 141t320.5 -141t107.5 -396t-107.5 -396t-320.5 -141t-320.5 141t-107.5 396zM188 512q0 -455 338 -455t338 455t-338 455t-338 -455z" />
<glyph unicode="&#x43f;" horiz-adv-x="1048" d="M141 0v1024h766v-1024h-90v942h-586v-942h-90z" />
<glyph unicode="&#x440;" horiz-adv-x="1095" d="M141 -446v1470h90v-182q35 95 123 151t221 56q206 0 314 -138.5t108 -398.5t-108 -398.5t-314 -138.5q-133 0 -221 56t-123 151v-628h-90zM231 512q0 -455 338 -455t338 455t-338 455t-338 -455z" />
<glyph unicode="&#x441;" horiz-adv-x="1034" d="M98 512q0 258 107 397.5t321 139.5q178 0 284 -91.5t126 -257.5h-92q-17 129 -98 198t-220 69q-338 0 -338 -455t338 -455q139 0 220 69t98 198h92q-20 -166 -126 -257.5t-284 -91.5q-214 0 -321 139.5t-107 397.5z" />
<glyph unicode="&#x442;" horiz-adv-x="868" d="M37 942v82h794v-82h-352v-942h-90v942h-352z" />
<glyph unicode="&#x443;" horiz-adv-x="1007" d="M41 1024h96l367 -913l366 913h97l-521 -1288q-44 -109 -99.5 -145.5t-156.5 -36.5q-29 0 -43 2v79h37q74 0 110.5 24t67.5 103l95 236z" />
<glyph unicode="&#x444;" horiz-adv-x="1818" d="M98 512q0 260 108 398.5t314 138.5q133 0 221 -56t123 -151v592h90v-592q35 95 123 151t221 56q206 0 314 -138.5t108 -398.5t-108 -398.5t-314 -138.5q-133 0 -221 56t-123 151v-628h-90v628q-35 -95 -123 -151t-221 -56q-206 0 -314 138.5t-108 398.5zM188 512 q0 -455 338 -455t338 455t-338 455t-338 -455zM954 512q0 -455 338 -455t338 455t-338 455t-338 -455z" />
<glyph unicode="&#x445;" horiz-adv-x="925" d="M18 0l390 524l-369 500h104l320 -430l319 430h105l-369 -500l389 -524h-104l-340 455l-340 -455h-105z" />
<glyph unicode="&#x446;" horiz-adv-x="1067" d="M141 0v1024h90v-942h586v942h90v-942h123v-307h-90v225h-799z" />
<glyph unicode="&#x447;" horiz-adv-x="1011" d="M121 651v373h90v-362q0 -273 262 -273q195 0 307 109v526h90v-1024h-90v410q-53 -47 -138.5 -75t-180.5 -28q-340 0 -340 344z" />
<glyph unicode="&#x448;" horiz-adv-x="1560" d="M141 0v1024h90v-942h504v942h90v-942h504v942h90v-1024h-1278z" />
<glyph unicode="&#x449;" horiz-adv-x="1579" d="M141 0v1024h90v-942h504v942h90v-942h504v942h90v-942h123v-307h-90v225h-1311z" />
<glyph unicode="&#x44a;" horiz-adv-x="1099" d="M37 942v82h330v-356h313q173 0 261.5 -89t88.5 -245t-88.5 -245t-261.5 -89h-404v942h-239zM367 82h303q134 0 202 64t68 188q0 123 -68 187.5t-202 64.5h-303v-504z" />
<glyph unicode="&#x44b;" horiz-adv-x="1269" d="M141 0v1024h90v-356h314q173 0 261.5 -89t88.5 -245t-88.5 -245t-261.5 -89h-404zM231 82h304q134 0 202 64t68 188q0 123 -68 187.5t-202 64.5h-304v-504zM1038 0v1024h90v-1024h-90z" />
<glyph unicode="&#x44c;" horiz-adv-x="964" d="M141 0v1024h90v-356h314q173 0 261.5 -89t88.5 -245t-88.5 -245t-261.5 -89h-404zM231 82h304q134 0 202 64t68 188q0 123 -68 187.5t-202 64.5h-304v-504z" />
<glyph unicode="&#x44d;" horiz-adv-x="1034" d="M98 324h92q17 -129 98 -198t220 -69q323 0 338 414h-385v82h385q-15 414 -338 414q-139 0 -220 -69t-98 -198h-92q20 166 126 257.5t284 91.5q214 0 321 -139.5t107 -397.5t-107 -397.5t-321 -139.5q-178 0 -284 91.5t-126 257.5z" />
<glyph unicode="&#x44e;" horiz-adv-x="1331" d="M141 0v1024h90v-471h146q9 236 116 366t312 130q213 0 320.5 -141t107.5 -396t-107.5 -396t-320.5 -141q-205 0 -312 130t-116 366h-146v-471h-90zM467 512q0 -455 338 -455t338 455t-338 455t-338 -455z" />
<glyph unicode="&#x44f;" horiz-adv-x="1019" d="M102 0q13 54 15 94l6 119q6 113 47.5 168t134.5 74q-96 23 -147.5 93.5t-51.5 178.5q0 141 93.5 219t257.5 78h422v-1024h-91v414h-331q-73 0 -121 -14t-73.5 -43.5t-36.5 -64t-13 -85.5l-6 -115q-3 -58 -17 -92h-88zM197 719q0 -115 71 -169t197 -54h323v446h-323 q-126 0 -197 -54t-71 -169z" />
<glyph unicode="&#x450;" d="M98 512q0 255 107.5 396t320.5 141t320.5 -141t107.5 -396v-27h-766q9 -428 338 -428q262 0 314 238h92q-31 -154 -134 -237t-272 -83q-213 0 -320.5 141t-107.5 396zM190 567h672q-22 400 -336 400q-317 0 -336 -400zM330 1485h104l215 -330h-92z" />
<glyph unicode="&#x451;" d="M98 512q0 255 107.5 396t320.5 141t320.5 -141t107.5 -396v-27h-766q9 -428 338 -428q262 0 314 238h92q-31 -154 -134 -237t-272 -83q-213 0 -320.5 141t-107.5 396zM190 567h672q-22 400 -336 400q-317 0 -336 -400zM303 1255v117h113v-117h-113zM629 1255v117h112 v-117h-112z" />
<glyph unicode="&#x452;" horiz-adv-x="1093" d="M23 1200v74h118v160h90v-160h340v-74h-340v-389q42 109 134 173.5t227 64.5q176 0 270 -110t94 -308v-826q0 -131 -59.5 -191t-181.5 -60q-42 0 -56 2v79h50q81 0 119 40t38 128v799q0 365 -286 365q-154 0 -250 -121t-99 -332v-514h-90v1200h-118z" />
<glyph unicode="&#x453;" horiz-adv-x="792" d="M141 0v1024h615v-82h-525v-942h-90zM322 1155l215 330h104l-227 -330h-92z" />
<glyph unicode="&#x454;" horiz-adv-x="1034" d="M98 512q0 258 107 397.5t321 139.5q178 0 284 -91.5t126 -257.5h-92q-17 129 -98 198t-220 69q-323 0 -338 -414h385v-82h-385q15 -414 338 -414q139 0 220 69t98 198h92q-20 -166 -126 -257.5t-284 -91.5q-214 0 -321 139.5t-107 397.5z" />
<glyph unicode="&#x455;" horiz-adv-x="948" d="M98 266v37h90v-37q0 -94 81 -151.5t210 -57.5q128 0 209.5 57t81.5 152q0 83 -56.5 132t-185.5 75l-120 25q-162 34 -232 97.5t-70 176.5q0 120 97 198.5t262 78.5q163 0 260.5 -77.5t97.5 -199.5v-35h-90v35q0 87 -71 141t-197 54t-197 -54t-71 -141q0 -81 54 -125 t177 -69l121 -25q164 -34 237.5 -102t73.5 -185q0 -131 -104 -211t-277 -80q-171 0 -276 79.5t-105 211.5z" />
<glyph unicode="&#x456;" horiz-adv-x="393" d="M152 0v1024h90v-1024h-90zM152 1253v181h90v-181h-90z" />
<glyph unicode="&#x457;" horiz-adv-x="393" d="M-23 1255v117h113v-117h-113zM152 0v1024h90v-1024h-90zM303 1255v117h113v-117h-113z" />
<glyph unicode="&#x458;" horiz-adv-x="393" d="M-55 -365h49q81 0 119.5 40t38.5 128v1221h90v-1219q0 -131 -60 -191t-182 -60q-41 0 -55 2v79zM152 1253v181h90v-181h-90z" />
<glyph unicode="&#x459;" horiz-adv-x="1658" d="M35 -12v80h43q57 0 81.5 26.5t24.5 95.5v834h742v-356h313q173 0 261.5 -89t88.5 -245t-88.5 -245t-261.5 -89h-403v942h-562v-756q0 -108 -46.5 -154t-139.5 -46q-39 0 -53 2zM926 82h303q134 0 202 64t68 188q0 123 -68 187.5t-202 64.5h-303v-504z" />
<glyph unicode="&#x45a;" horiz-adv-x="1619" d="M141 0v1024h90v-459h566v459h90v-356h313q173 0 261.5 -89t88.5 -245t-88.5 -245t-261.5 -89h-403v483h-566v-483h-90zM887 82h303q134 0 202 64t68 188q0 123 -68 187.5t-202 64.5h-303v-504z" />
<glyph unicode="&#x45b;" horiz-adv-x="1093" d="M23 1200v74h118v160h90v-160h340v-74h-340v-389q42 109 134 173.5t227 64.5q176 0 270 -110t94 -308v-631h-90v602q0 365 -286 365q-154 0 -250 -121t-99 -332v-514h-90v1200h-118z" />
<glyph unicode="&#x45c;" horiz-adv-x="911" d="M141 0v1024h90v-451h140l372 451h111l-405 -489l452 -535h-113l-419 492h-138v-492h-90zM342 1155l215 330h105l-228 -330h-92z" />
<glyph unicode="&#x45d;" horiz-adv-x="1056" d="M141 0v1024h90v-872l594 872h90v-1024h-90v872l-594 -872h-90zM346 1485h105l215 -330h-93z" />
<glyph unicode="&#x45e;" horiz-adv-x="1007" d="M41 1024h96l367 -913l366 913h97l-521 -1288q-44 -109 -99.5 -145.5t-156.5 -36.5q-29 0 -43 2v79h37q74 0 110.5 24t67.5 103l95 236zM219 1466h86q15 -225 203 -225t203 225h86q-4 -146 -80.5 -224.5t-208.5 -78.5t-208.5 78.5t-80.5 224.5z" />
<glyph unicode="&#x45f;" horiz-adv-x="1048" d="M141 0v1024h90v-942h586v942h90v-1024h-338v-225h-90v225h-338z" />
<glyph unicode="&#x490;" horiz-adv-x="976" d="M164 0v1434h694v286h94v-372h-694v-1348h-94z" />
<glyph unicode="&#x491;" horiz-adv-x="792" d="M141 0v1024h525v221h90v-303h-525v-942h-90z" />
<glyph unicode="&#x2000;" horiz-adv-x="969" />
<glyph unicode="&#x2001;" horiz-adv-x="1939" />
<glyph unicode="&#x2002;" horiz-adv-x="969" />
<glyph unicode="&#x2003;" horiz-adv-x="1939" />
<glyph unicode="&#x2004;" horiz-adv-x="646" />
<glyph unicode="&#x2005;" horiz-adv-x="484" />
<glyph unicode="&#x2006;" horiz-adv-x="323" />
<glyph unicode="&#x2007;" horiz-adv-x="323" />
<glyph unicode="&#x2008;" horiz-adv-x="242" />
<glyph unicode="&#x2009;" horiz-adv-x="387" />
<glyph unicode="&#x200a;" horiz-adv-x="107" />
<glyph unicode="&#x2010;" horiz-adv-x="815" d="M119 625v86h577v-86h-577z" />
<glyph unicode="&#x2011;" horiz-adv-x="815" d="M119 625v86h577v-86h-577z" />
<glyph unicode="&#x2012;" horiz-adv-x="815" d="M119 625v86h577v-86h-577z" />
<glyph unicode="&#x2013;" horiz-adv-x="1024" d="M0 627v82h1024v-82h-1024z" />
<glyph unicode="&#x2014;" horiz-adv-x="2048" d="M0 627v82h2048v-82h-2048z" />
<glyph unicode="&#x2018;" horiz-adv-x="561" d="M225 1165v213q0 90 32.5 138.5t109.5 70.5v-59q-42 -14 -61 -47t-19 -95v-30h49v-191h-111z" />
<glyph unicode="&#x2019;" horiz-adv-x="561" d="M195 1165v60q42 14 60.5 46.5t18.5 94.5v31h-49v190h111v-213q0 -90 -32 -139t-109 -70z" />
<glyph unicode="&#x201a;" horiz-adv-x="561" d="M195 -176q42 14 60.5 46.5t18.5 94.5v31h-49v190h111v-213q0 -90 -32 -139t-109 -70v60z" />
<glyph unicode="&#x201c;" horiz-adv-x="794" d="M225 1165v213q0 90 32.5 138.5t109.5 70.5v-59q-42 -14 -61 -47t-19 -95v-30h49v-191h-111zM459 1165v213q0 90 32 139t109 70v-59q-42 -14 -61 -47t-19 -95v-30h49v-191h-110z" />
<glyph unicode="&#x201d;" horiz-adv-x="794" d="M195 1165v60q42 14 60.5 46.5t18.5 94.5v31h-49v190h111v-213q0 -90 -32 -139t-109 -70zM428 1165v60q42 14 61 46.5t19 94.5v31h-49v190h110v-213q0 -90 -32 -139t-109 -70z" />
<glyph unicode="&#x201e;" horiz-adv-x="794" d="M195 -176q42 14 60.5 46.5t18.5 94.5v31h-49v190h111v-213q0 -90 -32 -139t-109 -70v60zM428 -176q42 14 61 46.5t19 94.5v31h-49v190h110v-213q0 -90 -32 -139t-109 -70v60z" />
<glyph unicode="&#x2020;" horiz-adv-x="1138" d="M154 1106v82h370v344h90v-344h371v-82h-371v-1374h-90v1374h-370z" />
<glyph unicode="&#x2021;" horiz-adv-x="1138" d="M154 76v82h370v948h-370v82h370v344h90v-344h371v-82h-371v-948h371v-82h-371v-344h-90v344h-370z" />
<glyph unicode="&#x2022;" horiz-adv-x="741" d="M102 668q0 110 79.5 189t189.5 79t189 -79t79 -189t-79 -189.5t-189 -79.5t-189.5 79.5t-79.5 189.5z" />
<glyph unicode="&#x2026;" horiz-adv-x="1683" d="M225 0v186h111v-186h-111zM786 0v186h111v-186h-111zM1348 0v186h110v-186h-110z" />
<glyph unicode="&#x202f;" horiz-adv-x="387" />
<glyph unicode="&#x2030;" horiz-adv-x="2244" d="M131 1071q0 196 72.5 291.5t206.5 95.5t206 -95.5t72 -291.5t-72 -291.5t-206 -95.5t-206.5 95.5t-72.5 291.5zM211 1071q0 -170 51.5 -243.5t147.5 -73.5t147 73t51 244t-51 244.5t-147 73.5t-147.5 -74t-51.5 -244zM463 0l588 1434h82l-588 -1434h-82zM907 362 q0 196 72.5 292t206.5 96t206 -96t72 -292t-72 -291.5t-206 -95.5t-206.5 95.5t-72.5 291.5zM987 362q0 -170 51.5 -243.5t147.5 -73.5t147 73t51 244t-51 244.5t-147 73.5t-147.5 -74t-51.5 -244zM1556 362q0 196 72.5 292t206.5 96t206.5 -96t72.5 -292t-72.5 -291.5 t-206.5 -95.5t-206.5 95.5t-72.5 291.5zM1636 362q0 -170 51.5 -243.5t147.5 -73.5t147.5 73.5t51.5 243.5t-51.5 244t-147.5 74t-147.5 -74t-51.5 -244z" />
<glyph unicode="&#x2039;" horiz-adv-x="628" d="M94 606v66l441 282v-80l-375 -235l375 -236v-79z" />
<glyph unicode="&#x203a;" horiz-adv-x="628" d="M94 324v79l375 236l-375 235v80l441 -282v-66z" />
<glyph unicode="&#x2044;" horiz-adv-x="249" d="M-266 0l698 1434h84l-698 -1434h-84z" />
<glyph unicode="&#x205f;" horiz-adv-x="484" />
<glyph unicode="&#x20ac;" horiz-adv-x="1273" d="M25 592v70h92v110h-92v70h96q19 301 143 454q134 162 385 162q233 0 367 -130.5t149 -358.5h-96q-14 191 -120.5 297t-299.5 106q-204 0 -311 -131q-110 -135 -125 -399h498l-15 -70h-485v-110h463l-15 -70h-446q15 -267 125 -399q107 -132 311 -132q193 0 299.5 106.5 t120.5 297.5h96q-15 -228 -149 -359t-367 -131q-251 0 -385 162q-124 150 -143 455h-96z" />
<glyph unicode="&#x2122;" horiz-adv-x="1331" d="M35 1368v66h483v-66h-205v-618h-73v618h-205zM575 750v684h78l250 -586l250 586h78v-684h-74v518l-221 -518h-66l-221 518v-518h-74z" />
<glyph unicode="&#x2202;" horiz-adv-x="1120" d="M109 389q0 240 128.5 390.5t342.5 150.5q125 0 211 -52t122 -141q9 108 9 183q0 233 -75.5 344.5t-225.5 111.5q-119 0 -201.5 -65.5t-118.5 -198.5h-92q41 170 149 258t265 88q192 0 290.5 -132.5t98.5 -416.5q0 -345 -55 -550.5t-165 -294.5t-290 -89 q-183 0 -288 110.5t-105 303.5zM199 387q0 -155 84.5 -242.5t226.5 -87.5q167 0 274 121.5t107 329.5q0 160 -84 250t-227 90q-96 0 -170.5 -38t-119.5 -103.5t-68 -146.5t-23 -173z" />
<glyph unicode="&#x2206;" horiz-adv-x="1204" d="M23 0l530 1434h98l531 -1434h-1159zM154 86h895l-447 1231z" />
<glyph unicode="&#x220f;" horiz-adv-x="1286" d="M170 -227v1661h946v-1661h-94v1575h-758v-1575h-94z" />
<glyph unicode="&#x2211;" horiz-adv-x="1128" d="M117 -147l336 741l-336 758v82h893v-82h-793l324 -742v-35l-322 -720h791v-82h-893v80z" />
<glyph unicode="&#x221a;" horiz-adv-x="1075" d="M23 541h98l344 -656l516 1651h94l-553 -1763h-94z" />
<glyph unicode="&#x221e;" horiz-adv-x="1630" d="M141 678q0 141 89 225t233 84q109 0 201.5 -63t150.5 -187q58 124 150.5 187t201.5 63q144 0 233 -84t89 -225t-89 -225t-233 -84q-109 0 -201.5 62.5t-150.5 186.5q-58 -124 -150.5 -186.5t-201.5 -62.5q-144 0 -233 84t-89 225zM223 678q0 -113 71 -174.5t171 -61.5 q95 0 169.5 54.5t133.5 181.5q-59 127 -133.5 181t-169.5 54q-100 0 -171 -61t-71 -174zM862 678q59 -127 133.5 -181.5t169.5 -54.5q100 0 171 61.5t71 174.5t-71 174t-171 61q-95 0 -169.5 -54t-133.5 -181z" />
<glyph unicode="&#x222b;" horiz-adv-x="835" d="M70 -141h92q124 0 167.5 42.5t43.5 164.5v1286q0 157 65.5 218.5t229.5 61.5q32 0 98 -4v-78h-92q-124 0 -167.5 -42.5t-43.5 -164.5v-1286q0 -157 -65.5 -218.5t-229.5 -61.5q-32 0 -98 4v78z" />
<glyph unicode="&#x2248;" horiz-adv-x="1077" d="M145 342q0 146 56 223.5t159 77.5q61 0 105.5 -24.5t71 -59.5t50 -69.5t55.5 -59t73 -24.5q130 0 133 225h84q0 -146 -56 -223.5t-159 -77.5q-61 0 -105.5 24.5t-71 59t-50 69.5t-55.5 59.5t-73 24.5q-130 0 -133 -225h-84zM145 705q0 146 56 223.5t159 77.5 q61 0 105.5 -24.5t71 -59.5t50 -70t55.5 -59.5t73 -24.5q130 0 133 225h84q0 -146 -56 -223.5t-159 -77.5q-61 0 -105.5 24.5t-71 59.5t-50 70t-55.5 59.5t-73 24.5q-130 0 -133 -225h-84z" />
<glyph unicode="&#x2260;" horiz-adv-x="1077" d="M119 442v82h293l163 287h-456v82h504l163 285h91l-164 -285h245v-82h-292l-164 -287h456v-82h-503l-164 -284h-90l164 284h-246z" />
<glyph unicode="&#x2264;" horiz-adv-x="1077" d="M119 0v78h839v-78h-839zM135 690v78l807 399v-90l-709 -348l709 -348v-90z" />
<glyph unicode="&#x2265;" horiz-adv-x="1077" d="M119 0h839v78h-839v-78zM135 291v90l709 348l-709 348v90l807 -399v-78z" />
<glyph unicode="&#x25ca;" horiz-adv-x="1183" d="M92 618l500 941l500 -941l-500 -940zM190 618l402 -753l401 753l-401 754z" />
<glyph unicode="&#x25fc;" horiz-adv-x="1024" d="M0 0v1024h1024v-1024h-1024z" />
</font>
</defs>
</svg>
